<?xml version="1.0" encoding="UTF-8"?>
<svg id="Layer_1" data-name="Layer 1" xmlns="http://www.w3.org/2000/svg" viewBox="0 0 2721.51 14.02">
  <defs>
    <style>
      .cls-1 {
        fill: none;
        stroke: #221f20;
        stroke-miterlimit: 10;
      }
    </style>
  </defs>
  <g>
    <path class="cls-1" d="M13.52,7.01c0,3.59-2.91,6.51-6.51,6.51S.5,10.6.5,7.01"/>
    <path class="cls-1" d="M690.39,7.01c0,3.59-2.91,6.51-6.51,6.51s-6.51-2.91-6.51-6.51"/>
    <path class="cls-1" d="M13.52,7.01c0-3.59,2.91-6.51,6.51-6.51s6.51,2.91,6.51,6.51"/>
    <path class="cls-1" d="M39.55,7.01c0,3.59-2.91,6.51-6.51,6.51s-6.51-2.91-6.51-6.51"/>
    <path class="cls-1" d="M39.55,7.01c0-3.59,2.91-6.51,6.51-6.51s6.51,2.91,6.51,6.51"/>
    <path class="cls-1" d="M65.58,7.01c0,3.59-2.91,6.51-6.51,6.51s-6.51-2.91-6.51-6.51"/>
    <path class="cls-1" d="M65.58,7.01c0-3.59,2.91-6.51,6.51-6.51s6.51,2.91,6.51,6.51"/>
    <path class="cls-1" d="M91.62,7.01c0,3.59-2.91,6.51-6.51,6.51s-6.51-2.91-6.51-6.51"/>
    <path class="cls-1" d="M91.62,7.01c0-3.59,2.91-6.51,6.51-6.51s6.51,2.91,6.51,6.51"/>
    <path class="cls-1" d="M117.65,7.01c0,3.59-2.91,6.51-6.51,6.51s-6.51-2.91-6.51-6.51"/>
    <path class="cls-1" d="M117.65,7.01c0-3.59,2.91-6.51,6.51-6.51s6.51,2.91,6.51,6.51"/>
    <path class="cls-1" d="M143.68,7.01c0,3.59-2.91,6.51-6.51,6.51s-6.51-2.91-6.51-6.51"/>
    <path class="cls-1" d="M143.68,7.01c0-3.59,2.91-6.51,6.51-6.51s6.51,2.91,6.51,6.51"/>
    <path class="cls-1" d="M169.72,7.01c0,3.59-2.91,6.51-6.51,6.51s-6.51-2.91-6.51-6.51"/>
    <path class="cls-1" d="M169.72,7.01c0-3.59,2.91-6.51,6.51-6.51s6.51,2.91,6.51,6.51"/>
    <path class="cls-1" d="M195.75,7.01c0,3.59-2.91,6.51-6.51,6.51s-6.51-2.91-6.51-6.51"/>
    <path class="cls-1" d="M195.75,7.01c0-3.59,2.91-6.51,6.51-6.51s6.51,2.91,6.51,6.51"/>
    <path class="cls-1" d="M221.79,7.01c0,3.59-2.91,6.51-6.51,6.51s-6.51-2.91-6.51-6.51"/>
    <path class="cls-1" d="M221.79,7.01c0-3.59,2.91-6.51,6.51-6.51s6.51,2.91,6.51,6.51"/>
    <path class="cls-1" d="M247.82,7.01c0,3.59-2.91,6.51-6.51,6.51s-6.51-2.91-6.51-6.51"/>
    <path class="cls-1" d="M247.82,7.01c0-3.59,2.91-6.51,6.51-6.51s6.51,2.91,6.51,6.51"/>
    <path class="cls-1" d="M273.85,7.01c0,3.59-2.91,6.51-6.51,6.51s-6.51-2.91-6.51-6.51"/>
    <path class="cls-1" d="M273.85,7.01c0-3.59,2.91-6.51,6.51-6.51s6.51,2.91,6.51,6.51"/>
    <path class="cls-1" d="M299.89,7.01c0,3.59-2.91,6.51-6.51,6.51s-6.51-2.91-6.51-6.51"/>
    <path class="cls-1" d="M299.89,7.01c0-3.59,2.91-6.51,6.51-6.51s6.51,2.91,6.51,6.51"/>
    <path class="cls-1" d="M325.92,7.01c0,3.59-2.91,6.51-6.51,6.51s-6.51-2.91-6.51-6.51"/>
    <path class="cls-1" d="M325.92,7.01c0-3.59,2.91-6.51,6.51-6.51s6.51,2.91,6.51,6.51"/>
    <path class="cls-1" d="M351.95,7.01c0,3.59-2.91,6.51-6.51,6.51s-6.51-2.91-6.51-6.51"/>
    <path class="cls-1" d="M351.95,7.01c0-3.59,2.91-6.51,6.51-6.51s6.51,2.91,6.51,6.51"/>
    <path class="cls-1" d="M377.99,7.01c0,3.59-2.91,6.51-6.51,6.51s-6.51-2.91-6.51-6.51"/>
    <path class="cls-1" d="M377.99,7.01c0-3.59,2.91-6.51,6.51-6.51s6.51,2.91,6.51,6.51"/>
    <path class="cls-1" d="M404.02,7.01c0,3.59-2.91,6.51-6.51,6.51s-6.51-2.91-6.51-6.51"/>
    <path class="cls-1" d="M404.02,7.01c0-3.59,2.91-6.51,6.51-6.51s6.51,2.91,6.51,6.51"/>
    <path class="cls-1" d="M430.05,7.01c0,3.59-2.91,6.51-6.51,6.51s-6.51-2.91-6.51-6.51"/>
    <path class="cls-1" d="M430.05,7.01c0-3.59,2.91-6.51,6.51-6.51s6.51,2.91,6.51,6.51"/>
    <path class="cls-1" d="M456.09,7.01c0,3.59-2.91,6.51-6.51,6.51s-6.51-2.91-6.51-6.51"/>
    <path class="cls-1" d="M456.09,7.01c0-3.59,2.91-6.51,6.51-6.51s6.51,2.91,6.51,6.51"/>
    <path class="cls-1" d="M482.12,7.01c0,3.59-2.91,6.51-6.51,6.51s-6.51-2.91-6.51-6.51"/>
    <path class="cls-1" d="M482.12,7.01c0-3.59,2.91-6.51,6.51-6.51s6.51,2.91,6.51,6.51"/>
    <path class="cls-1" d="M508.16,7.01c0,3.59-2.91,6.51-6.51,6.51s-6.51-2.91-6.51-6.51"/>
    <path class="cls-1" d="M508.16,7.01c0-3.59,2.91-6.51,6.51-6.51s6.51,2.91,6.51,6.51"/>
    <path class="cls-1" d="M534.19,7.01c0,3.59-2.91,6.51-6.51,6.51s-6.51-2.91-6.51-6.51"/>
    <path class="cls-1" d="M534.19,7.01c0-3.59,2.91-6.51,6.51-6.51s6.51,2.91,6.51,6.51"/>
    <path class="cls-1" d="M560.22,7.01c0,3.59-2.91,6.51-6.51,6.51s-6.51-2.91-6.51-6.51"/>
    <path class="cls-1" d="M560.22,7.01c0-3.59,2.91-6.51,6.51-6.51s6.51,2.91,6.51,6.51"/>
    <path class="cls-1" d="M586.26,7.01c0,3.59-2.91,6.51-6.51,6.51s-6.51-2.91-6.51-6.51"/>
    <path class="cls-1" d="M586.26,7.01c0-3.59,2.91-6.51,6.51-6.51s6.51,2.91,6.51,6.51"/>
    <path class="cls-1" d="M612.29,7.01c0,3.59-2.91,6.51-6.51,6.51s-6.51-2.91-6.51-6.51"/>
    <path class="cls-1" d="M612.29,7.01c0-3.59,2.91-6.51,6.51-6.51s6.51,2.91,6.51,6.51"/>
    <path class="cls-1" d="M638.32,7.01c0,3.59-2.91,6.51-6.51,6.51s-6.51-2.91-6.51-6.51"/>
    <path class="cls-1" d="M638.32,7.01c0-3.59,2.91-6.51,6.51-6.51s6.51,2.91,6.51,6.51"/>
    <path class="cls-1" d="M664.36,7.01c0,3.59-2.91,6.51-6.51,6.51s-6.51-2.91-6.51-6.51"/>
    <path class="cls-1" d="M664.36,7.01c0-3.59,2.91-6.51,6.51-6.51s6.51,2.91,6.51,6.51"/>
    <path class="cls-1" d="M1367.26,7.01c0,3.59-2.91,6.51-6.51,6.51s-6.51-2.91-6.51-6.51"/>
    <path class="cls-1" d="M690.39,7.01c0-3.59,2.91-6.51,6.51-6.51s6.51,2.91,6.51,6.51"/>
    <path class="cls-1" d="M716.42,7.01c0,3.59-2.91,6.51-6.51,6.51s-6.51-2.91-6.51-6.51"/>
    <path class="cls-1" d="M716.42,7.01c0-3.59,2.91-6.51,6.51-6.51s6.51,2.91,6.51,6.51"/>
    <path class="cls-1" d="M742.46,7.01c0,3.59-2.91,6.51-6.51,6.51s-6.51-2.91-6.51-6.51"/>
    <path class="cls-1" d="M742.46,7.01c0-3.59,2.91-6.51,6.51-6.51s6.51,2.91,6.51,6.51"/>
    <path class="cls-1" d="M768.49,7.01c0,3.59-2.91,6.51-6.51,6.51s-6.51-2.91-6.51-6.51"/>
    <path class="cls-1" d="M768.49,7.01c0-3.59,2.91-6.51,6.51-6.51s6.51,2.91,6.51,6.51"/>
    <path class="cls-1" d="M794.52,7.01c0,3.59-2.91,6.51-6.51,6.51s-6.51-2.91-6.51-6.51"/>
    <path class="cls-1" d="M794.52,7.01c0-3.59,2.91-6.51,6.51-6.51s6.51,2.91,6.51,6.51"/>
    <path class="cls-1" d="M820.56,7.01c0,3.59-2.91,6.51-6.51,6.51s-6.51-2.91-6.51-6.51"/>
    <path class="cls-1" d="M820.56,7.01c0-3.59,2.91-6.51,6.51-6.51s6.51,2.91,6.51,6.51"/>
    <path class="cls-1" d="M846.59,7.01c0,3.59-2.91,6.51-6.51,6.51s-6.51-2.91-6.51-6.51"/>
    <path class="cls-1" d="M846.59,7.01c0-3.59,2.91-6.51,6.51-6.51s6.51,2.91,6.51,6.51"/>
    <path class="cls-1" d="M872.63,7.01c0,3.59-2.91,6.51-6.51,6.51s-6.51-2.91-6.51-6.51"/>
    <path class="cls-1" d="M872.63,7.01c0-3.59,2.91-6.51,6.51-6.51s6.51,2.91,6.51,6.51"/>
    <path class="cls-1" d="M898.66,7.01c0,3.59-2.91,6.51-6.51,6.51s-6.51-2.91-6.51-6.51"/>
    <path class="cls-1" d="M898.66,7.01c0-3.59,2.91-6.51,6.51-6.51s6.51,2.91,6.51,6.51"/>
    <path class="cls-1" d="M924.69,7.01c0,3.59-2.91,6.51-6.51,6.51s-6.51-2.91-6.51-6.51"/>
    <path class="cls-1" d="M924.69,7.01c0-3.59,2.91-6.51,6.51-6.51s6.51,2.91,6.51,6.51"/>
    <path class="cls-1" d="M950.73,7.01c0,3.59-2.91,6.51-6.51,6.51s-6.51-2.91-6.51-6.51"/>
    <path class="cls-1" d="M950.73,7.01c0-3.59,2.91-6.51,6.51-6.51s6.51,2.91,6.51,6.51"/>
    <path class="cls-1" d="M976.76,7.01c0,3.59-2.91,6.51-6.51,6.51s-6.51-2.91-6.51-6.51"/>
    <path class="cls-1" d="M976.76,7.01c0-3.59,2.91-6.51,6.51-6.51s6.51,2.91,6.51,6.51"/>
    <path class="cls-1" d="M1002.79,7.01c0,3.59-2.91,6.51-6.51,6.51s-6.51-2.91-6.51-6.51"/>
    <path class="cls-1" d="M1002.79,7.01c0-3.59,2.91-6.51,6.51-6.51s6.51,2.91,6.51,6.51"/>
    <path class="cls-1" d="M1028.83,7.01c0,3.59-2.91,6.51-6.51,6.51s-6.51-2.91-6.51-6.51"/>
    <path class="cls-1" d="M1028.83,7.01c0-3.59,2.91-6.51,6.51-6.51s6.51,2.91,6.51,6.51"/>
    <path class="cls-1" d="M1054.86,7.01c0,3.59-2.91,6.51-6.51,6.51s-6.51-2.91-6.51-6.51"/>
    <path class="cls-1" d="M1054.86,7.01c0-3.59,2.91-6.51,6.51-6.51s6.51,2.91,6.51,6.51"/>
    <path class="cls-1" d="M1080.89,7.01c0,3.59-2.91,6.51-6.51,6.51s-6.51-2.91-6.51-6.51"/>
    <path class="cls-1" d="M1080.89,7.01c0-3.59,2.91-6.51,6.51-6.51s6.51,2.91,6.51,6.51"/>
    <path class="cls-1" d="M1106.93,7.01c0,3.59-2.91,6.51-6.51,6.51s-6.51-2.91-6.51-6.51"/>
    <path class="cls-1" d="M1106.93,7.01c0-3.59,2.91-6.51,6.51-6.51s6.51,2.91,6.51,6.51"/>
    <path class="cls-1" d="M1132.96,7.01c0,3.59-2.91,6.51-6.51,6.51s-6.51-2.91-6.51-6.51"/>
    <path class="cls-1" d="M1132.96,7.01c0-3.59,2.91-6.51,6.51-6.51s6.51,2.91,6.51,6.51"/>
    <path class="cls-1" d="M1158.99,7.01c0,3.59-2.91,6.51-6.51,6.51s-6.51-2.91-6.51-6.51"/>
    <path class="cls-1" d="M1158.99,7.01c0-3.59,2.91-6.51,6.51-6.51s6.51,2.91,6.51,6.51"/>
    <path class="cls-1" d="M1185.03,7.01c0,3.59-2.91,6.51-6.51,6.51s-6.51-2.91-6.51-6.51"/>
    <path class="cls-1" d="M1185.03,7.01c0-3.59,2.91-6.51,6.51-6.51s6.51,2.91,6.51,6.51"/>
    <path class="cls-1" d="M1211.06,7.01c0,3.59-2.91,6.51-6.51,6.51s-6.51-2.91-6.51-6.51"/>
    <path class="cls-1" d="M1211.06,7.01c0-3.59,2.91-6.51,6.51-6.51s6.51,2.91,6.51,6.51"/>
    <path class="cls-1" d="M1237.1,7.01c0,3.59-2.91,6.51-6.51,6.51s-6.51-2.91-6.51-6.51"/>
    <path class="cls-1" d="M1237.1,7.01c0-3.59,2.91-6.51,6.51-6.51s6.51,2.91,6.51,6.51"/>
    <path class="cls-1" d="M1263.13,7.01c0,3.59-2.91,6.51-6.51,6.51s-6.51-2.91-6.51-6.51"/>
    <path class="cls-1" d="M1263.13,7.01c0-3.59,2.91-6.51,6.51-6.51s6.51,2.91,6.51,6.51"/>
    <path class="cls-1" d="M1289.16,7.01c0,3.59-2.91,6.51-6.51,6.51s-6.51-2.91-6.51-6.51"/>
    <path class="cls-1" d="M1289.16,7.01c0-3.59,2.91-6.51,6.51-6.51s6.51,2.91,6.51,6.51"/>
    <path class="cls-1" d="M1315.2,7.01c0,3.59-2.91,6.51-6.51,6.51s-6.51-2.91-6.51-6.51"/>
    <path class="cls-1" d="M1315.2,7.01c0-3.59,2.91-6.51,6.51-6.51s6.51,2.91,6.51,6.51"/>
    <path class="cls-1" d="M1341.23,7.01c0,3.59-2.91,6.51-6.51,6.51s-6.51-2.91-6.51-6.51"/>
    <path class="cls-1" d="M1341.23,7.01c0-3.59,2.91-6.51,6.51-6.51s6.51,2.91,6.51,6.51"/>
  </g>
  <g>
    <path class="cls-1" d="M2044.14,7.01c0,3.59-2.91,6.51-6.51,6.51s-6.51-2.91-6.51-6.51"/>
    <path class="cls-1" d="M1367.26,7.01c0-3.59,2.91-6.51,6.51-6.51s6.51,2.91,6.51,6.51"/>
    <path class="cls-1" d="M1393.3,7.01c0,3.59-2.91,6.51-6.51,6.51s-6.51-2.91-6.51-6.51"/>
    <path class="cls-1" d="M1393.3,7.01c0-3.59,2.91-6.51,6.51-6.51s6.51,2.91,6.51,6.51"/>
    <path class="cls-1" d="M1419.33,7.01c0,3.59-2.91,6.51-6.51,6.51s-6.51-2.91-6.51-6.51"/>
    <path class="cls-1" d="M1419.33,7.01c0-3.59,2.91-6.51,6.51-6.51s6.51,2.91,6.51,6.51"/>
    <path class="cls-1" d="M1445.36,7.01c0,3.59-2.91,6.51-6.51,6.51s-6.51-2.91-6.51-6.51"/>
    <path class="cls-1" d="M1445.36,7.01c0-3.59,2.91-6.51,6.51-6.51s6.51,2.91,6.51,6.51"/>
    <path class="cls-1" d="M1471.4,7.01c0,3.59-2.91,6.51-6.51,6.51s-6.51-2.91-6.51-6.51"/>
    <path class="cls-1" d="M1471.4,7.01c0-3.59,2.91-6.51,6.51-6.51s6.51,2.91,6.51,6.51"/>
    <path class="cls-1" d="M1497.43,7.01c0,3.59-2.91,6.51-6.51,6.51s-6.51-2.91-6.51-6.51"/>
    <path class="cls-1" d="M1497.43,7.01c0-3.59,2.91-6.51,6.51-6.51s6.51,2.91,6.51,6.51"/>
    <path class="cls-1" d="M1523.47,7.01c0,3.59-2.91,6.51-6.51,6.51s-6.51-2.91-6.51-6.51"/>
    <path class="cls-1" d="M1523.47,7.01c0-3.59,2.91-6.51,6.51-6.51s6.51,2.91,6.51,6.51"/>
    <path class="cls-1" d="M1549.5,7.01c0,3.59-2.91,6.51-6.51,6.51s-6.51-2.91-6.51-6.51"/>
    <path class="cls-1" d="M1549.5,7.01c0-3.59,2.91-6.51,6.51-6.51s6.51,2.91,6.51,6.51"/>
    <path class="cls-1" d="M1575.53,7.01c0,3.59-2.91,6.51-6.51,6.51s-6.51-2.91-6.51-6.51"/>
    <path class="cls-1" d="M1575.53,7.01c0-3.59,2.91-6.51,6.51-6.51s6.51,2.91,6.51,6.51"/>
    <path class="cls-1" d="M1601.57,7.01c0,3.59-2.91,6.51-6.51,6.51s-6.51-2.91-6.51-6.51"/>
    <path class="cls-1" d="M1601.57,7.01c0-3.59,2.91-6.51,6.51-6.51s6.51,2.91,6.51,6.51"/>
    <path class="cls-1" d="M1627.6,7.01c0,3.59-2.91,6.51-6.51,6.51s-6.51-2.91-6.51-6.51"/>
    <path class="cls-1" d="M1627.6,7.01c0-3.59,2.91-6.51,6.51-6.51s6.51,2.91,6.51,6.51"/>
    <path class="cls-1" d="M1653.63,7.01c0,3.59-2.91,6.51-6.51,6.51s-6.51-2.91-6.51-6.51"/>
    <path class="cls-1" d="M1653.63,7.01c0-3.59,2.91-6.51,6.51-6.51s6.51,2.91,6.51,6.51"/>
    <path class="cls-1" d="M1679.67,7.01c0,3.59-2.91,6.51-6.51,6.51s-6.51-2.91-6.51-6.51"/>
    <path class="cls-1" d="M1679.67,7.01c0-3.59,2.91-6.51,6.51-6.51s6.51,2.91,6.51,6.51"/>
    <path class="cls-1" d="M1705.7,7.01c0,3.59-2.91,6.51-6.51,6.51s-6.51-2.91-6.51-6.51"/>
    <path class="cls-1" d="M1705.7,7.01c0-3.59,2.91-6.51,6.51-6.51s6.51,2.91,6.51,6.51"/>
    <path class="cls-1" d="M1731.73,7.01c0,3.59-2.91,6.51-6.51,6.51s-6.51-2.91-6.51-6.51"/>
    <path class="cls-1" d="M1731.73,7.01c0-3.59,2.91-6.51,6.51-6.51s6.51,2.91,6.51,6.51"/>
    <path class="cls-1" d="M1757.77,7.01c0,3.59-2.91,6.51-6.51,6.51s-6.51-2.91-6.51-6.51"/>
    <path class="cls-1" d="M1757.77,7.01c0-3.59,2.91-6.51,6.51-6.51s6.51,2.91,6.51,6.51"/>
    <path class="cls-1" d="M1783.8,7.01c0,3.59-2.91,6.51-6.51,6.51s-6.51-2.91-6.51-6.51"/>
    <path class="cls-1" d="M1783.8,7.01c0-3.59,2.91-6.51,6.51-6.51s6.51,2.91,6.51,6.51"/>
    <path class="cls-1" d="M1809.83,7.01c0,3.59-2.91,6.51-6.51,6.51s-6.51-2.91-6.51-6.51"/>
    <path class="cls-1" d="M1809.83,7.01c0-3.59,2.91-6.51,6.51-6.51s6.51,2.91,6.51,6.51"/>
    <path class="cls-1" d="M1835.87,7.01c0,3.59-2.91,6.51-6.51,6.51s-6.51-2.91-6.51-6.51"/>
    <path class="cls-1" d="M1835.87,7.01c0-3.59,2.91-6.51,6.51-6.51s6.51,2.91,6.51,6.51"/>
    <path class="cls-1" d="M1861.9,7.01c0,3.59-2.91,6.51-6.51,6.51s-6.51-2.91-6.51-6.51"/>
    <path class="cls-1" d="M1861.9,7.01c0-3.59,2.91-6.51,6.51-6.51s6.51,2.91,6.51,6.51"/>
    <path class="cls-1" d="M1887.94,7.01c0,3.59-2.91,6.51-6.51,6.51s-6.51-2.91-6.51-6.51"/>
    <path class="cls-1" d="M1887.94,7.01c0-3.59,2.91-6.51,6.51-6.51s6.51,2.91,6.51,6.51"/>
    <path class="cls-1" d="M1913.97,7.01c0,3.59-2.91,6.51-6.51,6.51s-6.51-2.91-6.51-6.51"/>
    <path class="cls-1" d="M1913.97,7.01c0-3.59,2.91-6.51,6.51-6.51s6.51,2.91,6.51,6.51"/>
    <path class="cls-1" d="M1940,7.01c0,3.59-2.91,6.51-6.51,6.51s-6.51-2.91-6.51-6.51"/>
    <path class="cls-1" d="M1940,7.01c0-3.59,2.91-6.51,6.51-6.51s6.51,2.91,6.51,6.51"/>
    <path class="cls-1" d="M1966.04,7.01c0,3.59-2.91,6.51-6.51,6.51s-6.51-2.91-6.51-6.51"/>
    <path class="cls-1" d="M1966.04,7.01c0-3.59,2.91-6.51,6.51-6.51s6.51,2.91,6.51,6.51"/>
    <path class="cls-1" d="M1992.07,7.01c0,3.59-2.91,6.51-6.51,6.51s-6.51-2.91-6.51-6.51"/>
    <path class="cls-1" d="M1992.07,7.01c0-3.59,2.91-6.51,6.51-6.51s6.51,2.91,6.51,6.51"/>
    <path class="cls-1" d="M2018.1,7.01c0,3.59-2.91,6.51-6.51,6.51s-6.51-2.91-6.51-6.51"/>
    <path class="cls-1" d="M2018.1,7.01c0-3.59,2.91-6.51,6.51-6.51s6.51,2.91,6.51,6.51"/>
    <path class="cls-1" d="M2721.01,7.01c0,3.59-2.91,6.51-6.51,6.51s-6.51-2.91-6.51-6.51"/>
    <path class="cls-1" d="M2044.14,7.01c0-3.59,2.91-6.51,6.51-6.51s6.51,2.91,6.51,6.51"/>
    <path class="cls-1" d="M2070.17,7.01c0,3.59-2.91,6.51-6.51,6.51s-6.51-2.91-6.51-6.51"/>
    <path class="cls-1" d="M2070.17,7.01c0-3.59,2.91-6.51,6.51-6.51s6.51,2.91,6.51,6.51"/>
    <path class="cls-1" d="M2096.2,7.01c0,3.59-2.91,6.51-6.51,6.51s-6.51-2.91-6.51-6.51"/>
    <path class="cls-1" d="M2096.2,7.01c0-3.59,2.91-6.51,6.51-6.51s6.51,2.91,6.51,6.51"/>
    <path class="cls-1" d="M2122.24,7.01c0,3.59-2.91,6.51-6.51,6.51s-6.51-2.91-6.51-6.51"/>
    <path class="cls-1" d="M2122.24,7.01c0-3.59,2.91-6.51,6.51-6.51s6.51,2.91,6.51,6.51"/>
    <path class="cls-1" d="M2148.27,7.01c0,3.59-2.91,6.51-6.51,6.51s-6.51-2.91-6.51-6.51"/>
    <path class="cls-1" d="M2148.27,7.01c0-3.59,2.91-6.51,6.51-6.51s6.51,2.91,6.51,6.51"/>
    <path class="cls-1" d="M2174.31,7.01c0,3.59-2.91,6.51-6.51,6.51s-6.51-2.91-6.51-6.51"/>
    <path class="cls-1" d="M2174.31,7.01c0-3.59,2.91-6.51,6.51-6.51s6.51,2.91,6.51,6.51"/>
    <path class="cls-1" d="M2200.34,7.01c0,3.59-2.91,6.51-6.51,6.51s-6.51-2.91-6.51-6.51"/>
    <path class="cls-1" d="M2200.34,7.01c0-3.59,2.91-6.51,6.51-6.51s6.51,2.91,6.51,6.51"/>
    <path class="cls-1" d="M2226.37,7.01c0,3.59-2.91,6.51-6.51,6.51s-6.51-2.91-6.51-6.51"/>
    <path class="cls-1" d="M2226.37,7.01c0-3.59,2.91-6.51,6.51-6.51s6.51,2.91,6.51,6.51"/>
    <path class="cls-1" d="M2252.41,7.01c0,3.59-2.91,6.51-6.51,6.51s-6.51-2.91-6.51-6.51"/>
    <path class="cls-1" d="M2252.41,7.01c0-3.59,2.91-6.51,6.51-6.51s6.51,2.91,6.51,6.51"/>
    <path class="cls-1" d="M2278.44,7.01c0,3.59-2.91,6.51-6.51,6.51s-6.51-2.91-6.51-6.51"/>
    <path class="cls-1" d="M2278.44,7.01c0-3.59,2.91-6.51,6.51-6.51s6.51,2.91,6.51,6.51"/>
    <path class="cls-1" d="M2304.47,7.01c0,3.59-2.91,6.51-6.51,6.51s-6.51-2.91-6.51-6.51"/>
    <path class="cls-1" d="M2304.47,7.01c0-3.59,2.91-6.51,6.51-6.51s6.51,2.91,6.51,6.51"/>
    <path class="cls-1" d="M2330.51,7.01c0,3.59-2.91,6.51-6.51,6.51s-6.51-2.91-6.51-6.51"/>
    <path class="cls-1" d="M2330.51,7.01c0-3.59,2.91-6.51,6.51-6.51s6.51,2.91,6.51,6.51"/>
    <path class="cls-1" d="M2356.54,7.01c0,3.59-2.91,6.51-6.51,6.51s-6.51-2.91-6.51-6.51"/>
    <path class="cls-1" d="M2356.54,7.01c0-3.59,2.91-6.51,6.51-6.51s6.51,2.91,6.51,6.51"/>
    <path class="cls-1" d="M2382.57,7.01c0,3.59-2.91,6.51-6.51,6.51s-6.51-2.91-6.51-6.51"/>
    <path class="cls-1" d="M2382.57,7.01c0-3.59,2.91-6.51,6.51-6.51s6.51,2.91,6.51,6.51"/>
    <path class="cls-1" d="M2408.61,7.01c0,3.59-2.91,6.51-6.51,6.51s-6.51-2.91-6.51-6.51"/>
    <path class="cls-1" d="M2408.61,7.01c0-3.59,2.91-6.51,6.51-6.51s6.51,2.91,6.51,6.51"/>
    <path class="cls-1" d="M2434.64,7.01c0,3.59-2.91,6.51-6.51,6.51s-6.51-2.91-6.51-6.51"/>
    <path class="cls-1" d="M2434.64,7.01c0-3.59,2.91-6.51,6.51-6.51s6.51,2.91,6.51,6.51"/>
    <path class="cls-1" d="M2460.67,7.01c0,3.59-2.91,6.51-6.51,6.51s-6.51-2.91-6.51-6.51"/>
    <path class="cls-1" d="M2460.67,7.01c0-3.59,2.91-6.51,6.51-6.51s6.51,2.91,6.51,6.51"/>
    <path class="cls-1" d="M2486.71,7.01c0,3.59-2.91,6.51-6.51,6.51s-6.51-2.91-6.51-6.51"/>
    <path class="cls-1" d="M2486.71,7.01c0-3.59,2.91-6.51,6.51-6.51s6.51,2.91,6.51,6.51"/>
    <path class="cls-1" d="M2512.74,7.01c0,3.59-2.91,6.51-6.51,6.51s-6.51-2.91-6.51-6.51"/>
    <path class="cls-1" d="M2512.74,7.01c0-3.59,2.91-6.51,6.51-6.51s6.51,2.91,6.51,6.51"/>
    <path class="cls-1" d="M2538.78,7.01c0,3.59-2.91,6.51-6.51,6.51s-6.51-2.91-6.51-6.51"/>
    <path class="cls-1" d="M2538.78,7.01c0-3.59,2.91-6.51,6.51-6.51s6.51,2.91,6.51,6.51"/>
    <path class="cls-1" d="M2564.81,7.01c0,3.59-2.91,6.51-6.51,6.51s-6.51-2.91-6.51-6.51"/>
    <path class="cls-1" d="M2564.81,7.01c0-3.59,2.91-6.51,6.51-6.51s6.51,2.91,6.51,6.51"/>
    <path class="cls-1" d="M2590.84,7.01c0,3.59-2.91,6.51-6.51,6.51s-6.51-2.91-6.51-6.51"/>
    <path class="cls-1" d="M2590.84,7.01c0-3.59,2.91-6.51,6.51-6.51s6.51,2.91,6.51,6.51"/>
    <path class="cls-1" d="M2616.88,7.01c0,3.59-2.91,6.51-6.51,6.51s-6.51-2.91-6.51-6.51"/>
    <path class="cls-1" d="M2616.88,7.01c0-3.59,2.91-6.51,6.51-6.51s6.51,2.91,6.51,6.51"/>
    <path class="cls-1" d="M2642.91,7.01c0,3.59-2.91,6.51-6.51,6.51s-6.51-2.91-6.51-6.51"/>
    <path class="cls-1" d="M2642.91,7.01c0-3.59,2.91-6.51,6.51-6.51s6.51,2.91,6.51,6.51"/>
    <path class="cls-1" d="M2668.94,7.01c0,3.59-2.91,6.51-6.51,6.51s-6.51-2.91-6.51-6.51"/>
    <path class="cls-1" d="M2668.94,7.01c0-3.59,2.91-6.51,6.51-6.51s6.51,2.91,6.51,6.51"/>
    <path class="cls-1" d="M2694.98,7.01c0,3.59-2.91,6.51-6.51,6.51s-6.51-2.91-6.51-6.51"/>
    <path class="cls-1" d="M2694.98,7.01c0-3.59,2.91-6.51,6.51-6.51s6.51,2.91,6.51,6.51"/>
  </g>
</svg>