<?xml version="1.0" encoding="UTF-8"?>
<svg id="Layer_1" data-name="Layer 1" xmlns="http://www.w3.org/2000/svg" viewBox="0 0 2708.49 14.02">
  <defs>
    <style>
      .cls-1 {
        fill: none;
        stroke: #221f20;
        stroke-miterlimit: 10;
      }
    </style>
  </defs>
  <g>
    <path class="cls-1" d="M677.37,7.01c0,3.59-2.91,6.51-6.51,6.51s-6.51-2.91-6.51-6.51"/>
    <path class="cls-1" d="M.5,7.01c0-3.59,2.91-6.51,6.51-6.51s6.51,2.91,6.51,6.51"/>
    <path class="cls-1" d="M26.53,7.01c0,3.59-2.91,6.51-6.51,6.51s-6.51-2.91-6.51-6.51"/>
    <path class="cls-1" d="M26.53,7.01c0-3.59,2.91-6.51,6.51-6.51s6.51,2.91,6.51,6.51"/>
    <path class="cls-1" d="M52.57,7.01c0,3.59-2.91,6.51-6.51,6.51s-6.51-2.91-6.51-6.51"/>
    <path class="cls-1" d="M52.57,7.01c0-3.59,2.91-6.51,6.51-6.51s6.51,2.91,6.51,6.51"/>
    <path class="cls-1" d="M78.6,7.01c0,3.59-2.91,6.51-6.51,6.51s-6.51-2.91-6.51-6.51"/>
    <path class="cls-1" d="M78.6,7.01c0-3.59,2.91-6.51,6.51-6.51s6.51,2.91,6.51,6.51"/>
    <path class="cls-1" d="M104.63,7.01c0,3.59-2.91,6.51-6.51,6.51s-6.51-2.91-6.51-6.51"/>
    <path class="cls-1" d="M104.63,7.01c0-3.59,2.91-6.51,6.51-6.51s6.51,2.91,6.51,6.51"/>
    <path class="cls-1" d="M130.67,7.01c0,3.59-2.91,6.51-6.51,6.51s-6.51-2.91-6.51-6.51"/>
    <path class="cls-1" d="M130.67,7.01c0-3.59,2.91-6.51,6.51-6.51s6.51,2.91,6.51,6.51"/>
    <path class="cls-1" d="M156.7,7.01c0,3.59-2.91,6.51-6.51,6.51s-6.51-2.91-6.51-6.51"/>
    <path class="cls-1" d="M156.7,7.01c0-3.59,2.91-6.51,6.51-6.51s6.51,2.91,6.51,6.51"/>
    <path class="cls-1" d="M182.74,7.01c0,3.59-2.91,6.51-6.51,6.51s-6.51-2.91-6.51-6.51"/>
    <path class="cls-1" d="M182.74,7.01c0-3.59,2.91-6.51,6.51-6.51s6.51,2.91,6.51,6.51"/>
    <path class="cls-1" d="M208.77,7.01c0,3.59-2.91,6.51-6.51,6.51s-6.51-2.91-6.51-6.51"/>
    <path class="cls-1" d="M208.77,7.01c0-3.59,2.91-6.51,6.51-6.51s6.51,2.91,6.51,6.51"/>
    <path class="cls-1" d="M234.8,7.01c0,3.59-2.91,6.51-6.51,6.51s-6.51-2.91-6.51-6.51"/>
    <path class="cls-1" d="M234.8,7.01c0-3.59,2.91-6.51,6.51-6.51s6.51,2.91,6.51,6.51"/>
    <path class="cls-1" d="M260.84,7.01c0,3.59-2.91,6.51-6.51,6.51s-6.51-2.91-6.51-6.51"/>
    <path class="cls-1" d="M260.84,7.01c0-3.59,2.91-6.51,6.51-6.51s6.51,2.91,6.51,6.51"/>
    <path class="cls-1" d="M286.87,7.01c0,3.59-2.91,6.51-6.51,6.51s-6.51-2.91-6.51-6.51"/>
    <path class="cls-1" d="M286.87,7.01c0-3.59,2.91-6.51,6.51-6.51s6.51,2.91,6.51,6.51"/>
    <path class="cls-1" d="M312.9,7.01c0,3.59-2.91,6.51-6.51,6.51s-6.51-2.91-6.51-6.51"/>
    <path class="cls-1" d="M312.9,7.01c0-3.59,2.91-6.51,6.51-6.51s6.51,2.91,6.51,6.51"/>
    <path class="cls-1" d="M338.94,7.01c0,3.59-2.91,6.51-6.51,6.51s-6.51-2.91-6.51-6.51"/>
    <path class="cls-1" d="M338.94,7.01c0-3.59,2.91-6.51,6.51-6.51s6.51,2.91,6.51,6.51"/>
    <path class="cls-1" d="M364.97,7.01c0,3.59-2.91,6.51-6.51,6.51s-6.51-2.91-6.51-6.51"/>
    <path class="cls-1" d="M364.97,7.01c0-3.59,2.91-6.51,6.51-6.51s6.51,2.91,6.51,6.51"/>
    <path class="cls-1" d="M391,7.01c0,3.59-2.91,6.51-6.51,6.51s-6.51-2.91-6.51-6.51"/>
    <path class="cls-1" d="M391,7.01c0-3.59,2.91-6.51,6.51-6.51s6.51,2.91,6.51,6.51"/>
    <path class="cls-1" d="M417.04,7.01c0,3.59-2.91,6.51-6.51,6.51s-6.51-2.91-6.51-6.51"/>
    <path class="cls-1" d="M417.04,7.01c0-3.59,2.91-6.51,6.51-6.51s6.51,2.91,6.51,6.51"/>
    <path class="cls-1" d="M443.07,7.01c0,3.59-2.91,6.51-6.51,6.51s-6.51-2.91-6.51-6.51"/>
    <path class="cls-1" d="M443.07,7.01c0-3.59,2.91-6.51,6.51-6.51s6.51,2.91,6.51,6.51"/>
    <path class="cls-1" d="M469.1,7.01c0,3.59-2.91,6.51-6.51,6.51s-6.51-2.91-6.51-6.51"/>
    <path class="cls-1" d="M469.1,7.01c0-3.59,2.91-6.51,6.51-6.51s6.51,2.91,6.51,6.51"/>
    <path class="cls-1" d="M495.14,7.01c0,3.59-2.91,6.51-6.51,6.51s-6.51-2.91-6.51-6.51"/>
    <path class="cls-1" d="M495.14,7.01c0-3.59,2.91-6.51,6.51-6.51s6.51,2.91,6.51,6.51"/>
    <path class="cls-1" d="M521.17,7.01c0,3.59-2.91,6.51-6.51,6.51s-6.51-2.91-6.51-6.51"/>
    <path class="cls-1" d="M521.17,7.01c0-3.59,2.91-6.51,6.51-6.51s6.51,2.91,6.51,6.51"/>
    <path class="cls-1" d="M547.21,7.01c0,3.59-2.91,6.51-6.51,6.51s-6.51-2.91-6.51-6.51"/>
    <path class="cls-1" d="M547.21,7.01c0-3.59,2.91-6.51,6.51-6.51s6.51,2.91,6.51,6.51"/>
    <path class="cls-1" d="M573.24,7.01c0,3.59-2.91,6.51-6.51,6.51s-6.51-2.91-6.51-6.51"/>
    <path class="cls-1" d="M573.24,7.01c0-3.59,2.91-6.51,6.51-6.51s6.51,2.91,6.51,6.51"/>
    <path class="cls-1" d="M599.27,7.01c0,3.59-2.91,6.51-6.51,6.51s-6.51-2.91-6.51-6.51"/>
    <path class="cls-1" d="M599.27,7.01c0-3.59,2.91-6.51,6.51-6.51s6.51,2.91,6.51,6.51"/>
    <path class="cls-1" d="M625.31,7.01c0,3.59-2.91,6.51-6.51,6.51s-6.51-2.91-6.51-6.51"/>
    <path class="cls-1" d="M625.31,7.01c0-3.59,2.91-6.51,6.51-6.51s6.51,2.91,6.51,6.51"/>
    <path class="cls-1" d="M651.34,7.01c0,3.59-2.91,6.51-6.51,6.51s-6.51-2.91-6.51-6.51"/>
    <path class="cls-1" d="M651.34,7.01c0-3.59,2.91-6.51,6.51-6.51s6.51,2.91,6.51,6.51"/>
    <path class="cls-1" d="M1354.25,7.01c0,3.59-2.91,6.51-6.51,6.51s-6.51-2.91-6.51-6.51"/>
    <path class="cls-1" d="M677.37,7.01c0-3.59,2.91-6.51,6.51-6.51s6.51,2.91,6.51,6.51"/>
    <path class="cls-1" d="M703.41,7.01c0,3.59-2.91,6.51-6.51,6.51s-6.51-2.91-6.51-6.51"/>
    <path class="cls-1" d="M703.41,7.01c0-3.59,2.91-6.51,6.51-6.51s6.51,2.91,6.51,6.51"/>
    <path class="cls-1" d="M729.44,7.01c0,3.59-2.91,6.51-6.51,6.51s-6.51-2.91-6.51-6.51"/>
    <path class="cls-1" d="M729.44,7.01c0-3.59,2.91-6.51,6.51-6.51s6.51,2.91,6.51,6.51"/>
    <path class="cls-1" d="M755.47,7.01c0,3.59-2.91,6.51-6.51,6.51s-6.51-2.91-6.51-6.51"/>
    <path class="cls-1" d="M755.47,7.01c0-3.59,2.91-6.51,6.51-6.51s6.51,2.91,6.51,6.51"/>
    <path class="cls-1" d="M781.51,7.01c0,3.59-2.91,6.51-6.51,6.51s-6.51-2.91-6.51-6.51"/>
    <path class="cls-1" d="M781.51,7.01c0-3.59,2.91-6.51,6.51-6.51s6.51,2.91,6.51,6.51"/>
    <path class="cls-1" d="M807.54,7.01c0,3.59-2.91,6.51-6.51,6.51s-6.51-2.91-6.51-6.51"/>
    <path class="cls-1" d="M807.54,7.01c0-3.59,2.91-6.51,6.51-6.51s6.51,2.91,6.51,6.51"/>
    <path class="cls-1" d="M833.58,7.01c0,3.59-2.91,6.51-6.51,6.51s-6.51-2.91-6.51-6.51"/>
    <path class="cls-1" d="M833.58,7.01c0-3.59,2.91-6.51,6.51-6.51s6.51,2.91,6.51,6.51"/>
    <path class="cls-1" d="M859.61,7.01c0,3.59-2.91,6.51-6.51,6.51s-6.51-2.91-6.51-6.51"/>
    <path class="cls-1" d="M859.61,7.01c0-3.59,2.91-6.51,6.51-6.51s6.51,2.91,6.51,6.51"/>
    <path class="cls-1" d="M885.64,7.01c0,3.59-2.91,6.51-6.51,6.51s-6.51-2.91-6.51-6.51"/>
    <path class="cls-1" d="M885.64,7.01c0-3.59,2.91-6.51,6.51-6.51s6.51,2.91,6.51,6.51"/>
    <path class="cls-1" d="M911.68,7.01c0,3.59-2.91,6.51-6.51,6.51s-6.51-2.91-6.51-6.51"/>
    <path class="cls-1" d="M911.68,7.01c0-3.59,2.91-6.51,6.51-6.51s6.51,2.91,6.51,6.51"/>
    <path class="cls-1" d="M937.71,7.01c0,3.59-2.91,6.51-6.51,6.51s-6.51-2.91-6.51-6.51"/>
    <path class="cls-1" d="M937.71,7.01c0-3.59,2.91-6.51,6.51-6.51s6.51,2.91,6.51,6.51"/>
    <path class="cls-1" d="M963.74,7.01c0,3.59-2.91,6.51-6.51,6.51s-6.51-2.91-6.51-6.51"/>
    <path class="cls-1" d="M963.74,7.01c0-3.59,2.91-6.51,6.51-6.51s6.51,2.91,6.51,6.51"/>
    <path class="cls-1" d="M989.78,7.01c0,3.59-2.91,6.51-6.51,6.51s-6.51-2.91-6.51-6.51"/>
    <path class="cls-1" d="M989.78,7.01c0-3.59,2.91-6.51,6.51-6.51s6.51,2.91,6.51,6.51"/>
    <path class="cls-1" d="M1015.81,7.01c0,3.59-2.91,6.51-6.51,6.51s-6.51-2.91-6.51-6.51"/>
    <path class="cls-1" d="M1015.81,7.01c0-3.59,2.91-6.51,6.51-6.51s6.51,2.91,6.51,6.51"/>
    <path class="cls-1" d="M1041.84,7.01c0,3.59-2.91,6.51-6.51,6.51s-6.51-2.91-6.51-6.51"/>
    <path class="cls-1" d="M1041.84,7.01c0-3.59,2.91-6.51,6.51-6.51s6.51,2.91,6.51,6.51"/>
    <path class="cls-1" d="M1067.88,7.01c0,3.59-2.91,6.51-6.51,6.51s-6.51-2.91-6.51-6.51"/>
    <path class="cls-1" d="M1067.88,7.01c0-3.59,2.91-6.51,6.51-6.51s6.51,2.91,6.51,6.51"/>
    <path class="cls-1" d="M1093.91,7.01c0,3.59-2.91,6.51-6.51,6.51s-6.51-2.91-6.51-6.51"/>
    <path class="cls-1" d="M1093.91,7.01c0-3.59,2.91-6.51,6.51-6.51s6.51,2.91,6.51,6.51"/>
    <path class="cls-1" d="M1119.94,7.01c0,3.59-2.91,6.51-6.51,6.51s-6.51-2.91-6.51-6.51"/>
    <path class="cls-1" d="M1119.94,7.01c0-3.59,2.91-6.51,6.51-6.51s6.51,2.91,6.51,6.51"/>
    <path class="cls-1" d="M1145.98,7.01c0,3.59-2.91,6.51-6.51,6.51s-6.51-2.91-6.51-6.51"/>
    <path class="cls-1" d="M1145.98,7.01c0-3.59,2.91-6.51,6.51-6.51s6.51,2.91,6.51,6.51"/>
    <path class="cls-1" d="M1172.01,7.01c0,3.59-2.91,6.51-6.51,6.51s-6.51-2.91-6.51-6.51"/>
    <path class="cls-1" d="M1172.01,7.01c0-3.59,2.91-6.51,6.51-6.51s6.51,2.91,6.51,6.51"/>
    <path class="cls-1" d="M1198.05,7.01c0,3.59-2.91,6.51-6.51,6.51s-6.51-2.91-6.51-6.51"/>
    <path class="cls-1" d="M1198.05,7.01c0-3.59,2.91-6.51,6.51-6.51s6.51,2.91,6.51,6.51"/>
    <path class="cls-1" d="M1224.08,7.01c0,3.59-2.91,6.51-6.51,6.51s-6.51-2.91-6.51-6.51"/>
    <path class="cls-1" d="M1224.08,7.01c0-3.59,2.91-6.51,6.51-6.51s6.51,2.91,6.51,6.51"/>
    <path class="cls-1" d="M1250.11,7.01c0,3.59-2.91,6.51-6.51,6.51s-6.51-2.91-6.51-6.51"/>
    <path class="cls-1" d="M1250.11,7.01c0-3.59,2.91-6.51,6.51-6.51s6.51,2.91,6.51,6.51"/>
    <path class="cls-1" d="M1276.15,7.01c0,3.59-2.91,6.51-6.51,6.51s-6.51-2.91-6.51-6.51"/>
    <path class="cls-1" d="M1276.15,7.01c0-3.59,2.91-6.51,6.51-6.51s6.51,2.91,6.51,6.51"/>
    <path class="cls-1" d="M1302.18,7.01c0,3.59-2.91,6.51-6.51,6.51s-6.51-2.91-6.51-6.51"/>
    <path class="cls-1" d="M1302.18,7.01c0-3.59,2.91-6.51,6.51-6.51s6.51,2.91,6.51,6.51"/>
    <path class="cls-1" d="M1328.21,7.01c0,3.59-2.91,6.51-6.51,6.51s-6.51-2.91-6.51-6.51"/>
    <path class="cls-1" d="M1328.21,7.01c0-3.59,2.91-6.51,6.51-6.51s6.51,2.91,6.51,6.51"/>
  </g>
  <g>
    <path class="cls-1" d="M2031.12,7.01c0,3.59-2.91,6.51-6.51,6.51s-6.51-2.91-6.51-6.51"/>
    <path class="cls-1" d="M1354.25,7.01c0-3.59,2.91-6.51,6.51-6.51s6.51,2.91,6.51,6.51"/>
    <path class="cls-1" d="M1380.28,7.01c0,3.59-2.91,6.51-6.51,6.51s-6.51-2.91-6.51-6.51"/>
    <path class="cls-1" d="M1380.28,7.01c0-3.59,2.91-6.51,6.51-6.51s6.51,2.91,6.51,6.51"/>
    <path class="cls-1" d="M1406.31,7.01c0,3.59-2.91,6.51-6.51,6.51s-6.51-2.91-6.51-6.51"/>
    <path class="cls-1" d="M1406.31,7.01c0-3.59,2.91-6.51,6.51-6.51s6.51,2.91,6.51,6.51"/>
    <path class="cls-1" d="M1432.35,7.01c0,3.59-2.91,6.51-6.51,6.51s-6.51-2.91-6.51-6.51"/>
    <path class="cls-1" d="M1432.35,7.01c0-3.59,2.91-6.51,6.51-6.51s6.51,2.91,6.51,6.51"/>
    <path class="cls-1" d="M1458.38,7.01c0,3.59-2.91,6.51-6.51,6.51s-6.51-2.91-6.51-6.51"/>
    <path class="cls-1" d="M1458.38,7.01c0-3.59,2.91-6.51,6.51-6.51s6.51,2.91,6.51,6.51"/>
    <path class="cls-1" d="M1484.41,7.01c0,3.59-2.91,6.51-6.51,6.51s-6.51-2.91-6.51-6.51"/>
    <path class="cls-1" d="M1484.41,7.01c0-3.59,2.91-6.51,6.51-6.51s6.51,2.91,6.51,6.51"/>
    <path class="cls-1" d="M1510.45,7.01c0,3.59-2.91,6.51-6.51,6.51s-6.51-2.91-6.51-6.51"/>
    <path class="cls-1" d="M1510.45,7.01c0-3.59,2.91-6.51,6.51-6.51s6.51,2.91,6.51,6.51"/>
    <path class="cls-1" d="M1536.48,7.01c0,3.59-2.91,6.51-6.51,6.51s-6.51-2.91-6.51-6.51"/>
    <path class="cls-1" d="M1536.48,7.01c0-3.59,2.91-6.51,6.51-6.51s6.51,2.91,6.51,6.51"/>
    <path class="cls-1" d="M1562.52,7.01c0,3.59-2.91,6.51-6.51,6.51s-6.51-2.91-6.51-6.51"/>
    <path class="cls-1" d="M1562.52,7.01c0-3.59,2.91-6.51,6.51-6.51s6.51,2.91,6.51,6.51"/>
    <path class="cls-1" d="M1588.55,7.01c0,3.59-2.91,6.51-6.51,6.51s-6.51-2.91-6.51-6.51"/>
    <path class="cls-1" d="M1588.55,7.01c0-3.59,2.91-6.51,6.51-6.51s6.51,2.91,6.51,6.51"/>
    <path class="cls-1" d="M1614.58,7.01c0,3.59-2.91,6.51-6.51,6.51s-6.51-2.91-6.51-6.51"/>
    <path class="cls-1" d="M1614.58,7.01c0-3.59,2.91-6.51,6.51-6.51s6.51,2.91,6.51,6.51"/>
    <path class="cls-1" d="M1640.62,7.01c0,3.59-2.91,6.51-6.51,6.51s-6.51-2.91-6.51-6.51"/>
    <path class="cls-1" d="M1640.62,7.01c0-3.59,2.91-6.51,6.51-6.51s6.51,2.91,6.51,6.51"/>
    <path class="cls-1" d="M1666.65,7.01c0,3.59-2.91,6.51-6.51,6.51s-6.51-2.91-6.51-6.51"/>
    <path class="cls-1" d="M1666.65,7.01c0-3.59,2.91-6.51,6.51-6.51s6.51,2.91,6.51,6.51"/>
    <path class="cls-1" d="M1692.68,7.01c0,3.59-2.91,6.51-6.51,6.51s-6.51-2.91-6.51-6.51"/>
    <path class="cls-1" d="M1692.68,7.01c0-3.59,2.91-6.51,6.51-6.51s6.51,2.91,6.51,6.51"/>
    <path class="cls-1" d="M1718.72,7.01c0,3.59-2.91,6.51-6.51,6.51s-6.51-2.91-6.51-6.51"/>
    <path class="cls-1" d="M1718.72,7.01c0-3.59,2.91-6.51,6.51-6.51s6.51,2.91,6.51,6.51"/>
    <path class="cls-1" d="M1744.75,7.01c0,3.59-2.91,6.51-6.51,6.51s-6.51-2.91-6.51-6.51"/>
    <path class="cls-1" d="M1744.75,7.01c0-3.59,2.91-6.51,6.51-6.51s6.51,2.91,6.51,6.51"/>
    <path class="cls-1" d="M1770.78,7.01c0,3.59-2.91,6.51-6.51,6.51s-6.51-2.91-6.51-6.51"/>
    <path class="cls-1" d="M1770.78,7.01c0-3.59,2.91-6.51,6.51-6.51s6.51,2.91,6.51,6.51"/>
    <path class="cls-1" d="M1796.82,7.01c0,3.59-2.91,6.51-6.51,6.51s-6.51-2.91-6.51-6.51"/>
    <path class="cls-1" d="M1796.82,7.01c0-3.59,2.91-6.51,6.51-6.51s6.51,2.91,6.51,6.51"/>
    <path class="cls-1" d="M1822.85,7.01c0,3.59-2.91,6.51-6.51,6.51s-6.51-2.91-6.51-6.51"/>
    <path class="cls-1" d="M1822.85,7.01c0-3.59,2.91-6.51,6.51-6.51s6.51,2.91,6.51,6.51"/>
    <path class="cls-1" d="M1848.89,7.01c0,3.59-2.91,6.51-6.51,6.51s-6.51-2.91-6.51-6.51"/>
    <path class="cls-1" d="M1848.89,7.01c0-3.59,2.91-6.51,6.51-6.51s6.51,2.91,6.51,6.51"/>
    <path class="cls-1" d="M1874.92,7.01c0,3.59-2.91,6.51-6.51,6.51s-6.51-2.91-6.51-6.51"/>
    <path class="cls-1" d="M1874.92,7.01c0-3.59,2.91-6.51,6.51-6.51s6.51,2.91,6.51,6.51"/>
    <path class="cls-1" d="M1900.95,7.01c0,3.59-2.91,6.51-6.51,6.51s-6.51-2.91-6.51-6.51"/>
    <path class="cls-1" d="M1900.95,7.01c0-3.59,2.91-6.51,6.51-6.51s6.51,2.91,6.51,6.51"/>
    <path class="cls-1" d="M1926.99,7.01c0,3.59-2.91,6.51-6.51,6.51s-6.51-2.91-6.51-6.51"/>
    <path class="cls-1" d="M1926.99,7.01c0-3.59,2.91-6.51,6.51-6.51s6.51,2.91,6.51,6.51"/>
    <path class="cls-1" d="M1953.02,7.01c0,3.59-2.91,6.51-6.51,6.51s-6.51-2.91-6.51-6.51"/>
    <path class="cls-1" d="M1953.02,7.01c0-3.59,2.91-6.51,6.51-6.51s6.51,2.91,6.51,6.51"/>
    <path class="cls-1" d="M1979.05,7.01c0,3.59-2.91,6.51-6.51,6.51s-6.51-2.91-6.51-6.51"/>
    <path class="cls-1" d="M1979.05,7.01c0-3.59,2.91-6.51,6.51-6.51s6.51,2.91,6.51,6.51"/>
    <path class="cls-1" d="M2005.09,7.01c0,3.59-2.91,6.51-6.51,6.51s-6.51-2.91-6.51-6.51"/>
    <path class="cls-1" d="M2005.09,7.01c0-3.59,2.91-6.51,6.51-6.51s6.51,2.91,6.51,6.51"/>
    <path class="cls-1" d="M2707.99,7.01c0,3.59-2.91,6.51-6.51,6.51s-6.51-2.91-6.51-6.51"/>
    <path class="cls-1" d="M2031.12,7.01c0-3.59,2.91-6.51,6.51-6.51s6.51,2.91,6.51,6.51"/>
    <path class="cls-1" d="M2057.15,7.01c0,3.59-2.91,6.51-6.51,6.51s-6.51-2.91-6.51-6.51"/>
    <path class="cls-1" d="M2057.15,7.01c0-3.59,2.91-6.51,6.51-6.51s6.51,2.91,6.51,6.51"/>
    <path class="cls-1" d="M2083.19,7.01c0,3.59-2.91,6.51-6.51,6.51s-6.51-2.91-6.51-6.51"/>
    <path class="cls-1" d="M2083.19,7.01c0-3.59,2.91-6.51,6.51-6.51s6.51,2.91,6.51,6.51"/>
    <path class="cls-1" d="M2109.22,7.01c0,3.59-2.91,6.51-6.51,6.51s-6.51-2.91-6.51-6.51"/>
    <path class="cls-1" d="M2109.22,7.01c0-3.59,2.91-6.51,6.51-6.51s6.51,2.91,6.51,6.51"/>
    <path class="cls-1" d="M2135.25,7.01c0,3.59-2.91,6.51-6.51,6.51s-6.51-2.91-6.51-6.51"/>
    <path class="cls-1" d="M2135.25,7.01c0-3.59,2.91-6.51,6.51-6.51s6.51,2.91,6.51,6.51"/>
    <path class="cls-1" d="M2161.29,7.01c0,3.59-2.91,6.51-6.51,6.51s-6.51-2.91-6.51-6.51"/>
    <path class="cls-1" d="M2161.29,7.01c0-3.59,2.91-6.51,6.51-6.51s6.51,2.91,6.51,6.51"/>
    <path class="cls-1" d="M2187.32,7.01c0,3.59-2.91,6.51-6.51,6.51s-6.51-2.91-6.51-6.51"/>
    <path class="cls-1" d="M2187.32,7.01c0-3.59,2.91-6.51,6.51-6.51s6.51,2.91,6.51,6.51"/>
    <path class="cls-1" d="M2213.36,7.01c0,3.59-2.91,6.51-6.51,6.51s-6.51-2.91-6.51-6.51"/>
    <path class="cls-1" d="M2213.36,7.01c0-3.59,2.91-6.51,6.51-6.51s6.51,2.91,6.51,6.51"/>
    <path class="cls-1" d="M2239.39,7.01c0,3.59-2.91,6.51-6.51,6.51s-6.51-2.91-6.51-6.51"/>
    <path class="cls-1" d="M2239.39,7.01c0-3.59,2.91-6.51,6.51-6.51s6.51,2.91,6.51,6.51"/>
    <path class="cls-1" d="M2265.42,7.01c0,3.59-2.91,6.51-6.51,6.51s-6.51-2.91-6.51-6.51"/>
    <path class="cls-1" d="M2265.42,7.01c0-3.59,2.91-6.51,6.51-6.51s6.51,2.91,6.51,6.51"/>
    <path class="cls-1" d="M2291.46,7.01c0,3.59-2.91,6.51-6.51,6.51s-6.51-2.91-6.51-6.51"/>
    <path class="cls-1" d="M2291.46,7.01c0-3.59,2.91-6.51,6.51-6.51s6.51,2.91,6.51,6.51"/>
    <path class="cls-1" d="M2317.49,7.01c0,3.59-2.91,6.51-6.51,6.51s-6.51-2.91-6.51-6.51"/>
    <path class="cls-1" d="M2317.49,7.01c0-3.59,2.91-6.51,6.51-6.51s6.51,2.91,6.51,6.51"/>
    <path class="cls-1" d="M2343.52,7.01c0,3.59-2.91,6.51-6.51,6.51s-6.51-2.91-6.51-6.51"/>
    <path class="cls-1" d="M2343.52,7.01c0-3.59,2.91-6.51,6.51-6.51s6.51,2.91,6.51,6.51"/>
    <path class="cls-1" d="M2369.56,7.01c0,3.59-2.91,6.51-6.51,6.51s-6.51-2.91-6.51-6.51"/>
    <path class="cls-1" d="M2369.56,7.01c0-3.59,2.91-6.51,6.51-6.51s6.51,2.91,6.51,6.51"/>
    <path class="cls-1" d="M2395.59,7.01c0,3.59-2.91,6.51-6.51,6.51s-6.51-2.91-6.51-6.51"/>
    <path class="cls-1" d="M2395.59,7.01c0-3.59,2.91-6.51,6.51-6.51s6.51,2.91,6.51,6.51"/>
    <path class="cls-1" d="M2421.62,7.01c0,3.59-2.91,6.51-6.51,6.51s-6.51-2.91-6.51-6.51"/>
    <path class="cls-1" d="M2421.62,7.01c0-3.59,2.91-6.51,6.51-6.51s6.51,2.91,6.51,6.51"/>
    <path class="cls-1" d="M2447.66,7.01c0,3.59-2.91,6.51-6.51,6.51s-6.51-2.91-6.51-6.51"/>
    <path class="cls-1" d="M2447.66,7.01c0-3.59,2.91-6.51,6.51-6.51s6.51,2.91,6.51,6.51"/>
    <path class="cls-1" d="M2473.69,7.01c0,3.59-2.91,6.51-6.51,6.51s-6.51-2.91-6.51-6.51"/>
    <path class="cls-1" d="M2473.69,7.01c0-3.59,2.91-6.51,6.51-6.51s6.51,2.91,6.51,6.51"/>
    <path class="cls-1" d="M2499.73,7.01c0,3.59-2.91,6.51-6.51,6.51s-6.51-2.91-6.51-6.51"/>
    <path class="cls-1" d="M2499.73,7.01c0-3.59,2.91-6.51,6.51-6.51s6.51,2.91,6.51,6.51"/>
    <path class="cls-1" d="M2525.76,7.01c0,3.59-2.91,6.51-6.51,6.51s-6.51-2.91-6.51-6.51"/>
    <path class="cls-1" d="M2525.76,7.01c0-3.59,2.91-6.51,6.51-6.51s6.51,2.91,6.51,6.51"/>
    <path class="cls-1" d="M2551.79,7.01c0,3.59-2.91,6.51-6.51,6.51s-6.51-2.91-6.51-6.51"/>
    <path class="cls-1" d="M2551.79,7.01c0-3.59,2.91-6.51,6.51-6.51s6.51,2.91,6.51,6.51"/>
    <path class="cls-1" d="M2577.83,7.01c0,3.59-2.91,6.51-6.51,6.51s-6.51-2.91-6.51-6.51"/>
    <path class="cls-1" d="M2577.83,7.01c0-3.59,2.91-6.51,6.51-6.51s6.51,2.91,6.51,6.51"/>
    <path class="cls-1" d="M2603.86,7.01c0,3.59-2.91,6.51-6.51,6.51s-6.51-2.91-6.51-6.51"/>
    <path class="cls-1" d="M2603.86,7.01c0-3.59,2.91-6.51,6.51-6.51s6.51,2.91,6.51,6.51"/>
    <path class="cls-1" d="M2629.89,7.01c0,3.59-2.91,6.51-6.51,6.51s-6.51-2.91-6.51-6.51"/>
    <path class="cls-1" d="M2629.89,7.01c0-3.59,2.91-6.51,6.51-6.51s6.51,2.91,6.51,6.51"/>
    <path class="cls-1" d="M2655.93,7.01c0,3.59-2.91,6.51-6.51,6.51s-6.51-2.91-6.51-6.51"/>
    <path class="cls-1" d="M2655.93,7.01c0-3.59,2.91-6.51,6.51-6.51s6.51,2.91,6.51,6.51"/>
    <path class="cls-1" d="M2681.96,7.01c0,3.59-2.91,6.51-6.51,6.51s-6.51-2.91-6.51-6.51"/>
    <path class="cls-1" d="M2681.96,7.01c0-3.59,2.91-6.51,6.51-6.51s6.51,2.91,6.51,6.51"/>
  </g>
</svg>