<?xml version="1.0" encoding="UTF-8"?>
<svg id="Layer_2" data-name="Layer 2" xmlns="http://www.w3.org/2000/svg" viewBox="0 0 2246.54 1253.92">
  <defs>
    <style>
      .cls-1 {
        fill: #ff5f01;
      }
    </style>
  </defs>
  <g id="Layer_1-2" data-name="Layer 1">
    <g>
      <rect width="2246.54" height="1253.92"/>
      <path class="cls-1" d="M1123.27,236.79c-49.63,0-97.15,9.25-140.82,26.19l.28.09c3.6,1.13,6.85,3.15,9.54,5.8,22.73,22.48,52.2,37.24,82.19,48.64,37.83,14.47,77.19,24.27,116.52,34.07,21.72,5.41,43.44,10.82,65.24,16.23,55.67,13.84,122.63,35.52,180.81,27.21-71.08-96.01-185.16-158.23-313.76-158.23M1150.99,906.49c-59.87-9.41-120.91-5.45-181.4-1.57-37.4,2.43-75.16,5.21-112.56,7.21,69.78,65.2,163.33,104.99,266.24,104.99,65.35,0,126.95-16.08,181.05-44.5-17.68-33.52-131.18-62.65-153.33-66.14M1384.06,834.63c-9.92-3.45-19.88-6.86-29.8-10.35-29.05-10.08-58.22-20.27-85.23-34.89-42.42-23.05-78.21-56.49-119.14-82.06-57.63-36.11-123.81-55.63-188.97-75.19-76.02-22.82-153.6-47.13-217.78-93.39-6.59,28.35-10.04,57.87-10.04,88.21,0,2.55.04,5.1.08,7.65,23.68,20.5,68.41,33.28,93.46,43.79,23.6,9.92,47.36,19.84,72.49,24.46,38.34,7.02,79.35,1.45,115.38,16.35,31.03,12.81,57.62,26.79,88.57,36.59,2.81.89,4.38,3.97,3.31,6.71-5.44,13.93-23.66,17.73-37.81,17.03-81.04-4.04-162.04-8.12-242.99-12.23-24.35-1.18-46.89-4.86-70.22-10.08,2.98,8.43,6.23,16.7,9.8,24.82,9.49,3.14,20.07,4.82,26.31,6.15,3.88.82,7.8,1.57,11.68,2.23,40.62,6.63,82.49,3.73,122.71,13.41,44.89,10.74,84.96,37.01,129.93,47.44,68.49,15.84,144.75-5.84,207.9,24.86,26.07,12.7,66.14,52.45,101.23,57.16,35.24-27.87,65.55-61.63,89.35-99.82-23.76,8.23-42.07,10.94-70.22,1.14M1513.44,626.96c0,51.08-9.84,99.89-27.68,144.59-37.87,15.88-113.85-29.25-142.51-47.48-41.13-26.11-79.66-57.04-124.48-76.17-56.96-24.42-120.24-28.23-180.89-40.81-71.43-14.82-140.2-42.3-202.22-80.6-14.74-9.06-28.62-21.68-43.95-29.4-8.43-4.27-23.6-4.86-29.95-12.07v-.02c-.85-1.05-1.07-2.48-.56-3.73,9.23-22.87,20.55-44.65,33.73-65.14,27.76,32.46,89.82,52.42,124.87,71.27,28.78,15.49,57.59,30.97,88.01,42.73,49.75,19.25,102.76,28.23,153.49,44.54,74.37,23.91,148.94,64.06,225.86,50.57,69.98-12.27-9.29-41.44-33.48-51.24-39.83-16.15-79.7-32.34-119.54-48.5-132.94-53.91-265.93-107.85-398.87-161.76,20.35-22.31,43.28-42.18,68.22-59.2,5.49,1.8,11.96,5.41,20.74,10.66,45.71,27.09,85.39,67,135.77,85.59,27.25,10.07,56.02,12.78,85.19,14.54,23.09,1.37,46.34,2.12,69.08,5.45,55.48,8.19,106.83,31.48,157.64,54.14,26.27,11.72,52.57,23.6,79.7,33.36,18.07,6.47,36.42,8.08,48.85,18.5v.04c8.47,31.95,12.98,65.51,12.98,100.13"/>
    </g>
  </g>
</svg>