<?xml version="1.0" encoding="UTF-8"?>
<svg id="Layer_1" xmlns="http://www.w3.org/2000/svg" version="1.1" viewBox="0 0 3000 2000" width="3000" height="2000">
  <!-- Generator: Adobe Illustrator 30.4.0, SVG Export Plug-In . SVG Version: 2.1.4 Build 226)  -->
  <defs>
    <style>
      .st0 {
        fill: #9f3b34;
      }

      .st1 {
        fill: #e5ecd4;
      }
    </style>
  </defs>
  <rect class="st0" x="-1" y="-1" width="3002" height="2002"/>
  <path class="st1" d="M647,1440.8l-.2-253.5,153.8-.2c13.6,0,25.7,2.6,36.4,7.7,10.7,5.2,19.2,12.4,25.3,21.8,6.2,9.4,9.3,20.3,9.3,32.9,0,9.6-1.8,18.4-5.5,26.2-3.7,7.9-8.7,14.5-15.1,19.8-6.4,5.3-13.5,9.3-21.4,12v1.5c9.4,2,17.8,5.7,25.3,11.2,7.5,5.5,13.4,12.6,17.6,21,4.2,8.5,6.3,18.3,6.3,29.4,0,15.8-3.5,28.8-10.5,39.2-7,10.4-16.4,18.1-28.1,23.1-11.7,5.1-24.8,7.6-39.4,7.6l-153.8.2ZM695.6,1290.7h91.3c7.1,0,13.3-1.5,18.5-4.2,5.2-2.7,9.1-6.4,11.8-11.1,2.7-4.7,4.1-9.9,4.1-15.5,0-10.6-2.9-18.5-8.7-23.6-5.8-5.2-13.5-7.8-23.1-7.7h-93.9c0,0,0,62.2,0,62.2ZM695.7,1399.4h97.9c10.1-.1,18.4-2.8,24.9-8.2,6.5-5.4,9.8-13.9,9.8-25.5,0-6.9-1.4-12.9-4.3-18.1-2.8-5.2-7-9.2-12.6-12-5.5-2.8-12.5-4.3-20.9-4.2h-95c0,0,0,68.1,0,68.1ZM982.6,1440.5l-.2-253.5h151.9c18.2-.2,33.4,3.2,45.5,9.8,12.1,6.6,21.1,15.8,27.2,27.5,6,11.7,9.1,25.3,9.1,40.8,0,16.3-3.7,30.8-11.2,43.6-7.5,12.8-18.6,22.6-33.4,29.2l53,102.3h-54c0,0-47-93.8-47-93.8h-92c0,0,0,94,0,94h-48.8ZM1031.2,1305.6h96.5c12.3-.1,21.8-3.7,28.4-10.8,6.6-7.2,10-16.9,10-29.2,0-8.1-1.4-15-4.3-20.5-2.8-5.5-7.1-9.7-12.8-12.6-5.7-2.8-12.8-4.2-21.4-4.2h-96.5c0,0,0,77.3,0,77.3ZM1324.1,1440.2l-.2-253.5h48.8c0,0,.2,253.5.2,253.5h-48.8ZM1612.7,1444.4c-42.9,0-75.7-10.5-98.5-31.7-22.8-21.1-34.2-54.3-34.3-99.4,0-29.6,5.4-54,16.4-73.4,10.9-19.3,26.9-33.8,47.8-43.5,20.9-9.6,45.9-14.5,75-14.5,18,0,34.8,1.8,50.3,5.5,15.5,3.7,29.1,9.3,40.7,17,11.6,7.6,20.6,17.2,27,28.6,6.4,11.5,9.6,25,9.7,40.5h-49.5c0-8.6-2.1-16-6.1-22.3-4.1-6.3-9.7-11.6-16.8-15.9-7.1-4.3-15.3-7.4-24.4-9.4-9.1-1.9-18.7-2.9-28.8-2.9-14.5,0-27.4,1.8-38.6,5.2-11.2,3.4-20.7,8.8-28.5,16.1-7.8,7.3-13.6,16.3-17.5,27-3.9,10.7-5.9,23.4-5.9,37.9v8.1c0,20,3.3,36.3,9.9,49.1,6.5,12.8,16.2,22.1,28.9,27.9,12.7,5.8,28.3,8.7,46.8,8.7,17.2,0,32-2.2,44.2-6.7,12.2-4.5,21.6-11,28.3-19.6,6.6-8.6,10-19.1,9.9-31.4v-2.6h-88.3c0,0,0-39.8,0-39.8h136.7c0-.1.1,137,.1,137h-33.3s-4.8-29.9-4.8-29.9c-7.9,7.9-16.6,14.4-26.2,19.4-9.6,5.1-20.2,8.8-31.8,11.3-11.6,2.5-24.3,3.7-38.1,3.7ZM1861.5,1439.7l-.2-253.5h48.8c0,0,0,102.7,0,102.7h135.6c0-.1,0-102.9,0-102.9h48.4c0,0,.2,253.5.2,253.5h-48.4c0,0-.1-108.6-.1-108.6h-135.6c0,.1.1,108.8.1,108.8h-48.8ZM2280.2,1439.3l-.2-211h-90.6c0,0,0-42.4,0-42.4l229.9-.2v42.5s-90.1,0-90.1,0l.2,211h-49.2ZM523.4,1012.7l-117.5-224.7,175.9-91.9,19.2,36.7-132.7,69.3,31.3,59.9,119.9-62.7,19.4,37-119.9,62.7,47.6,91.1-43.2,22.6ZM889.4,853.6c-26.9,9-51.6,12.2-74.2,9.6-22.6-2.6-42.3-11.4-59-26.3-16.7-14.9-29.7-36.2-39-63.7-9.4-27.8-11.9-52.7-7.6-74.7,4.3-22,14.7-40.8,31.1-56.5,16.4-15.7,38.1-28,64.9-37.1,27.1-9.1,51.9-12.4,74.5-9.9,22.6,2.5,42.2,11.3,58.9,26.2,16.7,14.9,29.8,36.3,39.1,64,9.3,27.6,11.8,52.4,7.5,74.3-4.3,22-14.6,40.9-31,56.6-16.4,15.8-38.1,28.3-65.2,37.4ZM876.2,814.4c13.1-4.4,24.1-10,33.2-16.8,9-6.8,15.9-14.9,20.7-24.2,4.8-9.3,7.4-19.7,7.8-31.1.4-11.5-1.6-23.8-6.1-37.2l-2.6-7.7c-4.5-13.6-10.5-24.7-17.7-33.6-7.3-8.9-15.6-15.5-25-19.9-9.4-4.4-19.8-6.6-31.1-6.7-11.3,0-23.6,2.1-36.6,6.5-12.8,4.3-23.8,10-32.7,16.9-9,6.9-15.9,15-20.7,24.1-4.8,9.2-7.4,19.5-7.7,30.9-.3,11.4,1.8,23.9,6.4,37.5l2.6,7.7c4.5,13.3,10.3,24.4,17.5,33.3,7.2,8.9,15.5,15.6,24.9,20.1,9.4,4.5,19.8,6.7,31.1,6.7,11.3,0,23.4-2.2,36.2-6.5ZM1097.7,788.2l-39.9-250.4,150-23.9c18-2.9,33.5-2,46.5,2.7,13,4.6,23.4,12.3,31.2,22.9,7.8,10.6,12.9,23.6,15.4,38.9,2.6,16.1,1.1,31-4.3,44.8-5.4,13.9-14.9,25.2-28.5,34.1l68.3,92.8-53.3,8.5-61.1-85.3-90.9,14.5,14.8,92.7-48.2,7.7ZM1124.7,647.3l95.3-15.2c12.2-1.9,21-7,26.4-15.1,5.4-8.1,7.2-18.2,5.3-30.4-1.3-8-3.8-14.6-7.4-19.6-3.7-5-8.5-8.5-14.6-10.4-6.1-1.9-13.3-2.2-21.8-.8l-95.3,15.2,12.1,76.3ZM1419.2,745.6l-.3-253.5,214-.3v41.4s-165.2.2-165.2.2v61.7c0,0,147.2-.2,147.2-.2v41.8c0,0-147.1.2-147.1.2v67.3c0,0,167.5-.2,167.5-.2v41.4s-216.2.3-216.2.3ZM1793.5,763.5l-61.9-265.8,53,8,36.9,173.8c1.1,3.9,2.2,8.1,3.1,12.6.9,4.5,1.8,8.8,2.5,12.9.8,4.1,1.6,7.9,2.6,11.2l1.8.3c1.7-2.8,3.4-5.9,5.2-9.5,1.8-3.6,3.8-7.3,6.2-11.2,2.3-3.9,4.5-7.8,6.6-11.7l86.7-155.5,50.8,7.7-137.7,235.6-55.9-8.5ZM2013,803.7l75.3-242.1,204.3,63.6-12.3,39.5-157.7-49.1-18.3,59,140.5,43.7-12.4,39.9-140.5-43.7-20,64.2,159.9,49.8-12.3,39.5-206.5-64.3ZM2297.2,899l112-227.5,136.3,67.1c16.4,8.1,28.5,17.7,36.4,29,7.9,11.3,12,23.5,12.2,36.7.3,13.2-3.1,26.7-9.9,40.6-7.2,14.6-17,26-29.4,34.1-12.4,8.2-26.7,12-42.9,11.4l2.2,115.2-48.4-23.8-.6-104.9-82.6-40.7-41.5,84.2-43.8-21.6ZM2400.5,799.5l86.5,42.6c11.1,5.5,21.1,6.4,30.3,3,9.1-3.5,16.4-10.7,21.9-21.8,3.6-7.3,5.3-14,5.2-20.3,0-6.2-2.1-11.9-5.9-16.9-3.8-5-9.6-9.5-17.4-13.3l-86.5-42.6-34.1,69.3Z"/>
</svg>