<?xml version="1.0" encoding="UTF-8"?>
<svg id="Layer_1" xmlns="http://www.w3.org/2000/svg" version="1.1" viewBox="0 0 1508 1125.6">
  <!-- Generator: Adobe Illustrator 30.5.1, SVG Export Plug-In . SVG Version: 2.1.4 Build 3)  -->
  <defs>
    <style>
      .st0 {
        fill: #f0ece7;
      }
    </style>
  </defs>
  <rect x=".4" y=".8" width="1506.8" height="1122.8"/>
  <path class="st0" d="M348.3,682.7c-6.6-12.3-8.1-27.4-4.1-43.5,4.2-16.5,13.4-29.7,26-37.2,10.9-6.6,24.4-8.7,39.6-4.9,27.1,6.8,39.7,25.4,37.5,48.3l-25.3-6.4c.2-9-5.2-17.3-16.7-20.2-17.4-4.4-29.7,7.9-34.5,27-4.9,19.3,1.5,36.1,18,40.3,13.7,3.5,24.1-3.6,27.5-12.7v-.3c0,0-19.7-5-19.7-5l4.8-19.1,43.9,11.1-14.3,56.6-18.3-4.6,1.7-13h-.3c-9.6,8.9-21,10.6-33.7,7.4-15-3.8-25.9-12.2-32.2-23.8ZM484.7,616.5l26.5,4.4-14.1,84.6,48.1,8-3.8,22.5-74.6-12.5,17.9-107.1ZM614.7,635l27.5,2.4,29.6,111.6-28.1-2.5-4.6-20.1-37.8-3.3-7.9,19-26.9-2.4,48.4-104.8ZM634.5,706.7l-5.9-26.9c-1.3-5.8-2.9-15.7-2.9-15.7h-.3s-3.4,9.4-5.7,14.9l-10.6,25.4,25.4,2.2ZM706.3,737.7c-9.5-10.3-14.8-24.5-14.9-41.1-.1-17,5.6-32.1,15.8-42.5,8.9-9.2,21.5-14.6,37.1-14.7,28-.2,44.8,14.6,48.4,37.3l-26.1.2c-2-8.8-9.4-15.4-21.2-15.3-17.9.1-26.8,15.1-26.7,34.8.1,19.9,10.6,34.6,27.6,34.4,14.1,0,22.4-9.6,23.4-19.2v-.3s-20.4.1-20.4.1v-19.7c-.1,0,45.1-.3,45.1-.3l.4,58.3h-18.8c0,.1-1.6-12.9-1.6-12.9h-.3c-7.1,11.1-17.7,15.6-30.7,15.7-15.5.1-28.1-5.3-37.2-14.9ZM820.9,695.5c-2.7-32.4,16.1-58.2,48.8-60.9,32.9-2.7,55.6,19.6,58.3,52,2.7,32.4-16.1,58.2-48.9,60.9-32.7,2.7-55.4-19.7-58.1-52.1ZM900.7,689c-1.6-19.7-11.5-34.1-29.1-32.7-17.4,1.4-25.1,17.3-23.5,37,1.6,19.7,11.8,33.9,29.2,32.5,17.6-1.5,25-17.2,23.3-36.8ZM946,628.8l26.5-4.4,13.9,84.7,48.1-7.9,3.7,22.5-74.7,12.2-17.6-107.2ZM1075.1,604.4l26.8-6.6,64,96.1-27.4,6.8-10.9-17.5-36.9,9.1-1.4,20.5-26.3,6.5,12-114.8ZM1117,665.9l-14.2-23.6c-3.1-5-7.8-13.9-7.8-13.9h-.3c0,0-.2,10.1-.6,16l-1.8,27.5,24.8-6.1ZM437.4,439.6l27-.2c1.3,10.9,8.5,15.4,21.4,15.4,8.8,0,17.4-3.3,17.4-11.5,0-8.7-8.9-10.4-23.8-14-18.9-4.3-38.8-9.9-39-32.7-.2-23.2,18.6-33.5,42.9-33.7,23.5-.2,41.8,10.4,43.1,33.1l-26.3.2c-1.1-8.3-7.5-13-17.6-12.9-9.4,0-15.6,4.2-15.6,10.3,0,7.6,8.4,9.4,24.7,12.9,20.2,4.6,38.5,10.7,38.7,33.9.2,22.8-19.2,35.5-44.3,35.7-28.9.2-47.9-12.4-48.7-36.4ZM577.6,387.1l-31.6.2-.2-22.8,90.4-.6.2,22.8-31.9.2.6,85.8-26.9.2-.6-85.8ZM661.9,434l-.5-70.3,26.9-.2.5,71.2c0,10.6,5.6,17.7,18.8,17.6,12.5,0,18.3-7.7,18.3-18.4l-.5-70.8,26.9-.2.5,70.3c.2,25.1-14.8,40.4-45,40.6-30.4.2-45.7-14.6-45.8-39.9ZM783.1,362.9l46.3-.3c30.1-.2,50.4,21.4,50.6,54.6.1,19.1-6.5,34.5-18.5,43.9-8.5,6.4-19.4,10-33,10.1l-44.7.3-.7-108.6ZM826.3,448.6c17.6-.1,26.7-11.3,26.5-31.2-.1-19.7-9.8-32.4-26.6-32.3h-16.1c0,.1.4,63.6.4,63.6h15.8ZM905.1,362.1l26.9-.2.7,108.6-26.9.2-.7-108.6ZM959.5,416.2c-.2-32.5,20.4-56.8,53.2-57,33-.2,53.9,23.8,54.2,56.3.2,32.5-20.4,56.8-53.4,57-32.8.2-53.8-23.8-54-56.3ZM1039.6,415.7c-.1-19.7-8.9-34.9-26.5-34.8-17.5.1-26.3,15.4-26.2,35.1.1,19.7,9.2,34.7,26.7,34.6,17.6-.1,26.2-15.2,26-35ZM566,880.9h12.1c0,0,6.1,21.2,6.1,21.2,1.5,5.3,2.7,11.4,2.7,11.4h.1s1.1-6.1,2.5-11.5l5.8-21.3h12.3c0,0,.3,42.3.3,42.3h-8c0,0-.2-24.3-.2-24.3,0-3.4.3-8.8.3-8.8h-.1s-.9,5-1.8,8.1l-7.1,25.1h-8.2c0,0-7.3-24.9-7.3-24.9-.9-3.1-1.9-8.1-1.9-8.1h-.1s.4,5.3.4,8.8l.2,24.3h-7.9c0,0-.3-42.3-.3-42.3ZM626.2,880.5h8.6c0,0,.3,42.3.3,42.3h-8.6c0,0-.3-42.3-.3-42.3ZM652.9,880.4h8.6c0,0,.2,35.2.2,35.2h19.9c0-.1,0,7,0,7l-28.5.2-.3-42.4ZM696.4,880.1h8.6c0,0,.2,35.2.2,35.2h19.9c0-.1,0,7,0,7l-28.5.2-.3-42.4ZM733.1,879.8h8.8c0,0,5.7,21,5.7,21,.9,3.6,1.9,9.2,1.9,9.2h.1s1-5.3,1.9-9l4.5-21.3h8.3c0,0,4.8,21.1,4.8,21.1.9,3.7,2,9.1,2,9.1h.1s1.2-5.6,2-9.3l5.2-21h8.5c0,0-11.8,42.4-11.8,42.4h-8c0,0-5.3-22.6-5.3-22.6-.7-3.1-1.5-7.5-1.5-7.5h-.1s-.6,4.5-1.3,7.5l-5.1,22.7h-7.9c0,0-12.6-42.3-12.6-42.3ZM797.8,900.7c0-12.7,7.8-22.2,20.3-22.3,12.5,0,20.5,9.3,20.5,22,0,12.7-7.7,22.1-20.3,22.2-12.5,0-20.5-9.2-20.6-21.9ZM829.9,900.5c0-8.5-3.9-15-11.7-15-7.8,0-11.7,6.7-11.6,15.1,0,8.4,4.1,15,11.8,14.9,7.8,0,11.5-6.7,11.5-15.1ZM854.5,879h19.4c8.2-.2,13.7,4.5,13.7,11.6,0,5-2.3,8.8-7.7,10.3v.2c3.9,1.1,6,3.3,6.5,8.5.6,6,.4,10.6,1.9,11.2v.4s-8.2,0-8.2,0c-1.1-.5-1.2-5.2-1.6-9.8-.4-4.6-3-7.2-8.4-7.2h-6.9s.1,17.1.1,17.1h-8.6c0,0-.3-42.3-.3-42.3ZM863.2,897.7h9.1c4.7,0,7-2.5,7-5.9,0-3.4-2.2-6-6.8-5.9h-9.4c0,0,0,11.9,0,11.9ZM905.1,878.7h8.6c0,0,.1,16.8.1,16.8l16.2-17h10.7c0,0-16.5,17-16.5,17l17.8,25.3h-10.1c0,0-13.8-19.6-13.8-19.6l-4.3,4.4v15.4c.1,0-8.5,0-8.5,0l-.3-42.4ZM597.6,215.9c0-12.6,7.7-22.2,20.2-22.3,10.4,0,16.6,6.1,17.6,14.2h-8.5c-.8-4.2-4-7-9-6.9-7.8,0-11.5,6.6-11.5,15,0,8.7,4.6,14.9,11.7,14.8,5,0,8.6-3.1,9.1-7.5h8.4c-.2,3.7-1.8,7.3-4.6,10-2.9,2.7-7,4.6-12.8,4.6-11.9,0-20.5-9.1-20.5-21.8ZM652,223l-.2-28.8h8.6c0,0,.2,28.7.2,28.7,0,4.4,2.2,7.5,8,7.4,5.5,0,8-3.3,8-7.6l-.2-28.6h8.6c0,0,.2,28.7.2,28.7,0,9.1-5.5,14.4-16.3,14.5-11,0-16.8-5-16.8-14.2ZM701.8,223.2h8.4c.6,5,3.5,7,9.6,7,4.4,0,8.2-1.6,8.2-5.5,0-4.2-4.1-5-10.5-6.4-7.6-1.7-14.6-3.6-14.6-12.5,0-8.4,6.7-12.7,16.2-12.8,9.5,0,15.7,4.6,16.5,13.1h-8.2c-.5-4.2-3.8-6.3-8.2-6.3-4.6,0-7.6,2-7.6,5,0,3.4,3,4.4,9.3,5.7,8.7,1.8,15.9,3.9,15.9,13,0,8.6-6.8,13.4-16.4,13.5-11.5,0-18.1-5-18.4-13.9ZM751.5,193.6l34.1-.2v7.2s-12.7,0-12.7,0l.2,35.2h-8.6c0,0-.2-35.1-.2-35.1h-12.7c0,0,0-7.1,0-7.1ZM797.5,214.5c0-12.7,7.8-22.2,20.3-22.3,12.5,0,20.5,9.3,20.5,22,0,12.7-7.7,22.1-20.2,22.2-12.5,0-20.5-9.2-20.6-21.9ZM829.6,214.3c0-8.5-3.9-15-11.7-15-7.8,0-11.7,6.7-11.6,15.1,0,8.4,4.1,15,11.8,14.9s11.5-6.7,11.5-15.1ZM854.6,192.9h12.1c0,0,6.1,21.2,6.1,21.2,1.5,5.3,2.7,11.4,2.7,11.4h.1s1.1-6.1,2.5-11.5l5.8-21.3h12.3c0,0,.3,42.3.3,42.3h-8c0,0-.2-24.3-.2-24.3,0-3.4.3-8.8.3-8.8h-.1s-.9,5-1.8,8.1l-7.1,25.1h-8.2c0,0-7.3-24.9-7.3-24.9-.9-3.1-1.9-8.1-1.9-8.1h-.1s.4,5.3.4,8.8l.2,24.3h-7.9c0,0-.3-42.3-.3-42.3Z"/>
</svg>