<?xml version="1.0" encoding="UTF-8"?>
<svg id="Layer_1" xmlns="http://www.w3.org/2000/svg" version="1.1" viewBox="0 0 1508 1125.6">
  <!-- Generator: Adobe Illustrator 30.5.1, SVG Export Plug-In . SVG Version: 2.1.4 Build 3)  -->
  <defs>
    <style>
      .st0 {
        fill: #f0ece7;
      }
    </style>
  </defs>
  <rect x=".4" y=".8" width="1506.8" height="1122.8"/>
  <path class="st0" d="M317.4,692.2c-7.1-13.3-8.7-29.5-4.4-46.8,4.5-17.8,14.5-31.9,28-40,11.8-7.2,26.3-9.4,42.6-5.3,29.2,7.4,42.7,27.3,40.3,52l-27.3-6.9c.3-9.7-5.6-18.6-18-21.7-18.7-4.7-32,8.5-37.2,29.1-5.2,20.8,1.7,38.9,19.4,43.3,14.7,3.7,25.9-3.9,29.6-13.6v-.3c0,0-21.2-5.4-21.2-5.4l5.2-20.6,47.2,11.9-15.4,60.9-19.7-5,1.9-14h-.3c-10.4,9.6-22.6,11.4-36.3,8-16.2-4.1-27.9-13.1-34.7-25.6ZM464.2,621l28.5,4.8-15.2,91.1,51.7,8.6-4,24.2-80.3-13.4,19.3-115.3ZM604.1,640.8l29.6,2.6,31.8,120.1-30.3-2.7-5-21.6-40.7-3.6-8.5,20.4-29-2.5,52.1-112.8ZM625.4,718l-6.3-28.9c-1.4-6.2-3.1-16.8-3.1-16.8h-.3s-3.7,10.1-6.2,16l-11.4,27.4,27.4,2.4ZM702.7,751.4c-10.2-11-15.9-26.4-16-44.2-.1-18.3,6-34.5,17-45.7,9.6-9.9,23.1-15.7,39.9-15.8,30.1-.2,48.2,15.7,52.1,40.2l-28.1.2c-2.2-9.5-10.1-16.6-22.8-16.5-19.3.1-28.8,16.2-28.7,37.5.1,21.4,11.4,37.2,29.7,37.1,15.2-.1,24.1-10.3,25.2-20.6v-.3s-21.9.2-21.9.2v-21.3c-.1,0,48.6-.3,48.6-.3l.4,62.8h-20.3c0,.1-1.7-13.9-1.7-13.9h-.3c-7.6,12-19,16.8-33.1,16.9-16.7.1-30.3-5.7-40-16.1ZM826,706c-2.9-34.9,17.3-62.6,52.5-65.5,35.4-2.9,59.8,21.1,62.7,56,2.9,34.9-17.3,62.6-52.7,65.5-35.2,2.9-59.7-21.2-62.5-56ZM911.9,699c-1.8-21.2-12.4-36.7-31.3-35.1-18.7,1.5-27,18.6-25.3,39.8,1.8,21.2,12.7,36.5,31.4,35,18.9-1.6,26.9-18.5,25.1-39.6ZM960.6,634.3l28.6-4.7,14.9,91.2,51.8-8.5,4,24.2-80.3,13.2-18.9-115.4ZM1099.6,608l28.9-7.1,68.9,103.4-29.5,7.3-11.7-18.8-39.7,9.8-1.5,22.1-28.3,7,12.9-123.5ZM1144.7,674.2l-15.3-25.4c-3.3-5.4-8.4-14.9-8.4-14.9h-.3c0,0-.2,10.9-.7,17.2l-2,29.6,26.7-6.6ZM413.3,430.6l29.1-.2c1.4,11.8,9.1,16.6,23,16.5,9.5,0,18.8-3.6,18.7-12.4,0-9.3-9.6-11.2-25.6-15-20.3-4.6-41.8-10.7-41.9-35.2-.2-25,20-36.1,46.2-36.3,25.3-.2,45,11.1,46.3,35.7l-28.3.2c-1.2-9-8.1-14-18.9-13.9-10.1,0-16.8,4.5-16.8,11.1,0,8.2,9.1,10.1,26.6,13.9,21.8,4.9,41.4,11.5,41.6,36.5.2,24.5-20.7,38.2-47.6,38.4-31.1.2-51.6-13.4-52.4-39.2ZM564.2,374l-34,.2-.2-24.5,97.3-.7.2,24.5-34.3.2.6,92.4-28.9.2-.6-92.4ZM654.8,424.6l-.5-75.7,28.9-.2.5,76.7c0,11.4,6,19.1,20.2,19,13.4,0,19.7-8.3,19.6-19.7l-.5-76.2,28.9-.2.5,75.7c.2,27-15.9,43.4-48.4,43.6-32.7.2-49.1-15.7-49.3-43ZM785.3,348l49.9-.3c32.4-.2,54.3,23,54.5,58.8.1,20.6-6.9,37.2-20,47.2-9.1,6.9-20.9,10.8-35.6,10.9l-48.1.3-.8-116.9ZM831.8,440.2c19-.1,28.7-12.1,28.5-33.5-.1-21.3-10.5-34.9-28.7-34.8h-17.3c0,.1.5,68.4.5,68.4h17ZM916.6,347.2l28.9-.2.8,116.9-28.9.2-.8-116.9ZM975.2,405.5c-.2-35,22-61.1,57.3-61.4,35.5-.2,58,25.6,58.3,60.6.2,35-22,61.1-57.5,61.4-35.3.2-57.9-25.6-58.1-60.6ZM1061.3,404.9c-.1-21.3-9.6-37.5-28.5-37.4-18.8.1-28.3,16.5-28.2,37.8s9.9,37.4,28.7,37.2c19-.1,28.2-16.4,28-37.6ZM551.7,905.6h13c0,0,6.6,22.8,6.6,22.8,1.6,5.7,3,12.3,3,12.3h.1s1.2-6.6,2.7-12.3l6.3-23h13.2c0,0,.3,45.5.3,45.5h-8.6c0,0-.2-26.1-.2-26.1,0-3.7.3-9.4.3-9.4h-.1s-1,5.4-1.9,8.7l-7.7,27h-8.9c0,0-7.8-26.8-7.8-26.8-1-3.3-2-8.7-2-8.7h-.1s.4,5.7.4,9.4l.2,26.2h-8.5c0,0-.3-45.6-.3-45.6ZM616.5,905.1h9.3c0,0,.3,45.6.3,45.6h-9.3c0,0-.3-45.6-.3-45.6ZM645.1,904.9h9.3c0,0,.3,37.8.3,37.8h21.4c0-.1,0,7.6,0,7.6l-30.7.2-.3-45.6ZM692,904.6h9.3c0,0,.3,37.8.3,37.8h21.4c0-.1,0,7.6,0,7.6l-30.7.2-.3-45.6ZM731.5,904.4h9.4c0,0,6.1,22.5,6.1,22.5.9,3.9,2,9.9,2,9.9h.1s1.1-5.7,2-9.7l4.8-22.9h8.9c0,0,5.1,22.8,5.1,22.8,1,4,2.2,9.7,2.2,9.7h.1s1.3-6.1,2.2-10l5.6-22.6h9.1c0,0-12.7,45.7-12.7,45.7h-8.6c0,0-5.7-24.3-5.7-24.3-.8-3.3-1.7-8.1-1.7-8.1h-.1s-.7,4.8-1.4,8.1l-5.5,24.5h-8.5c0,0-13.6-45.5-13.6-45.5ZM801.2,926.8c0-13.7,8.4-23.9,21.9-23.9,13.5,0,22,10,22.1,23.7,0,13.7-8.3,23.8-21.8,23.9-13.5,0-22.1-9.9-22.2-23.6ZM835.7,926.6c0-9.1-4.2-16.2-12.6-16.1-8.4,0-12.6,7.2-12.5,16.3,0,9.1,4.4,16.1,12.7,16.1,8.4,0,12.4-7.2,12.3-16.2ZM862.1,903.5h20.9c8.8-.2,14.7,4.9,14.8,12.5,0,5.4-2.4,9.5-8.3,11.1v.2c4.2,1.2,6.4,3.6,7,9.1.7,6.4.5,11.4,2.1,12v.4s-8.9,0-8.9,0c-1.2-.5-1.3-5.6-1.7-10.5-.4-5-3.2-7.8-9-7.7h-7.5c0,0,.1,18.4.1,18.4h-9.3c0,0-.3-45.6-.3-45.6ZM871.5,923.6h9.8c5,0,7.5-2.7,7.5-6.4,0-3.7-2.4-6.4-7.3-6.4h-10.1c0,0,0,12.8,0,12.8ZM916.6,903.1h9.3c0,0,.1,18.1.1,18.1l17.4-18.3h11.5c0,0-17.7,18.3-17.7,18.3l19.2,27.2h-10.8c0,0-14.8-21.1-14.8-21.1l-4.6,4.8v16.6c.1,0-9.1,0-9.1,0l-.3-45.6ZM585.7,189.9c0-13.5,8.3-23.9,21.7-24,11.2,0,17.9,6.6,18.9,15.3h-9.2c-.9-4.5-4.3-7.5-9.7-7.5-8.4,0-12.4,7.1-12.3,16.2,0,9.3,5,16,12.6,15.9,5.4,0,9.2-3.3,9.8-8.1h9.1c-.2,4-1.9,7.9-5,10.8-3.1,3-7.5,4.9-13.8,4.9-12.8,0-22-9.7-22.1-23.5ZM644.3,197.4l-.2-30.9h9.3c0,0,.2,30.9.2,30.9,0,4.7,2.4,8,8.6,8,5.9,0,8.6-3.5,8.6-8.2l-.2-30.8h9.3c0,0,.2,30.9.2,30.9,0,9.8-5.9,15.5-17.6,15.6-11.8,0-18-5.4-18.1-15.3ZM697.9,197.7h9.1c.7,5.4,3.8,7.6,10.3,7.5,4.7,0,8.9-1.7,8.8-5.9,0-4.5-4.4-5.3-11.3-6.9-8.2-1.8-15.7-3.9-15.7-13.4,0-9,7.2-13.7,17.4-13.8,10.3,0,16.9,4.9,17.7,14.1h-8.9c-.5-4.5-4.1-6.8-8.9-6.8-5,0-8.2,2.2-8.2,5.4,0,3.7,3.2,4.8,10,6.2,9.4,2,17.1,4.2,17.1,14,0,9.3-7.4,14.5-17.6,14.5-12.4,0-19.4-5.4-19.8-15ZM751.3,165.8l36.7-.2v7.8c0,0-13.7,0-13.7,0l.3,37.8h-9.3c0,0-.3-37.8-.3-37.8h-13.7c0,0,0-7.7,0-7.7ZM800.8,188.4c0-13.7,8.4-23.9,21.9-24,13.5,0,22,10,22.1,23.7,0,13.7-8.3,23.8-21.8,23.9-13.5,0-22.1-9.9-22.2-23.6ZM835.3,188.1c0-9.1-4.2-16.2-12.6-16.1-8.4,0-12.6,7.2-12.5,16.3,0,9.1,4.4,16.1,12.7,16.1s12.4-7.2,12.3-16.2ZM862.3,165.1h13c0,0,6.6,22.8,6.6,22.8,1.6,5.7,3,12.3,3,12.3h.1s1.2-6.6,2.7-12.3l6.3-23h13.2c0,0,.3,45.5.3,45.5h-8.6c0,0-.2-26.1-.2-26.1,0-3.7.3-9.4.3-9.4h-.1s-1,5.4-1.9,8.7l-7.7,27h-8.9c0,0-7.8-26.8-7.8-26.8-1-3.3-2-8.7-2-8.7h-.1s.4,5.7.4,9.4l.2,26.2h-8.5c0,0-.3-45.6-.3-45.6Z"/>
</svg>