<?xml version="1.0" encoding="UTF-8"?>
<svg id="Layer_1" xmlns="http://www.w3.org/2000/svg" version="1.1" viewBox="0 0 2848.7 1776.4">
  <!-- Generator: Adobe Illustrator 30.5.1, SVG Export Plug-In . SVG Version: 2.1.4 Build 3)  -->
  <defs>
    <style>
      .st0 {
        fill: #f0ece6;
      }

      .st1 {
        fill: none;
        stroke: #f0ece6;
        stroke-miterlimit: 10;
        stroke-width: 1.2px;
      }
    </style>
  </defs>
  <rect x="-8.8" y="-7.5" width="2866.2" height="1788.4"/>
  <path class="st0" d="M218.1,1029.4c-8-14.9-9.8-33.2-4.9-52.6,5-20,16.3-35.9,31.4-45,13.2-8,29.6-10.6,48-5.9,32.8,8.3,48,30.7,45.4,58.5l-30.7-7.7c.3-10.9-6.3-20.9-20.2-24.4-21-5.3-36,9.5-41.8,32.7-5.9,23.4,1.9,43.7,21.8,48.7,16.6,4.2,29.2-4.4,33.3-15.3v-.4c0,0-23.8-6-23.8-6l5.8-23.2,53.1,13.4-17.3,68.5-22.1-5.6,2.1-15.8h-.4c-11.7,10.8-25.4,12.8-40.8,9-18.2-4.6-31.4-14.7-39-28.8ZM383.1,949.2l32.1,5.4-17.1,102.4,58.2,9.7-4.5,27.2-90.3-15.1,21.7-129.6ZM540.5,971.6l33.3,2.9,35.8,135.1-34.1-3-5.6-24.3-45.8-4-9.6,23-32.6-2.9,58.5-126.8ZM564.4,1058.4l-7.1-32.5c-1.6-7-3.5-18.9-3.5-18.9h-.4s-4.1,11.4-6.9,18l-12.9,30.8,30.8,2.7ZM651.3,1095.9c-11.5-12.4-17.9-29.7-18-49.7-.1-20.6,6.7-38.8,19.1-51.4,10.8-11.1,26-17.6,44.9-17.8,33.8-.2,54.2,17.6,58.6,45.2l-31.6.2c-2.5-10.6-11.3-18.7-25.7-18.6-21.7.1-32.4,18.2-32.3,42.1.2,24.1,12.8,41.8,33.4,41.7,17.1-.1,27.1-11.6,28.3-23.2v-.4s-24.6.2-24.6.2l-.2-23.9,54.8-.4.5,70.6-22.8.2-1.9-15.8h-.4c-8.5,13.5-21.4,18.9-37.2,19-18.8.1-34.1-6.4-45-18.1ZM790,1044.9c-3.2-39.2,19.5-70.4,59-73.7,39.8-3.3,67.3,23.8,70.5,63,3.2,39.2-19.5,70.4-59.2,73.7-39.6,3.3-67.1-23.8-70.3-63ZM886.6,1036.9c-2-23.8-13.9-41.3-35.2-39.5-21.1,1.7-30.4,21-28.4,44.8,2,23.8,14.3,41.1,35.4,39.3,21.3-1.8,30.2-20.8,28.2-44.6ZM941.4,964.2l32.1-5.3,16.8,102.5,58.2-9.6,4.5,27.2-90.4,14.8-21.3-129.7ZM1097.7,934.6l32.5-8,77.5,116.3-33.2,8.2-13.2-21.2-44.6,11-1.7,24.8-31.8,7.8,14.5-138.9ZM1148.4,1009.1l-17.2-28.5c-3.8-6.1-9.4-16.8-9.4-16.8h-.4c0,0-.2,12.3-.7,19.4l-2.2,33.3,30-7.4ZM325.9,735.2l32.7-.2c1.6,13.2,10.2,18.7,25.9,18.6,10.7,0,21.1-4,21-13.9,0-10.5-10.7-12.6-28.8-16.9-22.8-5.2-47-12-47.1-39.6-.2-28.1,22.5-40.6,51.9-40.8,28.5-.2,50.6,12.5,52.1,40.1l-31.8.2c-1.4-10.1-9.1-15.8-21.2-15.7-11.4,0-18.9,5.1-18.9,12.4,0,9.2,10.2,11.3,29.9,15.6,24.5,5.5,46.6,12.9,46.8,41.1.2,27.6-23.2,43-53.6,43.2-34.9.2-58-15.1-58.9-44.1ZM495.5,671.5l-38.2.3-.2-27.6,109.4-.7.2,27.6-38.6.3.7,103.9-32.5.2-.7-103.9ZM597.5,728.4l-.6-85.1,32.5-.2.6,86.2c0,12.9,6.8,21.5,22.8,21.4,15.1-.1,22.2-9.3,22.1-22.2l-.6-85.7,32.5-.2.6,85.1c.2,30.3-17.9,48.8-54.5,49.1-36.8.2-55.3-17.6-55.5-48.3ZM744.2,642.3l56.1-.4c36.4-.2,61,25.9,61.3,66.1.2,23.2-7.8,41.8-22.4,53.1-10.2,7.8-23.5,12.1-40,12.2l-54,.4-.9-131.4ZM796.6,746c21.3-.1,32.3-13.6,32.1-37.7-.2-23.9-11.8-39.3-32.3-39.1h-19.5c0,.1.5,77,.5,77h19.1ZM891.9,641.3l32.5-.2.9,131.4-32.5.2-.9-131.4ZM957.8,706.9c-.3-39.3,24.7-68.7,64.4-69,39.9-.3,65.3,28.8,65.5,68.1.3,39.3-24.7,68.7-64.6,69-39.7.3-65.1-28.8-65.4-68.1ZM1054.7,706.2c-.2-23.9-10.8-42.2-32.1-42.1-21.1.1-31.9,18.6-31.7,42.5.2,23.9,11.1,42,32.3,41.9,21.3-.1,31.7-18.4,31.5-42.3ZM481.5,1269.3h14.6c0,0,7.4,25.6,7.4,25.6,1.8,6.4,3.3,13.8,3.3,13.8h.1s1.3-7.4,3.1-13.9l7.1-25.8h14.9c0-.1.3,51.2.3,51.2h-9.7c0,0-.2-29.4-.2-29.4,0-4.2.4-10.6.4-10.6h-.1s-1.1,6-2.2,9.8l-8.6,30.3h-10c0,0-8.8-30.2-8.8-30.2-1.1-3.7-2.3-9.7-2.3-9.7h-.1s.5,6.5.5,10.6l.2,29.4h-9.5c0,0-.3-51.2-.3-51.2ZM554.4,1268.8h10.4c0,0,.3,51.2.3,51.2h-10.4c0,0-.3-51.2-.3-51.2ZM586.6,1268.6h10.4c0,0,.3,42.6.3,42.6l24.1-.2v8.7c0,0-34.5.2-34.5.2l-.3-51.3ZM639.3,1268.3h10.4c0,0,.3,42.6.3,42.6l24.1-.2v8.7c0,0-34.5.2-34.5.2l-.3-51.3ZM683.8,1268h10.6c0,0,6.8,25.4,6.8,25.4,1,4.4,2.3,11.2,2.3,11.2h.1s1.2-6.4,2.3-10.9l5.4-25.8h10c0,0,5.8,25.6,5.8,25.6,1.1,4.5,2.4,11,2.4,11h.1s1.5-6.8,2.4-11.3l6.3-25.4h10.3c0,0-14.3,51.3-14.3,51.3h-9.7c0,0-6.4-27.4-6.4-27.4-.9-3.7-1.9-9.1-1.9-9.1h-.1s-.8,5.4-1.6,9.1l-6.1,27.5h-9.6c0,0-15.3-51.1-15.3-51.1ZM762.1,1293.2c-.1-15.4,9.4-26.8,24.6-26.9,15.1-.1,24.8,11.2,24.9,26.6.1,15.4-9.4,26.8-24.5,26.9-15.1.1-24.8-11.2-24.9-26.5ZM800.9,1292.9c0-10.3-4.7-18.2-14.1-18.1-9.4,0-14.2,8.1-14.1,18.3,0,10.2,4.9,18.1,14.3,18.1,9.4,0,13.9-8.1,13.9-18.3ZM830.6,1267l23.5-.2c9.9,0,16.5,5.6,16.6,14.2,0,6-2.7,10.6-9.3,12.5v.2c4.7,1.3,7.2,4,7.9,10.3.8,7.2.5,12.8,2.3,13.5v.5s-10,0-10,0c-1.3-.6-1.5-6.3-1.9-11.8-.5-5.6-3.6-8.7-10.1-8.7h-8.4c0,0,.1,20.7.1,20.7h-10.4c0,0-.3-51.2-.3-51.2ZM841.2,1289.6h11.1c5.7-.1,8.4-3.1,8.4-7.2,0-4.2-2.7-7.2-8.2-7.2h-11.3c0,0,0,14.4,0,14.4ZM891.9,1266.6h10.4c0,0,.1,20.4.1,20.4l19.6-20.6h12.9c0,0-20,20.6-20,20.6l21.6,30.6h-12.2c0,0-16.7-23.8-16.7-23.8l-5.2,5.3v18.7c.1,0-10.3,0-10.3,0l-.3-51.3ZM519.7,464.4c-.1-15.2,9.3-26.9,24.4-27,12.6,0,20.1,7.4,21.3,17.2h-10.3c-1-5.1-4.9-8.4-10.9-8.4-9.5,0-13.9,8-13.9,18.2,0,10.5,5.6,18,14.2,17.9,6.1,0,10.4-3.7,11-9.1h10.2c-.3,4.5-2.2,8.8-5.6,12.1-3.5,3.3-8.4,5.5-15.5,5.6-14.4,0-24.8-11-24.9-26.4ZM585.6,472.9l-.2-34.8h10.4c0,0,.2,34.7.2,34.7,0,5.3,2.7,9,9.7,9,6.6,0,9.7-3.9,9.6-9.3l-.2-34.7h10.4c0,0,.2,34.7.2,34.7,0,11-6.6,17.4-19.8,17.5-13.3,0-20.3-6.1-20.4-17.2ZM645.9,473.2h10.2c.8,6.1,4.3,8.5,11.6,8.5,5.3,0,10-1.9,9.9-6.7,0-5-4.9-6-12.8-7.7-9.2-2-17.6-4.4-17.7-15.1,0-10.1,8.2-15.4,19.6-15.5,11.6,0,19.1,5.5,19.9,15.9h-10c-.6-5.1-4.6-7.7-10-7.6-5.6,0-9.2,2.4-9.2,6.1,0,4.2,3.6,5.4,11.2,7,10.6,2.2,19.2,4.7,19.3,15.7,0,10.4-8.3,16.3-19.8,16.4-13.9,0-21.9-6-22.3-16.9ZM706,437.3l41.3-.3v8.8c0,0-15.4.1-15.4.1l.3,42.6h-10.4c0,0-.3-42.5-.3-42.5h-15.4c0,.1,0-8.7,0-8.7ZM761.7,462.7c-.1-15.4,9.4-26.8,24.6-26.9,15.1-.1,24.8,11.2,24.9,26.6.1,15.4-9.4,26.8-24.5,26.9-15.1.1-24.8-11.2-24.9-26.5ZM800.5,462.5c0-10.3-4.7-18.2-14.1-18.1-9.4,0-14.2,8.1-14.1,18.3,0,10.2,4.9,18.1,14.3,18.1,9.4,0,13.9-8.1,13.9-18.3ZM830.9,436.5h14.6c0,0,7.4,25.6,7.4,25.6,1.8,6.4,3.3,13.8,3.3,13.8h.1s1.3-7.4,3.1-13.9l7.1-25.8h14.9c0,0,.3,51.2.3,51.2h-9.7c0,0-.2-29.4-.2-29.4,0-4.2.4-10.6.4-10.6h-.1s-1.1,6-2.2,9.8l-8.6,30.3h-10c0,0-8.8-30.2-8.8-30.2-1.1-3.7-2.3-9.7-2.3-9.7h-.1s.5,6.5.5,10.6l.2,29.4h-9.5c0,0-.3-51.2-.3-51.2Z"/>
  <g>
    <path class="st0" d="M2145,849.5c-.7.4-1.5.7-2.2,1.1.7-.4,1.4-.8,2.2-1.1.2-.1.5-.3.7-.4-.3.1-.5.2-.7.3ZM2215.2,806.6c-.9-.1-1.7-.3-2.6-.4.9.1,1.8.3,2.6.4h0c1.3.2,2.7.4,4,.7-1.3-.3-2.7-.5-4-.7ZM2241.1,856.9c-.7-.6-1.5-1.1-2.2-1.6.7.5,1.5,1,2.2,1.6,2.1,1.6,4.1,3.3,5.9,5.1-1.9-1.9-3.9-3.6-5.9-5.1ZM2251.2,866.5c1.5,1.8,3,3.7,4.4,5.7-1.4-2-2.8-3.9-4.4-5.7ZM2174.2,959.2v36.1h101.7v59.5c-10.7,13.2-23.5,22.1-38.3,26.8-14.8,4.7-29.7,7-44.9,7-25.2,0-45.5-5.5-60.8-16.4-15.3-11-26.5-25.7-33.4-44.1-6.7-17.6-10.2-37.2-10.4-58.6-16.8-.7-32.4-3.4-46.6-8,0,1.2,0,2.3,0,3.5,0,30.9,5.8,58.4,17.3,82.4,11.5,24,28.7,42.8,51.6,56.4,22.8,13.6,51.2,20.4,85.2,20.4s24.6-1.2,39.1-3.8c14.5-2.5,28.9-7.7,43.2-15.6,14.3-7.9,27.2-19.6,38.5-35.3v-110.5h-142.1Z"/>
    <path class="st0" d="M2316.7,899.3l-46.2,10.7c-3-15.1-8-27.7-14.9-37.8-1.4-2-2.8-3.9-4.4-5.7-.8-.9-1.5-1.8-2.4-2.6-.6-.7-1.2-1.3-1.9-1.9-1.9-1.9-3.9-3.6-5.9-5.1-.7-.6-1.5-1.1-2.2-1.6-.6-.4-1.1-.8-1.7-1.1-.8-.6-1.7-1.1-2.5-1.6-.2-.2-.5-.3-.7-.4-1-.6-2-1.2-3-1.8-1.2-.7-2.3-1.3-3.5-1.8h0c-1.5-.7-2.9-1.4-4.4-2-.8-.3-1.5-.6-2.3-.9-.7-.3-1.5-.6-2.3-.8-.8-.3-1.5-.5-2.3-.8-1.4-.4-2.9-.8-4.4-1.2-.8-.2-1.6-.4-2.4-.5-.3,0-.7-.1-1-.2-3.6-.8-7.3-1.3-11-1.6,0,0,0,0-.1,0-1.2-.1-2.5-.2-3.8-.3-.8,0-1.6-.1-2.5-.1h-.5c-.8,0-1.6,0-2.4,0-3.4,0-6.7.1-10,.4-.2,0-.3,0-.5,0-1.1,0-2.1.2-3.1.3-1.1.1-2.1.3-3.1.4,0,0-.2,0-.2,0-.9.1-1.8.3-2.6.4-1.6.3-3.2.6-4.7,1-.6.1-1.3.3-1.9.5-1.3.3-2.6.7-3.9,1.1-.3,0-.6.2-1,.3-1.1.3-2.1.7-3.2,1.1-2.7,1-5.4,2.1-8,3.4-.3.1-.5.2-.7.3-.7.4-1.5.7-2.2,1.1-.8.4-1.5.8-2.3,1.3-2.2,1.2-4.3,2.6-6.4,4.1-14.6,10.2-25.8,24.5-33.7,42.8-1.3,0-2.6,0-4,0-17.3,0-30.6-3.8-40.3-11.6.5-1.2,1-2.3,1.6-3.5.4-.8.7-1.5,1.1-2.3.7-1.5,1.5-3,2.2-4.4.8-1.5,1.5-2.9,2.4-4.3.7-1.2,1.4-2.5,2.2-3.7.5-.9,1-1.7,1.6-2.5.4-.7.9-1.4,1.3-2.1,1.6-2.4,3.3-4.8,5-7.1.6-.8,1.1-1.5,1.7-2.2.5-.6,1-1.2,1.5-1.9.9-1.1,1.8-2.1,2.7-3.2.9-1,1.8-2.1,2.7-3,.9-1,1.9-2,2.8-2.9.2-.2.4-.4.6-.6.7-.7,1.5-1.5,2.3-2.2.5-.5.9-.9,1.4-1.3.7-.6,1.3-1.2,2-1.8.5-.5,1-.9,1.5-1.3.6-.5,1.2-1,1.8-1.5.5-.4.9-.8,1.4-1.1,1-.8,2-1.6,3-2.4,1.2-.9,2.4-1.8,3.7-2.7,1.2-.9,2.5-1.7,3.8-2.5,0,0,0,0,0,0,.8-.6,1.7-1.1,2.6-1.6,2.5-1.5,5-3,7.6-4.3.6-.4,1.2-.7,1.9-1,2.1-1,4.1-2,6.3-3,.7-.3,1.5-.6,2.2-.9.9-.4,1.8-.7,2.7-1.1.8-.3,1.6-.6,2.4-.9.8-.3,1.6-.6,2.5-.9,1.7-.6,3.4-1.2,5.1-1.7.7-.2,1.4-.4,2.1-.6,1.2-.4,2.4-.7,3.6-1,3.3-.9,6.7-1.6,10.1-2.2,3.2-.6,6.6-1.1,10-1.5.6,0,1.2-.2,1.8-.2.9-.1,1.8-.2,2.7-.3.7,0,1.4-.2,2.1-.2.1,0,.2,0,.3,0,1.5-.1,3-.2,4.5-.3,1.5-.1,3.1-.2,4.7-.2.8,0,1.6,0,2.4,0,1.4,0,2.8,0,4.2,0s1.9,0,2.9,0h.6c.8,0,1.5,0,2.2,0,.9,0,1.8,0,2.7,0,.8,0,1.5.1,2.3.1,1.5.1,3,.2,4.5.3,0,0,.1,0,.2,0,1.6.1,3.2.3,4.8.5.5,0,1,.1,1.5.2.9.1,1.8.2,2.6.3.9.1,1.8.3,2.6.4h0c1.3.2,2.7.4,4,.7,1.3.3,2.6.5,3.9.8,1.3.3,2.6.6,3.9.9,1.2.3,2.3.6,3.5.9.2,0,.4,0,.6.1,1.2.3,2.4.7,3.6,1,1.2.4,2.5.8,3.7,1.2,2.5.8,4.9,1.7,7.4,2.6,3.3,1.3,6.5,2.7,9.6,4.2,11.4,5.7,21.6,13,30.5,22.1,1.6,1.6,3.2,3.4,4.7,5.1,12.3,14,21,31.7,26,53.1Z"/>
    <path class="st0" d="M1995.1,756.2c-6.1-10.1-9.1-23-9.1-38.6s5.1-36.3,15.5-48.9c10.3-12.5,23.8-21.8,40.4-27.7,16.6-6,34.5-8.9,53.7-8.9s39.9,3.4,55.6,10.1c15.7,6.7,28.4,16.4,38.1,28.9,9.7,12.5,16.2,27.6,19.6,45.3l-49,10.1c-1.1-12.6-4.3-23.3-9.3-32-5.1-8.7-12.3-15.4-21.6-20.1-9.3-4.7-21-7-35-7s-22.1,1.7-31.8,5c-9.7,3.4-17.5,8.6-23.4,15.6-5.9,7-8.8,16-8.8,26.9s4.3,21.6,13,28.7c8.7,7.1,22.7,12.8,42.2,17.1l39.5,9.1c14.5,3.1,28.2,8,41.2,14.7,1.9,1,3.6,2,5.4,3-25.5,2-48.3,8.8-68,20.2l-28.9-6.3c-8-1.8-17-4.2-27.1-7.2-10.1-3.1-19.7-7.6-29-13.7-9.3-6-17-14.1-23.1-24.2Z"/>
    <path class="st0" d="M1969.3,851.3c.4,2.7,1,5.4,1.5,7.9-.6-2.6-1.1-5.2-1.5-7.9h0Z"/>
    <path class="st0" d="M2113.1,915.5c.9-.2,1.9-.3,2.8-.4-.9.2-1.9.4-2.8.5h0Z"/>
    <path class="st0" d="M2136.3,908.3c.1,0,.3-.1.4-.2-.1,0-.3.2-.4.2-.2.1-.4.2-.6.3.2-.1.4-.2.6-.3Z"/>
    <path class="st0" d="M2145.5,945.4c3.8-1.2,7.4-2.5,10.9-3.9-3.5,1.5-7.1,2.8-10.9,3.9Z"/>
    <path class="st0" d="M2156.4,941.5h0s0,0,0,0h0Z"/>
    <path class="st0" d="M2157.4,941c4.3-1.9,8.4-4,12.2-6.2-3.8,2.3-7.9,4.4-12.2,6.3-.3.2-.7.3-1,.4.4-.1.7-.3,1-.4Z"/>
    <path class="st0" d="M2190.5,917.1c.4-.5.8-1,1.2-1.5-.2.3-.4.5-.6.8-.2.3-.4.5-.6.7Z"/>
    <path class="st0" d="M2196.4,909.3h0c-.7,1.2-1.4,2.2-2.3,3.2.8-1,1.5-2.1,2.2-3.2,0,0,0,0,0,0Z"/>
    <path class="st0" d="M2145,849.5c.2-.1.5-.2.7-.3-.2.1-.5.2-.7.4h0Z"/>
    <path class="st0" d="M2188,840.2c.8,0,1.6,0,2.4,0-.8,0-1.6,0-2.4,0-3.4,0-6.7.1-9.9.4,3.2-.3,6.5-.4,10-.4Z"/>
    <path class="st0" d="M2197.2,840.6c2.4.2,4.8.5,7.1.9-.9-.1-1.8-.3-2.7-.4-.3,0-.5,0-.8-.1-1.2-.2-2.4-.3-3.7-.4Z"/>
    <path class="st0" d="M2208.3,842.2c-1.3-.3-2.6-.5-3.9-.7,1.3.2,2.6.4,3.9.7Z"/>
    <path class="st0" d="M2215.2,806.6c-.9-.1-1.7-.3-2.6-.4.9.1,1.8.3,2.6.4h0Z"/>
    <path class="st0" d="M2227.4,848.6h0s0,0,0,0c-1.4-.7-2.9-1.4-4.4-2,1.5.6,3,1.2,4.4,2h0Z"/>
    <path class="st0" d="M2145.5,945.4c3.8-1.1,7.4-2.4,10.9-3.9-3.5,1.5-7.2,2.8-10.9,3.9ZM2157.4,941c-.3.2-.6.3-1,.4.3,0,.7-.2,1-.4,4.3-1.9,8.4-4,12.2-6.3-3.8,2.3-7.9,4.4-12.2,6.2ZM2156.4,941.5h0s0,0,0,0h0ZM2196.3,909.4c-.7,1.1-1.4,2.1-2.2,3.2.8-1,1.5-2.1,2.3-3.2h0s0,0,0,0Z"/>
    <path class="st0" d="M1969.3,851.3h0c.5,2.7.9,5.4,1.5,7.9-.5-2.6-1.1-5.2-1.5-7.9ZM2113.1,915.5h0c.9,0,1.9-.3,2.8-.4-.9.2-1.9.3-2.8.4ZM2136.3,908.3c-.2.1-.4.2-.6.3.2-.1.4-.2.6-.3.1,0,.3-.2.4-.2-.1,0-.3.2-.4.2Z"/>
    <path class="st0" d="M2210,860.9c-.3,18.8-4.8,34.9-13.6,48.4,0,0,0,0,0,0-.7,1.1-1.4,2.1-2.2,3.2-.4.5-.7,1-1.1,1.5-.4.5-.8,1-1.2,1.5-.4.5-.8,1-1.2,1.5-.4.5-.8,1-1.2,1.5-.9,1-1.7,1.9-2.6,2.8-4.9,5.1-10.6,9.5-17,13.4-3.8,2.3-7.9,4.4-12.2,6.2-.3.2-.6.3-1,.4h0c-3.5,1.5-7.2,2.8-10.9,4-.4.2-.8.3-1.3.4-1.4.4-2.9.8-4.5,1.2-.8.2-1.7.5-2.6.6-1.3.3-2.7.6-4.1.9-1.6.3-3.2.6-4.8.9-.7.1-1.5.2-2.2.4-1.4.2-2.9.4-4.3.6-.9.2-1.9.3-2.8.4-4.1.5-8.2.8-12.6,1-2.8,0-5.8.2-8.8.2s-6.1,0-9.1-.2c-16.9-.8-32.3-3.7-46.1-8.7-2.5-.9-4.9-1.9-7.2-2.9-3.4-1.4-6.7-3.1-9.8-4.9h0c-1.7-.9-3.4-1.9-5-2.9-1.6-1-3.2-2-4.7-3.1-1.3-.9-2.5-1.8-3.8-2.7-.6-.4-1.1-.8-1.6-1.3-1.1-.8-2.1-1.7-3.1-2.6-1.5-1.2-3.1-2.6-4.6-4.1-1.2-1.2-2.4-2.4-3.6-3.6-.1-.2-.3-.3-.4-.5-1.2-1.3-2.4-2.6-3.5-4,0,0-.1-.1-.2-.2-1.2-1.4-2.3-2.9-3.5-4.4h0c-3.5-4.7-6.6-9.7-9.4-15-.9-1.8-1.8-3.6-2.7-5.5-1.6-3.7-3.1-7.5-4.5-11.4-.8-2.4-1.5-4.8-2.2-7.3-.7-2.5-1.3-5-1.9-7.6-.5-2.6-1.1-5.2-1.5-7.9l49.6-10.1c.2,4.1.6,8,1.1,11.8,0,.9.2,1.7.4,2.6.8,5.1,2,9.9,3.5,14.4.4,1.1.8,2.3,1.2,3.4.4.9.8,1.9,1.1,2.8.3.7.6,1.3.9,2,.4.8.8,1.6,1.2,2.3.5.9.9,1.8,1.4,2.7.7,1.2,1.4,2.3,2.1,3.5,1.1,1.7,2.3,3.3,3.6,4.9,1.6,2.1,3.3,4,5.2,5.8,2.8,2.7,5.9,5.2,9.2,7.3,11.8,7.8,26.6,11.8,44.4,12.1.7,0,1.5,0,2.3,0,5.9,0,11.5-.4,16.7-1.1.9-.1,1.9-.3,2.8-.5.9-.1,1.8-.3,2.7-.6,1.7-.3,3.5-.8,5.1-1.3.1,0,.2,0,.3,0,.7-.2,1.4-.4,2.1-.6,2.6-.8,5-1.8,7.3-2.8h0c.7-.3,1.4-.7,2.1-1,.2-.1.4-.2.6-.3.1,0,.3-.2.4-.2.7-.4,1.5-.8,2.2-1.2.6-.3,1.1-.7,1.7-1,3.3-2.1,6.2-4.5,8.9-7.1,2.6-2.6,4.9-5.6,6.9-8.7,5.2-8.3,7.8-18,7.9-28.9,7.2-2.1,15.1-3.1,23.8-3.1s15.3.9,22,2.9Z"/>
    <path class="st0" d="M2136.7,908.1c-.1,0-.3.2-.4.2h0c.1,0,.3-.2.4-.2Z"/>
    <path class="st0" d="M2188,840.2c.8,0,1.6,0,2.4,0-.8,0-1.6,0-2.4,0-3.4,0-6.7.1-9.9.4,3.2-.3,6.5-.4,10-.4Z"/>
    <path class="st0" d="M2208.3,842.2c-1.3-.3-2.6-.5-3.9-.7,1.3.2,2.6.4,3.9.7Z"/>
    <path class="st0" d="M2197.2,840.6c2.4.2,4.8.5,7.1.9-.9-.1-1.8-.3-2.7-.4-.3,0-.5,0-.8-.1-1.2-.2-2.4-.3-3.7-.4Z"/>
    <path class="st0" d="M2227.4,848.6c1.2.5,2.4,1.1,3.5,1.8-1.2-.6-2.4-1.2-3.6-1.8h0c-1.4-.7-2.9-1.4-4.4-2,1.5.6,3,1.2,4.4,2h0Z"/>
    <polygon class="st0" points="2316.7 899.3 2270.5 910.1 2270.5 910 2316.7 899.3"/>
  </g>
  <line class="st1" x1="1424.3" y1="157.1" x2="1424.3" y2="1616.4"/>
</svg>