<?xml version="1.0" encoding="UTF-8"?>
<svg id="Layer_1" xmlns="http://www.w3.org/2000/svg" version="1.1" viewBox="0 0 664.3 664.3">
  <rect fill="#f0ece6" width="664.3" height="664.3"/>
  <path fill="#000" d="M49.551 612.8H94.18020000000001L131.5329 507.04819999999995H269.7864L306.654 612.8H354.1938L226.12740000000002 265.9534999999999H177.1323ZM185.37900000000002 355.21189999999996C192.17040000000003 335.3227999999999 201.38730000000004 306.2167999999999 201.38730000000004 306.2167999999999H202.35750000000002C202.35750000000002 306.2167999999999 211.08930000000004 335.80789999999996 217.8807 355.21189999999996L257.6589 471.63589999999994H144.14550000000003Z M582.6759 615.2255C592.863 615.2255 599.1693 613.2850999999999 604.0203 611.3447V582.7238H602.565C580.7355 587.5748 575.8845 576.4174999999999 575.8845 556.0432999999999V436.7086999999999C575.8845 377.04139999999995 536.5914 357.15229999999997 483.23040000000003 357.15229999999997C416.7717 357.15229999999997 384.7551 393.5347999999999 383.2998 442.04479999999995H421.1376C422.5929 404.20699999999994 442.9671 386.74339999999995 483.7155 386.74339999999995C519.6129000000001 386.74339999999995 539.9871 402.7516999999999 539.9871 430.88749999999993C539.9871 458.0531 515.2470000000001 461.44879999999995 479.8347 466.78489999999994C417.2568 476.48689999999993 370.6872 488.61439999999993 370.6872 547.7965999999999C370.6872 595.3363999999999 408.0399 617.651 455.5797 617.651C498.2685 617.651 523.9788 597.2768 539.0169000000001 577.8728H539.502C543.3828000000001 603.5831 556.9656 615.2255 582.6759 615.2255ZM464.3115 587.5748C438.6012 587.5748 412.4058 580.2982999999999 412.4058 546.8263999999999C412.4058 509.95879999999994 443.93730000000005 503.16739999999993 483.23040000000003 495.89089999999993C504.5748 492.01009999999997 527.3745 485.70379999999994 540.4722 477.45709999999997V520.1459C540.4722 549.2519 516.7023 587.5748 464.3115 587.5748Z"/>
  <path fill="#000" d="M40.3708 67.7H43.092400000000005V48.681200000000004H43.1572C43.1572 48.681200000000004 44.129200000000004 50.430800000000005 44.8744 51.564800000000005L55.5016 67.7H58.4824V44.534000000000006H55.7608V63.6176H55.696C55.696 63.6176 54.7888 61.8356 54.0112 60.6368L43.448800000000006 44.534000000000006H40.3708Z M69.59559999999999 68.1536C73.3864 68.1536 76.0108 66.11240000000001 76.7884 62.516000000000005H74.22879999999999C73.6456 64.784 72.0256 65.9504 69.59559999999999 65.9504C66.226 65.9504 64.3792 63.3584 64.1848 59.9564H77.1448C77.1448 54.416000000000004 74.4556 50.528000000000006 69.4336 50.528000000000006C64.6708 50.528000000000006 61.495599999999996 54.4808 61.495599999999996 59.3408C61.495599999999996 64.2008 64.4764 68.1536 69.59559999999999 68.1536ZM69.4336 52.601600000000005C72.4468 52.601600000000005 74.164 54.6428 74.326 57.980000000000004H64.2496C64.6384 54.934400000000004 66.3232 52.601600000000005 69.4336 52.601600000000005Z M92.9884 67.7V50.949200000000005H90.36399999999999V61.2524C90.36399999999999 63.909200000000006 88.6468 65.918 85.99 65.918C83.6248 65.918 82.2316 64.65440000000001 82.2316 62.4836V50.949200000000005H79.60719999999999V62.5484C79.60719999999999 66.01520000000001 81.8104 68.0888 85.2448 68.0888C87.67479999999999 68.0888 89.1004 67.0196 90.2992 65.3996H90.36399999999999V67.7Z M103.71279999999999 68.1536C107.50359999999999 68.1536 110.128 66.11240000000001 110.90559999999999 62.516000000000005H108.34599999999999C107.7628 64.784 106.1428 65.9504 103.71279999999999 65.9504C100.3432 65.9504 98.4964 63.3584 98.30199999999999 59.9564H111.262C111.262 54.416000000000004 108.5728 50.528000000000006 103.5508 50.528000000000006C98.788 50.528000000000006 95.6128 54.4808 95.6128 59.3408C95.6128 64.2008 98.5936 68.1536 103.71279999999999 68.1536ZM103.5508 52.601600000000005C106.564 52.601600000000005 108.2812 54.6428 108.44319999999999 57.980000000000004H98.3668C98.7556 54.934400000000004 100.4404 52.601600000000005 103.5508 52.601600000000005Z M119.362 67.7H122.27799999999999V56.7488H134.6548V67.7H137.5708V44.534000000000006H134.6548V54.3836H122.27799999999999V44.534000000000006H119.362Z M154.678 67.86200000000001C155.35840000000002 67.86200000000001 155.77960000000002 67.7324 156.1036 67.6028V65.69120000000001H156.0064C154.54840000000002 66.01520000000001 154.2244 65.27000000000001 154.2244 63.909200000000006V55.9388C154.2244 51.9536 151.6 50.62520000000001 148.036 50.62520000000001C143.59720000000002 50.62520000000001 141.4588 53.0552 141.3616 56.2952H143.8888C143.98600000000002 53.768 145.3468 52.601600000000005 148.0684 52.601600000000005C150.466 52.601600000000005 151.8268 53.6708 151.8268 55.550000000000004C151.8268 57.3644 150.1744 57.5912 147.8092 57.9476C143.6296 58.595600000000005 140.5192 59.40560000000001 140.5192 63.3584C140.5192 66.5336 143.014 68.024 146.1892 68.024C149.0404 68.024 150.7576 66.6632 151.762 65.3672H151.7944C152.05360000000002 67.0844 152.9608 67.86200000000001 154.678 67.86200000000001ZM146.7724 66.01520000000001C145.0552 66.01520000000001 143.3056 65.5292 143.3056 63.293600000000005C143.3056 60.8312 145.4116 60.3776 148.036 59.891600000000004C149.4616 59.632400000000004 150.9844 59.211200000000005 151.85920000000002 58.6604V61.5116C151.85920000000002 63.455600000000004 150.2716 66.01520000000001 146.7724 66.01520000000001Z M171.202 67.86200000000001C171.88240000000002 67.86200000000001 172.30360000000002 67.7324 172.6276 67.6028V65.69120000000001H172.53040000000001C171.07240000000002 66.01520000000001 170.7484 65.27000000000001 170.7484 63.909200000000006V55.9388C170.7484 51.9536 168.124 50.62520000000001 164.56 50.62520000000001C160.12120000000002 50.62520000000001 157.9828 53.0552 157.8856 56.2952H160.4128C160.51000000000002 53.768 161.8708 52.601600000000005 164.5924 52.601600000000005C166.99 52.601600000000005 168.3508 53.6708 168.3508 55.550000000000004C168.3508 57.3644 166.6984 57.5912 164.3332 57.9476C160.1536 58.595600000000005 157.0432 59.40560000000001 157.0432 63.3584C157.0432 66.5336 159.538 68.024 162.7132 68.024C165.5644 68.024 167.2816 66.6632 168.286 65.3672H168.3184C168.57760000000002 67.0844 169.4848 67.86200000000001 171.202 67.86200000000001ZM163.2964 66.01520000000001C161.57920000000001 66.01520000000001 159.8296 65.5292 159.8296 63.293600000000005C159.8296 60.8312 161.9356 60.3776 164.56 59.891600000000004C165.9856 59.632400000000004 167.5084 59.211200000000005 168.38320000000002 58.6604V61.5116C168.38320000000002 63.455600000000004 166.7956 66.01520000000001 163.2964 66.01520000000001Z M180.922 68.186C184.7776 68.186 187.5316 66.4688 187.5316 63.0992C187.5316 59.2436 184.71280000000002 58.498400000000004 181.3432 57.818000000000005C178.4596 57.23480000000001 176.83960000000002 56.8784 176.83960000000002 55.06400000000001C176.83960000000002 53.735600000000005 177.8116 52.6664 180.2092 52.6664C182.704 52.6664 183.9028 53.638400000000004 184.162 55.8416H186.8512C186.4624 52.5692 184.4212 50.592800000000004 180.274 50.592800000000004C176.386 50.592800000000004 174.2476 52.4072 174.2476 55.1936C174.2476 58.854800000000004 177.196 59.5352 180.5008 60.2156C183.5788 60.863600000000005 184.8748 61.3496 184.8748 63.22880000000001C184.8748 64.784 183.7408 65.9828 180.98680000000002 65.9828C178.49200000000002 65.9828 176.548 65.17280000000001 176.1916 62.256800000000005H173.5024C173.76160000000002 66.01520000000001 176.3212 68.186 180.922 68.186Z M213.7432 67.7H215.6224V55.4528H205.74040000000002V57.980000000000004H212.7064V58.5308C212.7064 62.418800000000005 210.4708 65.6588 205.708 65.6588C201.01000000000002 65.6588 197.70520000000002 61.868 197.70520000000002 56.19800000000001C197.70520000000002 50.7548 200.2324 46.5752 205.8052 46.5752C209.46640000000002 46.5752 211.6372 48.422000000000004 212.2852 51.5H215.29840000000002C214.5532 46.964000000000006 211.2484 44.048 205.87 44.048C198.58 44.048 194.7244 49.394000000000005 194.7244 56.19800000000001C194.7244 63.22880000000001 199.0984 68.186 205.6108 68.186C208.65640000000002 68.186 211.15120000000002 67.0196 212.836 64.65440000000001H212.9008Z M221.8756 50.949200000000005H219.2512V67.7H221.8756V58.4012C221.8756 55.2584 224.1436 53.314400000000006 226.7356 53.314400000000006C227.254 53.314400000000006 227.5132 53.3468 227.902 53.476400000000005H227.9992V50.949200000000005C227.6752 50.81960000000001 227.416 50.7548 226.93 50.7548C224.6944 50.7548 222.9448 52.1156 221.9404 53.735600000000005H221.8756Z M236.8768 68.1536C241.89880000000002 68.1536 244.9444 64.2008 244.9444 59.3408C244.9444 54.4808 241.89880000000002 50.528000000000006 236.8768 50.528000000000006C231.8872 50.528000000000006 228.7768 54.4808 228.7768 59.3408C228.7768 64.2008 231.8872 68.1536 236.8768 68.1536ZM236.8768 65.9504C233.3128 65.9504 231.466 63.034400000000005 231.466 59.3408C231.466 55.647200000000005 233.3128 52.698800000000006 236.8768 52.698800000000006C240.44080000000002 52.698800000000006 242.2552 55.647200000000005 242.2552 59.3408C242.2552 63.034400000000005 240.44080000000002 65.9504 236.8768 65.9504Z M246.1756 53.0876H248.6056V64.55720000000001C248.6056 66.9224 250.16080000000002 67.7972 252.2992 67.7972C253.07680000000002 67.7972 253.7896 67.7 254.4052 67.5704V65.3024H254.30800000000002C254.0164 65.3996 253.43320000000003 65.5292 252.9148 65.5292C251.84560000000002 65.5292 251.23000000000002 65.1404 251.23000000000002 63.974000000000004V53.0876H254.47000000000003V50.949200000000005H251.23000000000002V45.668000000000006H248.6056V50.949200000000005H246.1756Z M264.19 68.1536C267.9808 68.1536 270.6052 66.11240000000001 271.3828 62.516000000000005H268.8232C268.24 64.784 266.62 65.9504 264.19 65.9504C260.8204 65.9504 258.97360000000003 63.3584 258.7792 59.9564H271.7392C271.7392 54.416000000000004 269.05 50.528000000000006 264.028 50.528000000000006C259.2652 50.528000000000006 256.09000000000003 54.4808 256.09000000000003 59.3408C256.09000000000003 64.2008 259.0708 68.1536 264.19 68.1536ZM264.028 52.601600000000005C267.0412 52.601600000000005 268.7584 54.6428 268.92040000000003 57.980000000000004H258.844C259.2328 54.934400000000004 260.9176 52.601600000000005 264.028 52.601600000000005Z M280.6492 68.186C284.5048 68.186 287.2588 66.4688 287.2588 63.0992C287.2588 59.2436 284.44 58.498400000000004 281.0704 57.818000000000005C278.1868 57.23480000000001 276.5668 56.8784 276.5668 55.06400000000001C276.5668 53.735600000000005 277.5388 52.6664 279.9364 52.6664C282.4312 52.6664 283.63 53.638400000000004 283.88919999999996 55.8416H286.5784C286.1896 52.5692 284.1484 50.592800000000004 280.0012 50.592800000000004C276.1132 50.592800000000004 273.9748 52.4072 273.9748 55.1936C273.9748 58.854800000000004 276.9232 59.5352 280.228 60.2156C283.306 60.863600000000005 284.602 61.3496 284.602 63.22880000000001C284.602 64.784 283.46799999999996 65.9828 280.714 65.9828C278.2192 65.9828 276.2752 65.17280000000001 275.9188 62.256800000000005H273.2296C273.48879999999997 66.01520000000001 276.0484 68.186 280.6492 68.186Z M300.80199999999996 67.7H303.87999999999994L296.68719999999996 56.9756L303.1024 50.949200000000005H299.76519999999994L292.4104 58.1096V44.534000000000006H289.78599999999994V67.7H292.4104V60.9932L294.8728 58.6604Z"/>
  <path fill="#000" d="M514.1708 67.7H516.7952V48.64880000000001H516.86C516.86 48.64880000000001 517.4432 50.3984 517.8968 51.564800000000005L524.2472 67.7H526.4828L532.8332 51.564800000000005C533.2544 50.4632 533.87 48.64880000000001 533.87 48.64880000000001H533.9348V67.7H536.7212V44.534000000000006H532.9304L525.4784 63.7796H525.4136L517.8968 44.534000000000006H514.1708Z M547.8344000000001 68.1536C551.6252000000001 68.1536 554.2496000000001 66.11240000000001 555.0272 62.516000000000005H552.4676000000001C551.8844 64.784 550.2644 65.9504 547.8344000000001 65.9504C544.4648000000001 65.9504 542.618 63.3584 542.4236000000001 59.9564H555.3836C555.3836 54.416000000000004 552.6944000000001 50.528000000000006 547.6724 50.528000000000006C542.9096000000001 50.528000000000006 539.7344 54.4808 539.7344 59.3408C539.7344 64.2008 542.7152000000001 68.1536 547.8344000000001 68.1536ZM547.6724 52.601600000000005C550.6856 52.601600000000005 552.4028000000001 54.6428 552.5648000000001 57.980000000000004H542.4884000000001C542.8772 54.934400000000004 544.562 52.601600000000005 547.6724 52.601600000000005Z M564.4232 68.186C566.7884 68.186 568.3436 67.2788 569.6072 65.6588H569.672V67.7H572.2964V44.534000000000006H569.672V53.314400000000006H569.6072C568.538 51.726800000000004 566.7236 50.5604 564.3584 50.5604C560.2112 50.5604 557.0036 53.8004 557.0036 59.373200000000004C557.0036 64.7516 559.8548 68.186 564.4232 68.186ZM564.5204 65.9828C561.3128 65.9828 559.6928 63.196400000000004 559.6928 59.40560000000001C559.6928 55.647200000000005 561.3128 52.79600000000001 564.488 52.79600000000001C567.9548 52.79600000000001 569.8340000000001 55.5176 569.8340000000001 59.40560000000001C569.8340000000001 63.196400000000004 568.2464 65.9828 564.5204 65.9828Z M575.8604 67.7H578.4848V50.949200000000005H575.8604ZM575.8604 47.774H578.4848V44.534000000000006H575.8604Z M595.3328 67.7V50.949200000000005H592.7084V61.2524C592.7084 63.909200000000006 590.9911999999999 65.918 588.3344 65.918C585.9692 65.918 584.576 64.65440000000001 584.576 62.4836V50.949200000000005H581.9516V62.5484C581.9516 66.01520000000001 584.1548 68.0888 587.5892 68.0888C590.0192 68.0888 591.4448 67.0196 592.6436 65.3996H592.7084V67.7Z M598.8968 67.7H601.5211999999999V57.2672C601.5211999999999 54.6428 603.7891999999999 52.763600000000004 605.8303999999999 52.763600000000004C607.5476 52.763600000000004 608.7139999999999 53.994800000000005 608.7139999999999 56.068400000000004V67.7H611.3384V57.2672C611.3384 54.6428 613.2823999999999 52.763600000000004 615.4531999999999 52.763600000000004C617.1379999999999 52.763600000000004 618.5311999999999 53.994800000000005 618.5311999999999 56.068400000000004V67.7H621.1555999999999V55.9388C621.1555999999999 52.472 619.0495999999999 50.5604 616.0687999999999 50.5604C614.0275999999999 50.5604 612.0187999999999 51.6296 610.9495999999999 53.5412H610.8847999999999C610.1719999999999 51.5972 608.5519999999999 50.5604 606.5107999999999 50.5604C604.4047999999999 50.5604 602.6228 51.726800000000004 601.5859999999999 53.3468H601.5211999999999V50.949200000000005H598.8968Z"/>
</svg>
