<?xml version="1.0" encoding="UTF-8"?>
<svg id="Layer_1" xmlns="http://www.w3.org/2000/svg" version="1.1" viewBox="0 0 664.3 664.3">
  <rect width="664.3" height="664.3"/>
  <path fill="#f0ece6" d="M31.614900000000002 610.6H117.96270000000001L137.8518 548.0221H259.1268L279.50100000000003 610.6H369.72960000000006L244.5738 263.7535H156.28560000000002ZM157.7409 486.4144 184.4214 402.49210000000005C190.2426 384.5434 198.48930000000001 353.497 198.48930000000001 353.497H199.4595C199.4595 353.497 207.2211 384.5434 213.0423 402.49210000000005L239.23770000000002 486.4144Z M459.95820000000003 616.9063C497.31090000000006 616.9063 519.1404 603.8086000000001 533.6934000000001 582.9493H534.6636000000001C536.604 595.5619 539.0295000000001 605.2639 542.9103 610.6H619.5561V607.2043C612.7647000000001 602.8384 610.8243000000001 591.6811 610.8243000000001 571.792V446.63620000000003C610.8243000000001 415.58979999999997 600.6372000000001 391.3348 579.2928 375.8116C561.3441 362.2288 536.1189 355.4374 498.7662 355.4374C423.57570000000004 355.4374 388.1634 394.7305 386.22300000000007 440.815H458.98800000000006C461.41350000000006 419.9557 474.02610000000004 408.7984 499.25130000000007 408.7984C523.0212 408.7984 533.2083 419.4706 533.2083 435.4789C533.2083 452.4574 516.7149000000001 457.3084 470.1453000000001 463.1296C418.72470000000004 469.92100000000005 375.06570000000005 486.4144 375.06570000000005 541.2307000000001C375.06570000000005 590.2258 410.47800000000007 616.9063 459.95820000000003 616.9063ZM485.18340000000006 566.4559C465.77940000000007 566.4559 451.22640000000007 558.6943 451.22640000000007 538.8052C451.22640000000007 519.8863 463.83900000000006 512.1247000000001 494.4003000000001 505.3333C510.4086000000001 501.4525 524.9616000000001 497.5717 535.1487000000001 492.23560000000003V521.8267000000001C535.1487000000001 548.5072 514.7745000000001 566.4559 485.18340000000006 566.4559Z"/>
  <path fill="#f0ece6" d="M39.787600000000005 67.7H45.3928V56.9108C45.3928 56.10080000000001 45.328 53.120000000000005 45.328 53.120000000000005H45.3928C45.3928 53.120000000000005 46.656400000000005 55.6148 47.0452 56.2304L53.8492 67.7H59.6164V44.534000000000006H54.0112V55.5176C54.0112 56.327600000000004 54.076 59.114000000000004 54.076 59.114000000000004H54.0112C54.0112 59.114000000000004 52.78 56.8136 52.4236 56.165600000000005L45.5548 44.534000000000006H39.787600000000005Z M70.5676 68.186C72.6736 68.186 74.3584 67.6352 75.7516 66.6632C77.2096 65.6588 78.1816 64.2332 78.538 62.7428H73.3864C72.9328 63.7796 72.0256 64.3952 70.6324 64.3952C68.4616 64.3952 67.2304 63.002 66.9064 60.766400000000004H78.8296C78.862 57.396800000000006 77.89 54.513200000000005 75.9136 52.698800000000006C74.488 51.4028 72.6088 50.62520000000001 70.2436 50.62520000000001C65.1892 50.62520000000001 61.7224 54.416000000000004 61.7224 59.373200000000004C61.7224 64.3952 65.092 68.186 70.5676 68.186ZM66.9388 57.6236C67.2952 55.647200000000005 68.332 54.3836 70.3408 54.3836C72.05799999999999 54.3836 73.2892 55.647200000000005 73.4836 57.6236Z M86.314 68.186C88.6144 68.186 90.0724 67.2788 91.2712 65.6588H91.3684V67.7H96.4228V51.111200000000004H91.1416V60.3776C91.1416 62.354 90.03999999999999 63.714800000000004 88.2256 63.714800000000004C86.5408 63.714800000000004 85.7308 62.71040000000001 85.7308 60.896V51.111200000000004H80.482V61.997600000000006C80.482 65.69120000000001 82.4908 68.186 86.314 68.186Z M107.05 68.186C109.15599999999999 68.186 110.84079999999999 67.6352 112.234 66.6632C113.692 65.6588 114.66399999999999 64.2332 115.0204 62.7428H109.8688C109.4152 63.7796 108.508 64.3952 107.11479999999999 64.3952C104.94399999999999 64.3952 103.71279999999999 63.002 103.38879999999999 60.766400000000004H115.31199999999998C115.3444 57.396800000000006 114.3724 54.513200000000005 112.39599999999999 52.698800000000006C110.97039999999998 51.4028 109.09119999999999 50.62520000000001 106.726 50.62520000000001C101.6716 50.62520000000001 98.20479999999999 54.416000000000004 98.20479999999999 59.373200000000004C98.20479999999999 64.3952 101.5744 68.186 107.05 68.186ZM103.4212 57.6236C103.77759999999999 55.647200000000005 104.81439999999999 54.3836 106.82319999999999 54.3836C108.54039999999999 54.3836 109.77159999999999 55.647200000000005 109.966 57.6236Z M122.44 67.7H128.1748V58.0448H136.3072V67.7H142.042V44.534000000000006H136.3072V53.314400000000006H128.1748V44.534000000000006H122.44Z M149.78560000000002 68.1212C152.28040000000001 68.1212 153.7384 67.24640000000001 154.71040000000002 65.8532H154.7752C154.90480000000002 66.6956 155.0668 67.34360000000001 155.32600000000002 67.7H160.4452V67.4732C159.9916 67.1816 159.86200000000002 66.4364 159.86200000000002 65.108V56.7488C159.86200000000002 54.675200000000004 159.1816 53.0552 157.756 52.0184C156.55720000000002 51.111200000000004 154.8724 50.6576 152.3776 50.6576C147.3556 50.6576 144.99040000000002 53.282000000000004 144.8608 56.36H149.7208C149.8828 54.966800000000006 150.7252 54.2216 152.41000000000003 54.2216C153.9976 54.2216 154.678 54.934400000000004 154.678 56.003600000000006C154.678 57.137600000000006 153.5764 57.461600000000004 150.466 57.85040000000001C147.0316 58.304 144.1156 59.40560000000001 144.1156 63.0668C144.1156 66.3392 146.48080000000002 68.1212 149.78560000000002 68.1212ZM151.4704 64.7516C150.17440000000002 64.7516 149.2024 64.2332 149.2024 62.9048C149.2024 61.641200000000005 150.0448 61.122800000000005 152.086 60.669200000000004C153.1552 60.410000000000004 154.12720000000002 60.150800000000004 154.8076 59.7944V61.7708C154.8076 63.552800000000005 153.4468 64.7516 151.4704 64.7516Z M167.31400000000002 68.1212C169.80880000000002 68.1212 171.26680000000002 67.24640000000001 172.23880000000003 65.8532H172.30360000000002C172.43320000000003 66.6956 172.5952 67.34360000000001 172.85440000000003 67.7H177.9736V67.4732C177.52 67.1816 177.3904 66.4364 177.3904 65.108V56.7488C177.3904 54.675200000000004 176.71 53.0552 175.2844 52.0184C174.08560000000003 51.111200000000004 172.4008 50.6576 169.906 50.6576C164.88400000000001 50.6576 162.51880000000003 53.282000000000004 162.38920000000002 56.36H167.2492C167.4112 54.966800000000006 168.2536 54.2216 169.9384 54.2216C171.526 54.2216 172.2064 54.934400000000004 172.2064 56.003600000000006C172.2064 57.137600000000006 171.1048 57.461600000000004 167.9944 57.85040000000001C164.56 58.304 161.644 59.40560000000001 161.644 63.0668C161.644 66.3392 164.00920000000002 68.1212 167.31400000000002 68.1212ZM168.99880000000002 64.7516C167.70280000000002 64.7516 166.73080000000002 64.2332 166.73080000000002 62.9048C166.73080000000002 61.641200000000005 167.5732 61.122800000000005 169.61440000000002 60.669200000000004C170.6836 60.410000000000004 171.65560000000002 60.150800000000004 172.336 59.7944V61.7708C172.336 63.552800000000005 170.97520000000003 64.7516 168.99880000000002 64.7516Z M187.0132 68.2184C191.3548 68.2184 194.56240000000003 66.3392 194.56240000000003 62.71040000000001C194.56240000000003 58.466 191.12800000000001 57.720800000000004 188.21200000000002 57.23480000000001C186.10600000000002 56.846000000000004 184.22680000000003 56.684000000000005 184.22680000000003 55.5176C184.22680000000003 54.4808 185.23120000000003 53.994800000000005 186.52720000000002 53.994800000000005C187.98520000000002 53.994800000000005 188.98960000000002 54.44840000000001 189.18400000000003 55.9388H194.044C193.78480000000002 52.6664 191.25760000000002 50.62520000000001 186.55960000000002 50.62520000000001C182.63920000000002 50.62520000000001 179.3992 52.439600000000006 179.3992 55.9388C179.3992 59.826800000000006 182.4772 60.604400000000005 185.3608 61.0904C187.56400000000002 61.479200000000006 189.57280000000003 61.641200000000005 189.57280000000003 63.131600000000006C189.57280000000003 64.2008 188.56840000000003 64.784 186.98080000000002 64.784C185.23120000000003 64.784 184.1296 63.974000000000004 183.9352 62.321600000000004H178.9456C179.10760000000002 65.9828 182.15320000000003 68.2184 187.0132 68.2184Z M211.73440000000002 68.2184C214.5208 68.2184 216.7888 67.2788 218.3116 64.9136H218.37640000000002L218.7004 67.7H222.71800000000002V55.2584H213.0628V59.470400000000005H217.4044V59.5352C217.1776 61.57640000000001 215.3956 63.5852 212.38240000000002 63.5852C208.7536 63.5852 206.55040000000002 60.442400000000006 206.55040000000002 56.19800000000001C206.55040000000002 51.986000000000004 208.46200000000002 48.8108 212.2852 48.8108C214.81240000000003 48.8108 216.3676 50.2364 216.7888 52.1156H222.3616C221.6164 47.2556 218.0524 44.080400000000004 212.0908 44.080400000000004C208.7536 44.080400000000004 206.0644 45.214400000000005 204.1528 47.1584C201.9496 49.3616 200.7184 52.5692 200.7184 56.19800000000001C200.7184 59.729600000000005 201.82000000000002 62.775200000000005 203.8288 64.97840000000001C205.74040000000002 67.052 208.42960000000002 68.2184 211.73440000000002 68.2184Z M225.3424 67.7H230.6236V60.248000000000005C230.6236 56.6516 232.6972 55.06400000000001 235.9372 55.5176H236.0668V50.9816C235.84 50.8844 235.516 50.852000000000004 235.03 50.852000000000004C233.0212 50.852000000000004 231.6604 51.726800000000004 230.494 53.7032H230.3968V51.111200000000004H225.3424Z M245.52759999999998 64.46000000000001C243.22719999999998 64.46000000000001 242.02839999999998 62.4512 242.02839999999998 59.438C242.02839999999998 56.424800000000005 243.22719999999998 54.3836 245.52759999999998 54.3836C247.82799999999997 54.3836 249.05919999999998 56.424800000000005 249.05919999999998 59.438C249.05919999999998 62.4512 247.82799999999997 64.46000000000001 245.52759999999998 64.46000000000001ZM245.55999999999997 68.2184C250.90599999999998 68.2184 254.40519999999998 64.4276 254.40519999999998 59.438C254.40519999999998 54.44840000000001 250.90599999999998 50.6576 245.55999999999997 50.6576C240.2464 50.6576 236.6824 54.44840000000001 236.6824 59.438C236.6824 64.4276 240.2464 68.2184 245.55999999999997 68.2184Z M262.44039999999995 67.8944C263.866 67.8944 264.87039999999996 67.76480000000001 265.32399999999996 67.6352V63.7796C265.1296 63.7796 264.6112 63.812000000000005 264.1576 63.812000000000005C263.0236 63.812000000000005 262.3108 63.488 262.3108 62.192V54.416000000000004H265.32399999999996V51.111200000000004H262.3108V45.86240000000001H257.1592V51.111200000000004H254.956V54.416000000000004H257.1592V63.326C257.1592 66.89 259.3624 67.8944 262.44039999999995 67.8944Z M275.1736 68.186C277.2796 68.186 278.9644 67.6352 280.3576 66.6632C281.8156 65.6588 282.7876 64.2332 283.144 62.7428H277.9924C277.5388 63.7796 276.6316 64.3952 275.2384 64.3952C273.0676 64.3952 271.8364 63.002 271.5124 60.766400000000004H283.4356C283.468 57.396800000000006 282.496 54.513200000000005 280.5196 52.698800000000006C279.094 51.4028 277.2148 50.62520000000001 274.8496 50.62520000000001C269.7952 50.62520000000001 266.3284 54.416000000000004 266.3284 59.373200000000004C266.3284 64.3952 269.698 68.186 275.1736 68.186ZM271.5448 57.6236C271.9012 55.647200000000005 272.938 54.3836 274.9468 54.3836C276.664 54.3836 277.8952 55.647200000000005 278.0896 57.6236Z M292.2808 68.2184C296.6224 68.2184 299.83 66.3392 299.83 62.71040000000001C299.83 58.466 296.3956 57.720800000000004 293.4796 57.23480000000001C291.3736 56.846000000000004 289.4944 56.684000000000005 289.4944 55.5176C289.4944 54.4808 290.4988 53.994800000000005 291.7948 53.994800000000005C293.2528 53.994800000000005 294.2572 54.44840000000001 294.4516 55.9388H299.3116C299.05240000000003 52.6664 296.5252 50.62520000000001 291.8272 50.62520000000001C287.90680000000003 50.62520000000001 284.6668 52.439600000000006 284.6668 55.9388C284.6668 59.826800000000006 287.7448 60.604400000000005 290.6284 61.0904C292.8316 61.479200000000006 294.8404 61.641200000000005 294.8404 63.131600000000006C294.8404 64.2008 293.836 64.784 292.2484 64.784C290.4988 64.784 289.3972 63.974000000000004 289.2028 62.321600000000004H284.21320000000003C284.3752 65.9828 287.4208 68.2184 292.2808 68.2184Z M301.5472 67.7H306.7636V62.613200000000006L308.35119999999995 60.9284L312.33639999999997 67.7H318.46L311.94759999999997 57.33200000000001L317.77959999999996 51.111200000000004H311.6884L306.7636 56.71640000000001V44.534000000000006H301.5472Z"/>
  <path fill="#f0ece6" d="M560.2876 67.7H571.7248000000001C574.1548 67.7 576.0664 67.1168 577.4272000000001 66.0476C578.95 64.8812 579.7924 63.196400000000004 579.7924 60.863600000000005C579.7924 58.1096 578.1724 55.9712 575.6452 55.1936V55.0964C577.6864 54.3188 578.8852 52.860800000000005 578.8852 50.5604C578.8852 48.7136 578.2048000000001 47.223200000000006 576.8764 46.1216C575.6452 45.117200000000004 573.8632 44.534000000000006 571.4656 44.534000000000006H560.2876ZM565.9576000000001 63.0992V57.5912H571.0120000000001C572.7616 57.5912 574.1224000000001 58.5308 574.1224000000001 60.3776C574.1224000000001 62.03 572.956 63.0992 571.0768 63.0992ZM565.9576000000001 53.7032V49.07000000000001H570.6556C572.3404 49.07000000000001 573.4096000000001 49.912400000000005 573.4096000000001 51.370400000000004C573.4096000000001 52.89320000000001 572.2756 53.7032 570.6232 53.7032Z M590.128 64.46000000000001C587.8276000000001 64.46000000000001 586.6288000000001 62.4512 586.6288000000001 59.438C586.6288000000001 56.424800000000005 587.8276000000001 54.3836 590.128 54.3836C592.4284 54.3836 593.6596000000001 56.424800000000005 593.6596000000001 59.438C593.6596000000001 62.4512 592.4284 64.46000000000001 590.128 64.46000000000001ZM590.1604 68.2184C595.5064 68.2184 599.0056000000001 64.4276 599.0056000000001 59.438C599.0056000000001 54.44840000000001 595.5064 50.6576 590.1604 50.6576C584.8468 50.6576 581.2828000000001 54.44840000000001 581.2828000000001 59.438C581.2828000000001 64.4276 584.8468 68.2184 590.1604 68.2184Z M600.82 67.7H606.166V44.534000000000006H600.82Z M615.2379999999999 68.2184C617.4088 68.2184 619.126 67.1816 620.1304 65.4644H620.1952V67.7H625.2496V44.534000000000006H619.9684V52.9904H619.8712C618.8992 51.5972 617.5708 50.62520000000001 615.2379999999999 50.62520000000001C610.9612 50.62520000000001 607.9804 54.2216 607.9804 59.40560000000001C607.9804 64.946 610.9936 68.2184 615.2379999999999 68.2184ZM616.5988 64.03880000000001C614.5576 64.03880000000001 613.3264 62.2244 613.3264 59.3408C613.3264 56.5544 614.5576 54.610400000000006 616.6636 54.610400000000006C618.9639999999999 54.610400000000006 620.098 56.619200000000006 620.098 59.40560000000001C620.098 62.1272 618.802 64.03880000000001 616.5988 64.03880000000001Z"/>
</svg>
