<?xml version="1.0" encoding="UTF-8"?>
<svg id="Layer_1" xmlns="http://www.w3.org/2000/svg" version="1.1" viewBox="0 0 2848.7 1776.4">
  <!-- Generator: Adobe Illustrator 30.5.1, SVG Export Plug-In . SVG Version: 2.1.4 Build 3)  -->
  <defs>
    <style>
      .st0, .st1, .st2 {
        fill: #f0ece6;
      }

      .st3 {
        fill: none;
        stroke: #f0ece6;
        stroke-miterlimit: 10;
        stroke-width: .7px;
      }

      .st1 {
        font-family: NHaasGroteskDSPro-75Bd, 'Neue Haas Grotesk Display Pro';
      }

      .st1, .st2 {
        font-size: 159.5px;
      }

      .st2 {
        font-family: NHaasGroteskDSPro-65Md, 'Neue Haas Grotesk Display Pro';
        font-weight: 500;
      }
    </style>
  </defs>
  <rect x="-8.8" y="-7.5" width="2866.2" height="1788.4"/>
  <g>
    <g>
      <path class="st0" d="M181.1,588.1h10.5l17.6,49.9h-10.5l-3.4-10.6h-18l-3.3,10.6h-10.3l17.4-49.9ZM179.6,619.6h13.2l-4.5-14.4c-.8-2.7-2-7.7-2-7.7h-.1s-1.3,5-2.1,7.7l-4.5,14.4Z"/>
      <path class="st0" d="M235.3,634h-.1c-1.8,2.7-4.4,4.8-10.5,4.8s-12.5-3.8-12.5-11,6.4-10.4,14.4-11.5c5.9-.8,8.7-1.3,8.7-4s-2-4.3-6-4.3-6.6,1.6-6.9,5h-8.4c.3-6.3,5-11.8,15.4-11.8s15.1,4.8,15.1,13.2v18.2c0,2.7.4,4.3,1.3,5v.3h-9.1c-.6-.7-.9-2.4-1.1-4ZM235.4,625.4v-5.4c-1.7,1-4.3,1.5-6.6,2.1-5,1.1-7.4,2.2-7.4,5.6s2.2,4.5,5.6,4.5c5.4,0,8.4-3.4,8.4-6.8Z"/>
      <path class="st0" d="M254.6,588.1h22.3c5.4,0,9.5,1.3,12.1,3.6,2.7,2.4,4,5.4,4,9.4s-3.1,8.4-7.8,10v.2c5.5,1.6,9.3,6.2,9.3,12.4s-1.5,7.9-4.4,10.4c-2.9,2.5-7.3,4-12.6,4h-22.9v-49.9ZM275.7,608.2c4.4,0,7.4-2.1,7.4-6s-2.7-5.9-7.2-5.9h-11.2v11.9h11ZM264.7,629.6h11.7c4.9,0,7.8-2.7,7.8-6.8s-3.5-7.2-8.1-7.2h-11.4v14Z"/>
      <path class="st0" d="M311,633.5h-.1v4.5h-9.1v-49.9h9.5v18.4h.2c2-3,5-5.3,10-5.3,9,0,15.4,7.7,15.4,18.9s-6.1,18.9-15.1,18.9-8.6-2.2-10.7-5.5ZM327.2,620.1c0-6.6-2.7-11.2-8-11.2s-8.2,4.8-8.2,11.4,3.3,10.8,8.6,10.8,7.6-4,7.6-11Z"/>
      <path class="st0" d="M343.2,613.2c0-14.8,9.2-26.1,23.9-26.1s19.5,7.3,20.6,16.8h-10.1c-.9-5-4.7-8.3-10.5-8.3-9.2,0-13.6,7.7-13.6,17.6s5.3,17.5,13.7,17.5,10.1-3.6,10.8-8.8h9.9c-.3,4.4-2.2,8.7-5.5,11.8-3.4,3.2-8.2,5.3-15.1,5.3-14,0-24-10.8-24-25.8Z"/>
      <path class="st0" d="M392.7,620.1c0-10.7,7-18.9,17.9-18.9s15,5.4,16.3,13.1h-9.3c-.6-3.1-3.1-5.5-6.6-5.5-5.7,0-8.7,4.4-8.7,11.3s2.7,11.3,8.5,11.3,6.6-2,7.2-6.1h9.1c-.6,7.6-6.6,13.7-16.1,13.7s-18.4-8.2-18.4-18.9Z"/>
      <path class="st0" d="M435.6,588.1h19.5c13.3,0,21.9,10.8,21.9,25.5s-2.7,15.2-8,19.6c-3.7,3.1-8.5,4.8-14.8,4.8h-18.6v-49.9ZM453.5,629.3c9.5,0,13.2-5.8,13.2-15.7s-4.3-16.8-12.9-16.8h-8.1v32.5h7.8Z"/>
      <path class="st0" d="M482.2,620.1c0-11.2,6.4-18.9,15.3-18.9s8.2,2.3,10.1,5.3h.2v-18.4h9.5v49.9h-9.1v-4.7h-.1c-2.1,3.4-5.7,5.7-10.7,5.7-9,0-15.1-7.3-15.1-18.9ZM508,620.3c0-6.8-2.2-11.4-8.3-11.4s-7.9,4.6-7.9,11.2,2.7,11,7.6,11,8.6-4.2,8.6-10.8Z"/>
      <path class="st0" d="M527.5,588.1h36.7v8.5h-26.6v11.2h23.3v8.3h-23.3v13.5h26.8v8.4h-36.9v-49.9Z"/>
      <path class="st0" d="M569,620.1c0-10.6,7.2-18.8,17.7-18.8s17.7,8.8,17.7,21.6h-26c.7,5.5,3.8,8.9,9.1,8.9s5.9-1.7,6.9-4.4h9.4c-1.3,6.4-7,11.7-16.2,11.7s-18.6-8.3-18.6-19ZM578.5,616.2h15.9c-.3-4.5-3.3-7.7-7.6-7.7s-7.5,3-8.3,7.7Z"/>
      <path class="st0" d="M612.9,588.1h35.7v8.6h-25.6v12h21.7v8.7h-21.7v20.7h-10.1v-49.9Z"/>
      <path class="st0" d="M651.2,602.2h4.9v-3.2c0-8.7,6.8-11.8,15.9-10.8v7.3c-4.5-.2-6.4.3-6.4,4v2.7h6.4v6.6h-6.4v29.2h-9.5v-29.2h-4.9v-6.6Z"/>
      <path class="st0" d="M717.5,631.3h-.1c-3.4,5.7-8.1,7.7-14,7.7s-13.4-2.7-17.5-7.3c-4.1-4.6-6.5-11-6.5-18.6s2.9-15.6,8.2-20.4c4-3.7,9.4-5.7,16.1-5.7,12.6,0,19.8,6.9,21.4,16.7h-9.9c-1.1-4.8-4.8-8.3-11.2-8.3-9.4,0-14.1,7.8-14.1,17.7s5.4,17.7,14,17.7,12.8-5.8,12.8-11.3v-.3h-12v-7.8h21v26.5h-7.6l-.3-6.7Z"/>
      <path class="st0" d="M733,639h9.4c.8,2.2,2.8,4,7.2,4s8-2.6,8-7.5v-3.9h-.2c-2.1,2.4-4.8,4.2-9.4,4.2-8,0-15.8-6.3-15.8-17.1s6.4-17.5,15.5-17.5,7.7,1.7,9.9,4.7h.1v-3.8h9.1v33.1c0,5-1.6,8.4-4.3,10.9-3,2.8-7.6,4-12.9,4-9.8,0-15.8-4.2-16.8-11.2ZM758,618.5c0-5.2-2.8-9.7-8.5-9.7s-8,3.8-8,9.8,3.2,9.6,8.1,9.6,8.4-4.4,8.4-9.7Z"/>
      <path class="st0" d="M775.9,588.1h10.1v19.5h19.6v-19.5h10.1v49.9h-10.1v-22h-19.6v22h-10.1v-49.9Z"/>
      <path class="st0" d="M834.3,606.9h.2c2.6-3.8,5.5-5.7,10.4-5.7,7.4,0,12.4,5.6,12.4,13.4v23.4h-9.5v-22c0-3.8-2.2-6.6-6.2-6.6s-7.3,3.4-7.3,8.2v20.3h-9.5v-49.9h9.5v18.8Z"/>
      <path class="st0" d="M867.2,588.1h10.1v49.9h-10.1v-49.9Z"/>
      <path class="st0" d="M886.3,588.1h9.5v8.5h-9.5v-8.5ZM886.3,602.2h9.5v35.8h-9.5v-35.8Z"/>
      <path class="st0" d="M902.1,624.4v-5h9.1v4.3c0,5,2.3,7,6.4,7s6-2.4,6-6.8v-35.8h10.1v35.9c0,8.5-5,14.9-15.3,14.9s-16.3-4.7-16.3-14.5Z"/>
      <path class="st0" d="M936.1,649.4v-6.8c3.8,0,5.9-.4,5.9-3.7v-36.7h9.5v37.2c0,4.2-.8,6.3-2.4,7.8-1.8,1.9-4.6,2.6-7.7,2.6s-3.9-.1-5.4-.4ZM942,588.1h9.5v8.5h-9.5v-8.5Z"/>
      <path class="st0" d="M962.9,588.1h10.1v19.9l19.2-19.9h12.6l-19.5,20,20.8,29.9h-11.9l-16.1-23.3-5.1,5.2v18.2h-10.1v-49.9Z"/>
      <path class="st0" d="M1024.5,621.7l-4.1,4.3v12.1h-9.4v-49.9h9.4v27.6l12.7-13.5h11.4l-13.2,13.6,14.8,22.2h-11.5l-10.1-16.3Z"/>
      <path class="st0" d="M1054.3,588.1h10.1v41.5h23.5v8.4h-33.6v-49.9Z"/>
      <path class="st0" d="M1093.5,588.1h9.5v49.9h-9.5v-49.9Z"/>
      <path class="st0" d="M1114.4,588.1h14.2l7.1,25.1c1.7,6.3,3.1,13.5,3.1,13.5h.1s1.3-7.2,3.1-13.5l7.1-25.1h14.5v49.9h-9.4v-28.6c0-4,.4-10.3.4-10.3h-.1s-1.1,5.9-2.2,9.5l-8.6,29.5h-9.7l-8.4-29.5c-1-3.6-2.2-9.5-2.2-9.5h-.1s.4,6.3.4,10.3v28.6h-9.3v-49.9Z"/>
      <path class="st0" d="M1172.6,602.2h9.1v4.8h.2c2-3.3,5.4-5.8,10.4-5.8s8.2,2.5,9.9,6.3h.1c2.4-3.9,6.2-6.3,10.8-6.3,7.5,0,11.8,4.9,11.8,12.7v24.1h-9.5v-22.5c0-4-2-6.1-5.5-6.1s-6.4,3.1-6.4,7.8v20.8h-9.5v-22.5c0-4-2-6.1-5.5-6.1s-6.4,3.1-6.4,7.8v20.8h-9.5v-35.8Z"/>
      <path class="st0" d="M167.4,665.8h10.3l16.6,27.9c1.6,2.7,3.5,7,3.5,7h.1s-.3-5.2-.3-8.7v-26.2h10v49.9h-9.8l-17-27.6c-1.6-2.7-3.6-6.9-3.6-6.9h-.1s.3,5.2.3,8.7v25.8h-10v-49.9Z"/>
      <path class="st0" d="M225.9,684.8h.2c2.4-3.8,5.7-5.9,10.6-5.9,7.4,0,12.4,5.6,12.4,13.4v23.4h-9.5v-22c0-3.8-2.2-6.6-6.2-6.6s-7.3,3.4-7.3,8.2v20.3h-9.5v-35.8h9.3v4.9Z"/>
      <path class="st0" d="M256.7,690.8c0-14.9,9.4-26,24.1-26s24,11.1,24,26-9.3,26-24,26-24.1-11-24.1-26ZM294.5,690.8c0-10-4.5-17.7-13.6-17.7s-13.8,7.7-13.8,17.7,4.7,17.7,13.8,17.7,13.6-7.7,13.6-17.7Z"/>
      <path class="st0" d="M309.7,697.8c0-10.7,7.6-18.9,18.7-18.9s18.7,8.2,18.7,18.9-7.6,18.9-18.7,18.9-18.7-8.2-18.7-18.9ZM337.5,697.8c0-7-3.3-11.7-9.1-11.7s-9.1,4.7-9.1,11.7,3.2,11.7,9.1,11.7,9.1-4.7,9.1-11.7Z"/>
      <path class="st0" d="M355.7,665.8h21.9c5.8,0,10.1,1.7,13.1,4.7,2.8,2.9,4.5,6.8,4.5,11.4,0,9.4-6.2,15.8-16.7,15.8h-12.3v18.1h-10.5v-49.9ZM366.2,689.4h10.5c5.3,0,8.1-2.9,8.1-7.5s-2.9-7.3-8-7.3h-10.6v14.8Z"/>
      <path class="st0" d="M400.6,679.9h9.1v4.5h.2c2.3-3.1,5.7-5.4,10.5-5.4,9.5,0,15.6,7.7,15.6,18.9s-6.3,18.9-15.5,18.9-8.3-2-10.3-5.1h-.1v15.8h-9.5v-47.5ZM426.4,698.1c0-6.8-2.4-11.5-8.2-11.5s-8.3,5.1-8.3,11.5,3,10.8,8.7,10.8,7.9-4,7.9-10.8Z"/>
      <path class="st0" d="M479.2,713.4c-3.6,2.2-7.9,3.4-12.8,3.4-14.7,0-23.9-11-23.9-26s9.2-26,23.9-26,23.9,11.1,23.9,26-2,12.8-5.4,17.4l5.3,4.7-5.2,5.7-5.8-5.2ZM472.3,707.2l-4.4-4,5.2-5.6,4.5,4.2c1.5-3,2.3-6.8,2.3-10.9,0-10-4.3-17.7-13.5-17.7s-13.7,7.7-13.7,17.7,4.5,17.7,13.7,17.7,4.2-.4,5.9-1.3Z"/>
      <path class="st0" d="M521.6,711.6h-.1c-1.7,2.9-5,5.1-9.8,5.1-8.7,0-15.5-7.3-15.5-18.9s6-18.9,15.5-18.9,7.9,2,10.1,5.4h.2v-4.5h9.1v47.5h-9.5v-15.8ZM521.8,698.1c0-6.5-2.3-11.7-8-11.7s-8,4.9-8,11.7,2.9,10.5,7.9,10.5,8.1-4,8.1-10.5Z"/>
      <path class="st0" d="M540,665.8h22.9c9.6,0,16.1,5.6,16.1,13.9s-2.7,10.3-9.1,12.1v.2c4.6,1.3,7,4,7.6,10.1.7,7.1.4,12.4,2.2,13.2v.5h-9.7c-1.3-.6-1.4-6.1-1.8-11.5-.4-5.4-3.5-8.5-9.8-8.5h-8.2v20h-10.1v-49.9ZM550.2,687.8h10.8c5.5,0,8.2-2.9,8.2-6.8s-2.6-7.1-8-7.1h-11v13.9Z"/>
      <path class="st0" d="M595.9,685.6h.2c2.2-4,4.6-6.1,8.8-6.1s1.7,0,2.2.3v8.3h-.2c-6.2-.6-10.7,2.7-10.7,10.2v17.5h-9.5v-35.8h9.1v5.7Z"/>
      <path class="st0" d="M612.5,700.3h9.9c.7,6,4.1,8.4,11.2,8.4s9.7-1.8,9.7-6.4-4.7-5.9-12.4-7.6c-8.9-2-17.1-4.4-17.1-14.8s8-14.9,19.1-14.9,18.5,5.5,19.3,15.6h-9.7c-.6-5-4.5-7.5-9.6-7.5s-9,2.3-9,5.9,3.5,5.2,10.9,6.8c10.3,2.2,18.6,4.7,18.6,15.4s-8.2,15.8-19.4,15.8-21.2-6-21.6-16.5Z"/>
      <path class="st0" d="M658.4,704.1h8.8c.6,4.1,3.6,5.9,7.8,5.9s6.6-1.6,6.6-4.1-4.5-3.8-9.4-4.7c-6.4-1.3-12.7-3-12.7-10.8s6.4-11.4,14.6-11.4,14.7,4.7,15.4,11.9h-8.6c-.4-3.8-2.9-5.2-6.9-5.2s-6.1,1.4-6.1,4,4.7,3.4,9.8,4.4c6,1.3,12.6,2.9,12.6,11.3s-6.1,11.5-15.1,11.5-16.2-5-16.8-12.6Z"/>
      <path class="st0" d="M688.5,665.8h40.1v8.5h-15v41.4h-10.1v-41.4h-15v-8.5Z"/>
      <path class="st0" d="M730.7,679.9h5v-11.2h9.3v11.2h6.1v6.3h-6.1v19c0,2.7,1.5,3.6,3.6,3.6s2.8,0,2.8,0v7s-2.2.1-5.9.1-9.7-1.8-9.7-8.6v-21h-5v-6.3Z"/>
      <path class="st0" d="M758.6,699.6v-33.9h10.1v33.9c0,5.2,2.6,8.8,9.4,8.8s9.4-3.8,9.4-8.9v-33.7h10.1v33.9c0,10.7-6.6,16.9-19.3,16.9s-19.7-6.1-19.7-16.9Z"/>
      <path class="st0" d="M829,715.7v-4.2h-.2c-2.4,3.3-5.2,5.2-10.3,5.2-8,0-12.4-5.1-12.4-12.9v-23.9h9.4v22.3c0,4.2,1.9,6.5,5.9,6.5s7.2-3.4,7.2-8.1v-20.7h9.5v35.8h-9.1Z"/>
      <path class="st0" d="M841.8,665.8h10.6l8.8,28.9c1,3.3,2.2,8,2.2,8h.1s1.2-4.7,2.2-8l8.7-28.9h10.3l-16.8,49.9h-9.2l-16.8-49.9Z"/>
      <path class="st0" d="M885.7,679.9h9.6l5.7,18.6c1,3.4,1.6,5.7,1.6,5.7h.1s.5-2.3,1.5-5.7l5.9-18.6h9.5l-12.5,35.8h-9.1l-12.4-35.8Z"/>
      <path class="st0" d="M923.3,665.8h10.3l6.5,24.8c1,4.3,2.2,10.9,2.2,10.9h.1s1.3-6.2,2.3-10.6l5.4-25.1h9.8l5.4,25c1,4.4,2.3,10.7,2.3,10.7h.1s1.5-6.6,2.4-11l6.3-24.7h10l-14.2,49.9h-9.4l-6.1-26.7c-.8-3.6-1.7-8.9-1.7-8.9h-.1s-.8,5.2-1.6,8.9l-6.1,26.7h-9.4l-14.5-49.9Z"/>
      <path class="st0" d="M988.2,679.9h9.4l4.3,16.6c.8,2.9,1.6,6.7,1.6,6.7h.1s.8-3.8,1.5-6.8l4.5-16.5h8.1l4.7,16.5c.8,3,1.7,6.8,1.7,6.8h.1s.8-3.8,1.6-6.7l4.5-16.6h9.2l-10.7,35.8h-8.7l-4.7-17.6c-.8-2.9-1.6-6.2-1.6-6.2h-.1s-.9,3.4-1.7,6.2l-4.9,17.6h-8.6l-10.5-35.8Z"/>
      <path class="st0" d="M1057.4,689.6l-14.9-23.8h11.4l9.2,15.8h.1l9.2-15.8h11l-14.7,23.7,16.5,26.2h-11.8l-10.2-18.2h-.1l-10.3,18.2h-11.6l16.1-26.1Z"/>
      <path class="st0" d="M1102.4,696.7l-11.7-16.8h10.8l6.4,10.3h.1l6-10.3h9.8l-11.1,16.8,12.8,19.1h-11.3l-6.6-11.9h-.1l-7.7,11.9h-10.4l13.1-19Z"/>
      <path class="st0" d="M1142.2,696.4l-16.6-30.6h11l7.5,14.8c1.5,3,3.3,7.1,3.3,7.1h.1s1.9-4.1,3.4-7.1l7.4-14.8h10.6l-16.6,30.6v19.3h-10.1v-19.3Z"/>
      <path class="st0" d="M1172.1,720h3.4c3.8,0,5.3-2,5.3-4.9s-.7-4.3-2.7-9.7l-9.6-25.5h10l5.3,16.1c1.1,3.3,2.3,7.8,2.3,7.8h.1s1-4.5,2.1-7.8l5-16.1h9.6l-12.5,36.7c-2.7,8-5.4,10.8-12.6,10.8h-5.6v-7.5Z"/>
      <path class="st0" d="M1204.3,708.1l27.2-33.6v-.2h-25.5v-8.4h37.5v8.4l-26.3,32.7v.2h26.8v8.6h-39.7v-7.6Z"/>
      <path class="st0" d="M1249.3,708.4l18.4-20.9v-.2h-16.3v-7.5h27.4v7.6l-18,20.4v.2h18.9v7.6h-30.4v-7.3Z"/>
      <path class="st0" d="M176.2,760h-10.8v-6.3c5.9-.2,11.1-2.4,12.1-8.5h8.3v48.2h-9.6v-33.4Z"/>
      <path class="st0" d="M205.1,774.4c6-4.7,12.6-8.1,12.6-14.2s-2.4-7.5-6.6-7.5-7.7,3.5-7.8,9.7h-8.9c0-10.9,5.6-17.8,17-17.8s16.3,7.1,16.3,15.3-6.1,13.3-12,17.2c-3.7,2.4-8,5.4-9.6,8.5h22.1v7.8h-34.3c.3-9.1,6.1-14.7,11.5-19Z"/>
      <path class="st0" d="M232.4,777.1h9.1c.3,5.7,2.9,9.7,9.4,9.7s8.4-2.9,8.4-7.7-2.9-7.4-8.8-7.4h-2.9v-7.2h2.7c4.5,0,7.7-2.3,7.7-6.4s-2.6-6.3-6.8-6.3-8.1,3.6-8.3,8.5h-9.1c.3-9.4,6.3-15.8,17.4-15.8s16.4,5,16.4,12.9-3.4,8.5-8.2,10.1h0c6.1,1.6,9.7,5.5,9.7,12.1,0,9.9-8.2,14.7-18,14.7s-18.7-6.8-18.8-17.3Z"/>
      <path class="st0" d="M296.5,783h-22.1v-10.3l21.7-27.7h9.6v30.4h7.3v7.6h-7.3v10.4h-9.3v-10.4ZM282.1,775.4h14.4v-18.6h-.1l-14.2,18.4v.2Z"/>
      <path class="st0" d="M317.6,779.6h9.4c.8,4.7,4.7,6.9,9.7,6.9s8.9-3.9,8.9-9-3.8-8.8-8.9-8.8-6.4,1.4-7.8,3h-9.1l4.6-26.1h28.2v7.9h-21.6l-1.8,10.3h.1c2.1-1.8,5.5-3,9.9-3,8.4,0,16.2,6.4,16.2,16.7s-8,17-18.5,17-18.4-5.6-19.3-14.9Z"/>
      <path class="st0" d="M360.7,770.2c0-8.4,1.6-15.3,5.9-20.1,3.1-3.5,7.3-5.5,13.8-5.5,9.6,0,15.3,5.2,16.5,12.4h-9.1c-.7-2.9-2.8-5.1-7-5.1-7,0-10.3,5.2-10.3,13.7h.1c2.5-2.9,5.7-5,11.2-5,8.9,0,16.6,6.9,16.6,17.1s-7.8,16.8-17.8,16.8-19.7-11.2-19.8-24.2ZM389.3,777.8c0-5.4-3.8-9.6-9-9.6s-9.3,4-9.3,9.5,3.8,9.2,9.2,9.2,9.1-4,9.1-9.1Z"/>
      <path class="st0" d="M425.9,753.9h0c0-.1-23.7-.1-23.7-.1v-8.2h34.1v7.8c-8.6,8.7-16.5,22.6-17.2,40h-10.3c.6-17.6,10-32,17.2-39.5Z"/>
      <path class="st0" d="M440,779.6c0-5.9,3.5-10.5,8.7-12.6v-.2c-4.3-2-6.7-4.9-6.7-9.5,0-8.1,7.1-12.7,17.4-12.7s17,4.5,17,12.6-2.5,7.6-6.6,9.6v.2c5.3,1.9,8.7,6.4,8.7,12.2,0,9.8-8.2,15.3-19,15.3s-19.5-5.2-19.5-14.9ZM468.7,779.2c0-4.9-3.4-8.1-9.3-8.1s-9.6,3.2-9.6,8.1,3.6,7.5,9.4,7.5,9.4-3,9.4-7.5ZM467.1,758.1c0-3.8-2.9-6.3-7.9-6.3s-8,2.5-8,6.3,2.9,6.4,8,6.4,7.9-2.7,7.9-6.4Z"/>
      <path class="st0" d="M485.3,781.9h9.2c.8,2.9,3,5.2,7.3,5.2s5.2-.9,6.9-3c1.9-2.4,2.9-6.3,3-11.2h-.1c-2.5,2.9-5.9,5.2-11.1,5.2-9.7,0-17.1-6.6-17.1-16.8s7.7-16.8,18-16.8,19.8,8,19.8,24.2-5.1,25.6-19.1,25.6-15.7-5.3-16.8-12.5ZM511.4,761.4c0-5.4-4.1-9.3-9.6-9.3s-9.4,4-9.4,9.1,3.5,9.3,9.4,9.3,9.6-3.6,9.6-9.1Z"/>
      <path class="st0" d="M527.3,769.5c0-15.3,7.9-25,20-25s19.9,9.6,19.9,25-7.5,25-20,25-20-9.8-20-25ZM557.3,769.5c0-10.1-2.9-16.9-10-16.9s-10.1,6.7-10.1,16.9,3,16.9,10.1,16.9,10-6.6,10-16.9Z"/>
      <path class="st0" d="M574.3,783.3h10.2v10.1h-10.2v-10.1ZM574.4,754.5v-11h9.9v11l-2.7,24.3h-4.6l-2.7-24.3Z"/>
      <path class="st0" d="M604.8,774.3c0-10.1,5.5-17.1,13.9-17.1s6.7,2,8,5.2h.1l.5-4.4h8.7l-2.4,19.1c-.5,3.6.2,5.6,3,5.6s6.8-3.7,6.8-13.1c0-13.9-9.1-20.7-22.1-20.7s-23.7,9.1-23.7,24.6,7.7,22.2,22,22.2,8.9-1,12.6-2.6l2,4.6c-4.3,2.2-9.3,3.2-14.5,3.2-16.5,0-28.3-10.9-28.3-27.4s14.7-30,30-30,27.9,9,27.9,25.9-5,18.4-13.3,18.4-8.4-1.8-9.8-5.5h-.2c-2.1,3.6-5.3,5.6-9.5,5.6-7.2,0-11.7-5.4-11.7-13.7ZM625.9,770.9c0-4-1.7-7.1-5.3-7.1s-6.7,4.5-6.7,10.2,1.5,7.1,5,7.1,7-4.3,7-10.3Z"/>
      <path class="st0" d="M658,757.6h6.7l1.9-12.1h6.5l-1.9,12.1h7.5l1.9-12.1h6.5l-1.9,12.1h6.8l-1.2,7.4h-6.8l-1.3,8.2h6.7l-1.2,7.4h-6.7l-2,12.8h-6.5l2-12.8h-7.5l-2,12.8h-6.5l2-12.8h-6.8l1.3-7.4h6.7l1.3-8.2h-6.8l1.3-7.4ZM668.7,773.2h7.5l1.3-8.2h-7.5l-1.3,8.2Z"/>
      <path class="st0" d="M714.5,794.2c-11.4-.7-17.8-6.3-18.1-15.7h9.5c.6,4.9,3.2,7.4,8.6,8v-13.3c-.1,0-.3,0-.3,0-8.5-2-16.4-4.3-16.4-14.2s7-13.8,16.8-14.3v-4.1h4.2v4.2c9.4.8,15.3,6,15.9,14.8h-9.3c-.5-3.9-3.1-6.2-6.6-6.9v12.1c.1,0,.3,0,.4,0,9,1.8,16.7,4.6,16.7,14.5s-7.2,14.6-17.1,15.1v5.9h-4.2v-6ZM714.5,763.7v-11.4c-4.4.4-7.1,2.4-7.1,5.5s2.2,4.6,7.1,5.9ZM718.7,774.2v12.2c4-.4,7.3-2.2,7.3-6.1s-2.7-5-7.3-6.1Z"/>
      <path class="st0" d="M740.3,758.5c0-8.5,5.2-14,12.3-14s12.2,5.4,12.2,14-5,13.9-12.2,13.9-12.3-5.4-12.3-13.9ZM757.4,758.5c0-5-1.6-8.7-4.8-8.7s-4.8,3.6-4.8,8.7,1.5,8.5,4.8,8.5,4.8-3.5,4.8-8.5ZM777.5,745.5h5.9l-24.5,47.9h-5.9l24.5-47.9ZM771.5,780.6c0-8.5,5.2-14,12.3-14s12.2,5.4,12.2,14-5,13.9-12.2,13.9-12.3-5.4-12.3-13.9ZM788.6,780.6c0-5-1.6-8.7-4.8-8.7s-4.8,3.6-4.8,8.7,1.5,8.5,4.8,8.5,4.8-3.5,4.8-8.5Z"/>
      <path class="st0" d="M800.9,780.6c0-7.1,4.5-11.6,11-14.9-2.9-3.5-4.2-6.3-4.2-10.3,0-6.5,5.2-11.5,12.9-11.5s13.1,4.6,13.1,11.4-3.6,9.2-8.9,12l6.6,8.6c1-2.5,1.7-5.4,2-8.1h8.4c-.4,5.6-2,11-4.7,15.4l7.9,10.2h-11.6l-2.6-3.3c-3.7,2.7-8.2,4.3-13.3,4.3-11,0-16.6-6.1-16.6-13.9ZM825.8,783.7l-9.1-11.9c-4.3,2.6-5.7,5.4-5.7,8.5s3,6.4,6.9,6.4,5.7-1,8-2.9ZM820.5,761.9c3.3-2,4.2-4.1,4.2-6.5s-1.8-4-3.9-4-3.9,1.7-3.9,4,1.5,4.4,3.6,6.4Z"/>
      <path class="st0" d="M847.2,763l4.7-6.4-7.5-2.4,1.9-4.8,7.3,2.4v-8.2h5.4v8.2l7.2-2.4,1.9,4.8-7.4,2.4,4.7,6.4-4.3,3.1-4.7-6.8-4.7,6.8-4.3-3.1Z"/>
    </g>
    <text class="st2" transform="translate(158.9 323.1)"><tspan x="0" y="0">Neue Haas </tspan><tspan x="0" y="168.2">Grotesk Medium</tspan></text>
    <g>
      <path class="st0" d="M181.4,1402.1h12.7l18,49.9h-13l-2.9-9h-17.5l-2.9,9h-12.4l17.9-49.9ZM193.3,1434.1l-3.8-12.1c-.8-2.6-2-7.1-2-7.1h-.1s-1.2,4.5-2,7.1l-3.8,12.1h11.7Z"/>
      <path class="st0" d="M214.7,1442c0-7.9,6.3-10.3,13.7-11.2,6.7-.8,9.1-1.5,9.1-4s-1.5-3.8-4.9-3.8-5.4,1.6-5.8,4.6h-10.5c.3-6.6,5.4-12.3,16.2-12.3s9,1,11.6,2.9c3.1,2.2,4.5,5.7,4.5,10.2v18c0,2.9.3,4.5,1.3,5.1v.5h-11c-.6-.8-.9-2.2-1.2-4h-.1c-2.1,3-5.2,4.9-10.6,4.9s-12.2-3.8-12.2-10.9ZM237.7,1439.2v-4.3c-1.5.8-3.6,1.3-5.9,1.9-4.4,1-6.2,2.1-6.2,4.8s2.1,4,4.9,4c4.3,0,7.2-2.6,7.2-6.4Z"/>
      <path class="st0" d="M258.3,1402.1h24.1c5.2,0,9,1.3,11.7,3.4,2.9,2.4,4.3,5.6,4.3,9.6s-2.6,8.1-7,9.8v.2c5.4,1.7,8.9,6.3,8.9,12.2s-1.8,8.7-5.1,11.2c-2.9,2.3-7.1,3.6-12.3,3.6h-24.6v-49.9ZM280.6,1421.8c3.6,0,6-1.7,6-5s-2.3-5-5.9-5h-10.1v10h10.1ZM281.5,1442.1c4,0,6.6-2.3,6.6-5.9s-2.9-6-6.7-6h-10.9v11.9h11Z"/>
      <path class="st0" d="M317.8,1447.4h-.1v4.5h-10.9v-49.9h11.4v18.2h.2c2.2-3.1,5.3-5.1,10.2-5.1,9.3,0,15.3,8.2,15.3,18.9s-6,19-15.2,19-8.6-2-10.8-5.7ZM332.3,1434c0-6.1-2.4-10.2-7.1-10.2s-7.5,4.4-7.5,10.3,2.9,10,7.6,10,6.9-3.8,6.9-10.1Z"/>
      <path class="st0" d="M349.8,1427.2c0-14.9,9.7-26.1,24.6-26.1s10.7,1.7,14.2,4.4c4.3,3.3,6.8,8.2,7.5,13.8h-12.4c-.6-4.5-4.1-7.9-9.4-7.9-8.1,0-11.9,6.8-11.9,15.8s4.6,15.8,12,15.8,9.1-3.5,9.7-8.3h12.4c-.3,5-2.6,9.5-6,12.8-3.8,3.7-8.9,5.7-16,5.7-14.7,0-24.6-11-24.6-25.9Z"/>
      <path class="st0" d="M400.6,1434.2c0-10.8,7.4-18.9,18.7-18.9s15.9,5.7,17,13.7h-11c-.7-3.2-2.7-5.3-5.9-5.3-4.9,0-7.3,4-7.3,10.5s2.4,10.4,7.3,10.4,5.7-2.1,6.2-6.1h10.9c-.3,8.2-6.8,14.7-17,14.7s-19-8.2-19-18.9Z"/>
      <path class="st0" d="M444.4,1402.1h21.3c13.8,0,23.1,10,23.1,25.3s-3.1,15.8-8.7,20.1c-3.9,2.9-8.9,4.5-15.2,4.5h-20.5v-49.9ZM464.1,1441.6c8.1,0,12.3-5.1,12.3-14.2s-4.4-14.9-12.1-14.9h-7.4v29.2h7.3Z"/>
      <path class="st0" d="M493.6,1434.1c0-11.2,6.4-18.9,15.6-18.9s7.9,2.1,10,5.1h.2v-18.2h11.4v49.9h-10.9v-4.8h-.1c-2.2,3.7-5.9,5.9-10.5,5.9-9.1,0-15.6-7.1-15.6-19ZM519.8,1434.1c0-6-2.4-10.3-7.4-10.3s-7.2,4.2-7.2,10.2,2.7,10.1,7.1,10.1,7.5-4.1,7.5-10Z"/>
      <path class="st0" d="M540.3,1402.1h37.8v10.2h-25.5v8.9h21.9v9.6h-21.9v10.7h25.9v10.5h-38.3v-49.9Z"/>
      <path class="st0" d="M582.9,1434c0-10.7,7.5-18.8,18.4-18.8s9.1,1.7,12.2,4.5c4.3,3.9,6.4,10.1,6.3,17.4h-25.7c.7,4.8,3.4,7.8,8,7.8s5-1.3,5.9-3.6h11.1c-.8,3.2-2.9,6.3-6,8.4-3,2.1-6.6,3.3-11.2,3.3-11.8,0-19.1-8.2-19.1-19ZM608.2,1430.3c-.4-4.3-3.1-7-6.8-7s-6.6,2.7-7.3,7h14.1Z"/>
      <path class="st0" d="M627.6,1402.1h37.1v10.4h-24.8v10.1h20.7v10h-20.7v19.4h-12.4v-49.9Z"/>
      <path class="st0" d="M672,1423.5h-4.6v-7.3h4.6v-2.6c0-3.7,1-6.4,2.9-8.3,3.1-3,9-3.7,15.1-3.1v8c-4.3-.1-6.7.2-6.7,4.2v1.7h6.7v7.3h-6.7v28.5h-11.4v-28.5Z"/>
      <path class="st0" d="M703.3,1446.1c-4.3-4.7-6.7-11.3-6.7-18.9s2.7-14.7,7.4-19.5c4.1-4.2,9.9-6.6,17.1-6.6,12.8,0,20.5,6.8,22.1,17.3h-12c-.9-4-4.3-7.1-9.7-7.1-8.2,0-12.4,6.8-12.4,15.9s4.7,15.9,12.6,15.9,10.3-4.3,10.8-8.7h0c0-.1-9.4-.1-9.4-.1v-9.1h20.8v26.8h-8.7l-.7-6h-.1c-3.3,5.1-8.2,7.1-14.2,7.1s-12.9-2.5-17-7Z"/>
      <path class="st0" d="M751,1452.8h11c.6,1.9,2.5,3.5,6.3,3.5s6.8-2.5,6.8-6.8v-3.6h-.3c-2.1,2.4-4.8,4.1-9.1,4.1-8,0-15.5-6-15.5-17s6.1-17.9,15-17.9,8,1.9,10.1,4.9h.1v-3.8h10.9v32.3c0,5.4-1.9,9.3-4.7,11.9-3.1,2.8-7.8,4-13.1,4-9.8,0-16.3-4-17.5-11.5ZM775.7,1432.6c0-4.8-2.5-8.9-7.3-8.9s-7.1,3.5-7.1,8.9,2.8,8.9,7.1,8.9,7.3-3.9,7.3-8.9Z"/>
      <path class="st0" d="M794.8,1402.1h12.4v18.9h17.5v-18.9h12.4v49.9h-12.4v-20.8h-17.5v20.8h-12.4v-49.9Z"/>
      <path class="st0" d="M845.5,1402.1h11.4v18.6h.2c2.6-3.4,5.7-5.4,10.6-5.4,7.8,0,12.4,5.6,12.4,13.5v23.2h-11.4v-20.9c0-3.8-1.9-6.4-5.6-6.4s-6.3,3.1-6.3,7.5v19.8h-11.4v-49.9Z"/>
      <path class="st0" d="M889.3,1402.1h12.4v49.9h-12.4v-49.9Z"/>
      <path class="st0" d="M910,1402.1h11.4v9.2h-11.4v-9.2ZM910,1416.2h11.4v35.7h-11.4v-35.7Z"/>
      <path class="st0" d="M927.2,1437v-4.4h11.2v4.1c0,4.3,2,6,5.4,6s5.2-2.2,5.2-5.9v-34.8h12.4v35c0,4.5-1.1,8.1-3.6,10.8-2.8,3.1-7.3,5-13.2,5-11.8,0-17.5-6.4-17.5-15.9Z"/>
      <path class="st0" d="M963.2,1463.4v-7.9c4,0,6,0,6-3.8v-35.5h11.4v36c0,4.7-1,7.2-2.7,8.9-2,2-4.8,2.8-8.2,2.8s-4.7-.2-6.4-.6ZM969.2,1402.1h11.4v9.2h-11.4v-9.2Z"/>
      <path class="st0" d="M991.3,1402.1h12.4v18.1l17.2-18.1h14.7l-19.1,20,20.2,29.9h-14.4l-14.4-21.6-4.2,4.4v17.2h-12.4v-49.9Z"/>
      <path class="st0" d="M1041.1,1402.1h11.2v26.2l10.6-12.1h13.1l-12.6,13.4,14,22.3h-13.2l-8.6-14.6-3.4,3.6v11h-11.2v-49.9Z"/>
      <path class="st0" d="M1085.2,1402.1h12.4v39.4h22.4v10.5h-34.8v-49.9Z"/>
      <path class="st0" d="M1125.2,1402.1h11.5v49.9h-11.5v-49.9Z"/>
      <path class="st0" d="M1147.4,1402.1h16.6l6.1,21.8c.9,3.1,2.9,11.4,2.9,11.4h.1s2-8.2,2.8-11.4l6.1-21.8h16.8v49.9h-11.3v-25.1c0-2,.2-10,.2-10h-.1s-1.7,7.5-2.3,9.3l-7.2,25.8h-10.2l-7.1-25.8c-.6-1.8-2.3-9.4-2.3-9.4h-.1s.2,8,.2,10.1v25.1h-11.1v-49.9Z"/>
      <path class="st0" d="M1207.3,1416.2h10.9v5.1h.2c2.2-3.7,5.7-6.1,10.8-6.1s8.2,2.4,10.1,6.3h.1c2.8-4.3,6.6-6.3,11.2-6.3,8.1,0,12.1,5.5,12.1,13.5v23.2h-11.4v-21.2c0-3.8-1.6-6.1-5-6.1s-5.7,3-5.7,7.3v20h-11.4v-21.2c0-3.8-1.6-6.1-5-6.1s-5.7,3-5.7,7.3v20h-11.4v-35.7Z"/>
      <path class="st0" d="M166.9,1479.8h12.4l14.8,25.1c.8,1.4,3.4,6.4,3.4,6.4h.1s-.1-6-.1-7.7v-23.7h12.1v49.9h-12.4l-14.7-24.7c-.8-1.3-3.6-6.7-3.6-6.7h-.1s.1,6.4.1,8.2v23.2h-12.1v-49.9Z"/>
      <path class="st0" d="M218.1,1493.9h11v4.9h.2c2.7-3.8,6.1-5.9,11-5.9,7.8,0,12.4,5.6,12.4,13.5v23.2h-11.4v-20.9c0-3.8-1.9-6.4-5.6-6.4s-6.3,3.1-6.3,7.5v19.8h-11.4v-35.7Z"/>
      <path class="st0" d="M259.8,1504.8c0-14.9,9.6-26,24.6-26s24.7,11.1,24.7,26-9.6,26-24.7,26-24.6-11.1-24.6-26ZM296.6,1504.8c0-9.1-4-16.1-12.1-16.1s-12.1,7-12.1,16.1,4.1,16,12.1,16,12.1-6.9,12.1-16Z"/>
      <path class="st0" d="M313.6,1511.9c0-10.8,7.7-18.9,19.1-18.9s19.1,8.2,19.1,18.9-7.5,18.9-19.1,18.9-19.1-8.2-19.1-18.9ZM340.3,1511.9c0-6.5-2.7-10.9-7.6-10.9s-7.5,4.4-7.5,10.9,2.6,10.8,7.5,10.8,7.6-4.3,7.6-10.8Z"/>
      <path class="st0" d="M359.8,1479.8h22.5c6.1,0,10.5,1.7,13.6,4.6,3.2,3,5,7.3,5,12.3,0,9.6-6.6,16.3-16.9,16.3h-11.7v16.7h-12.6v-49.9ZM381.5,1503.2c4.5,0,7-2.7,7-6.6s-2.6-6.4-7-6.4h-9.1v13.1h9.1Z"/>
      <path class="st0" d="M405.8,1493.9h10.9v4.3h.2c2.4-3.2,5.9-5.4,10.8-5.4,9.5,0,15.3,8.2,15.3,18.9s-6.2,19-15.6,19-7.9-1.8-10.1-4.8h-.1v15.5h-11.4v-47.5ZM431.5,1512.2c0-6.1-2.3-10.2-7.2-10.2s-7.5,4.4-7.5,10.2,2.8,9.8,7.7,9.8,7-3.7,7-9.8Z"/>
      <path class="st0" d="M486.1,1527.7c-3.6,2-7.7,3.1-12.6,3.1-15.1,0-24.6-11.1-24.6-26s9.5-26,24.6-26,24.6,11.1,24.6,26-2,13-5.7,17.5l5.7,5.3-5.7,6.1-6.3-6ZM478.1,1520l-4.5-4.4,5.7-5.9,4.6,4.4c1.2-2.6,1.7-5.7,1.7-9.2,0-9.1-3.9-16.1-12-16.1s-12.1,7-12.1,16.1,4,16,12.1,16,3.1-.3,4.5-.8Z"/>
      <path class="st0" d="M529.1,1525.9h-.2c-2,2.9-5.3,4.9-9.9,4.9-9,0-15.5-7.4-15.5-19s5.7-18.9,15.7-18.9,7.9,2,10.2,5.6h.2v-4.5h10.8v47.5h-11.3v-15.6ZM529.4,1512.1c0-5.8-2.5-10.3-7.4-10.3s-7.1,4.2-7.1,10.3,2.6,9.7,7.1,9.7,7.4-3.8,7.4-9.7Z"/>
      <path class="st0" d="M548.8,1479.8h23.9c9.9,0,17.5,5.1,17.5,14.4s-2.9,10.1-8.7,12.1v.2c4.3,1.5,6.6,4.2,7.3,9.1,1,6.6.3,12.8,2.1,13.5v.6h-12c-1.3-.8-1.1-6.6-1.9-11.6-.6-4.6-3-7.1-8.3-7.1h-7.5v18.7h-12.4v-49.9ZM570.5,1501.8c4.9,0,7.4-2.3,7.4-6.1s-2.4-6.2-7.1-6.2h-9.6v12.3h9.3Z"/>
      <path class="st0" d="M597.3,1493.9h10.9v5.6h.2c2.5-4.3,5.4-6.1,9.8-6.1s1.7,0,2.2.3v9.8h-.3c-7-1-11.4,2.4-11.4,10.2v16.1h-11.4v-35.7Z"/>
      <path class="st0" d="M625.1,1514h12.4c.6,5,3.8,7.1,9.8,7.1s8-1.5,8-5.2-4-4.8-10.9-6.5c-8.7-2-17.8-4.7-17.8-15.1s8.7-15.4,19.8-15.4,19.2,4.9,19.7,15.4h-12.1c-.5-3.8-3.4-6-8-6s-7.2,1.9-7.2,4.7,3.8,4.3,11.3,6c9.3,2.2,17.7,5,17.7,15.7s-8.9,16.3-20.5,16.3-22-5.9-22.3-16.9Z"/>
      <path class="st0" d="M672,1518.1h10.8c.4,3.6,2.8,5.3,6.6,5.3s5.6-1.3,5.6-3.6-4.3-3.6-9.1-4.4c-6.2-1-12.8-2.7-12.8-11.1s7-11.4,15.4-11.4,15.6,4.4,16.1,11.4h-10.5c-.4-3.2-2.6-4.2-5.7-4.2s-5,1-5,3.3,4,2.9,8.6,3.7c6.3,1,13.7,2.7,13.7,11.8s-6.9,11.9-16.3,11.9-17-4.8-17.4-12.7Z"/>
      <path class="st0" d="M718.2,1490.2h-14.5v-10.5h41.5v10.5h-14.7v39.4h-12.4v-39.4Z"/>
      <path class="st0" d="M752.7,1520.3v-19.2h-4.7v-7.1h4.7v-11.3h11.1v11.3h6.5v7.1h-6.5v16.8c0,2.8,1.5,3.5,4,3.5s2.1,0,2.5,0v8.3c-1,.3-3.1.6-6.2.6-6.6,0-11.4-2.2-11.4-9.8Z"/>
      <path class="st0" d="M777,1512.1v-32.3h12.4v32.7c0,4.9,2.5,8.2,8.6,8.2s8.4-3.5,8.4-8.4v-32.5h12.4v32.3c0,11.5-6.9,18.5-20.8,18.5s-20.9-6.8-20.9-18.5Z"/>
      <path class="st0" d="M826.6,1517.4v-23.5h11.3v21.1c0,3.9,1.7,6.1,5.4,6.1s6.3-2.9,6.3-7.2v-20h11.4v35.7h-10.9v-4.4h-.2c-2.6,3.5-5.7,5.4-10.7,5.4-8.2,0-12.6-5.4-12.6-13.3Z"/>
      <path class="st0" d="M864,1479.8h12.8l7.8,26.2c1.1,3.8,2.3,8.8,2.3,8.8h.1s1.3-5.1,2.3-8.8l7.7-26.2h12.5l-16.4,49.9h-12.8l-16.5-49.9Z"/>
      <path class="st0" d="M910.3,1493.9h11.7l4.9,16.1c1,3.6,2,7.2,2,7.2h.1s.9-3.6,2-7.2l5-16.1h11.4l-12.4,35.7h-12.3l-12.4-35.7Z"/>
      <path class="st0" d="M950.2,1479.8h12.5l5,20.9c1.1,4.8,2.3,12.4,2.3,12.4h.1s1.3-6.8,2.4-11.9l4.7-21.4h11.4l4.7,21.3c1.1,5.1,2.4,12,2.4,12h.1s1.4-7.5,2.5-12.5l5-20.8h12.4l-13.7,49.9h-12.1l-5.2-23.9c-.9-4-1.7-9.3-1.7-9.3h-.1s-.8,5.3-1.7,9.3l-5.2,23.9h-12.1l-13.7-49.9Z"/>
      <path class="st0" d="M1017.1,1493.9h11.6l3.9,14.8c.8,2.9,1.6,6.9,1.6,6.9h.1s.8-4.1,1.6-7.1l3.8-14.6h9.6l3.9,14.6c.8,3.1,1.7,7.2,1.7,7.2h.1s.9-4.1,1.7-7l4-14.8h11.2l-11,35.7h-10.7l-4.2-16.2c-.8-2.8-1.5-6.4-1.5-6.4h-.1s-.8,3.6-1.6,6.4l-4.3,16.2h-10.5l-11-35.7Z"/>
      <path class="st0" d="M1089.4,1503.5l-15.1-23.7h14.1l8.4,14.5h.1l8.6-14.5h13.4l-14.8,23.6,16.5,26.3h-14.6l-9.4-16.9h-.1l-9.7,16.9h-14l16.5-26.2Z"/>
      <path class="st0" d="M1136.7,1510.9l-11.2-17h13l5.3,9.2h.1l5-9.2h11.9l-10.6,16.8,12.1,18.9h-13.2l-5.9-10.7h-.1l-6.5,10.7h-12.4l12.4-18.8Z"/>
      <path class="st0" d="M1179,1511.3l-16.9-31.5h13.5l6.4,12.9c1.7,3.4,3.3,7.6,3.3,7.6h.1s1.7-4.2,3.4-7.6l6.4-12.9h13.1l-16.9,31.5v18.4h-12.4v-18.4Z"/>
      <path class="st0" d="M1211.6,1532.6h3.9c3.4,0,4.7-1.3,4.7-3.8s-.7-3.6-2.2-7.4l-10.5-27.5h12l4.8,15.2c1.1,3.5,2.2,8.2,2.2,8.2h.1s1-4.7,2.1-8.2l4.7-15.2h11.4l-12.4,36.2c-2.9,8.4-6.3,11.3-13.5,11.3h-7.4v-8.9Z"/>
      <path class="st0" d="M1245.8,1519.8l21.6-25.8c.8-1,3.4-3.7,3.4-3.7v-.2s-3.6.1-4.7.1h-18.4v-10.5h38.9v9.7l-20.9,25.1c-1.2,1.3-4,4.5-4,4.5v.2s4-.1,5.5-.1h20.4v10.5h-41.5v-9.8Z"/>
      <path class="st0" d="M1292.3,1521.2l14.2-15.3c.9-.9,3.1-3.1,3.1-3.1v-.2s-3.3,0-4.4,0h-11.2v-8.7h29.3v8.3l-13.5,14.7c-1,1-3.6,3.7-3.6,3.7v.2s3.7,0,5.3,0h12.9v8.8h-32v-8.4Z"/>
      <path class="st0" d="M175.6,1576.8h-10.3v-8c6.4-.2,11.5-3.2,12.7-9.7h9.4v48.2h-11.8v-30.6Z"/>
      <path class="st0" d="M203.1,1590.8c4.3-3.7,9.9-7.2,13.7-10.5,2-1.7,3.1-3.6,3.1-5.9,0-3.7-2.2-6.2-6.2-6.2s-4,.7-5.2,2.2c-1.4,1.6-2.1,3.8-2.2,7.1h-11c0-5.6,1-9,3.3-12.1,2.7-3.9,7.9-6.6,15.4-6.6,11.5,0,17.7,6.8,17.7,15.3s-3.7,10.5-8,13.8c-4.3,3.5-9.4,6.4-12.8,10h0c0,0,20.8,0,20.8,0v9.7h-37.1c.1-8,3.7-12.6,8.4-16.6Z"/>
      <path class="st0" d="M241.5,1603.9c-3.5-3.1-5.3-7.5-5.3-13.1h11.1c.3,5.1,2.8,8.7,8.8,8.7s7.5-2.7,7.5-6.6-2.9-6.3-8.2-6.3h-2.9v-8.2h2.6c4.5,0,7.4-2,7.4-5.6s-2.3-5.4-6.3-5.4-7.3,3.2-7.6,7.3h-11c.2-9.5,6.8-16.1,18.7-16.1s17.7,5,17.7,13.5-3,7.9-7.3,9.6h0c5.2,1.7,8.7,5.4,8.7,11.9,0,10.3-8.9,15-18.9,15s-11.7-1.6-15.1-4.6Z"/>
      <path class="st0" d="M302.5,1596.8h-22.3v-10.8l22.1-26.9h11.6v28.8h6.9v8.9h-6.9v10.6h-11.4v-10.6ZM302.5,1587.8v-16.4h-.1l-13.3,16.3h0c0,.1,13.4.1,13.4.1Z"/>
      <path class="st0" d="M325.2,1593.1h11.5c.8,4,4.2,6.1,8.4,6.1s7.7-3.4,7.7-8.2-3.2-7.9-7.8-7.9-5.6,1.3-6.8,2.9h-11l4.9-26.5h29.7v9.4h-21.2l-1.7,8.5h.1c1.7-1.6,5-2.9,9.3-2.9,9.1,0,16.5,6.3,16.5,16.4s-7.9,17.5-19.3,17.5-19.1-5.2-20.2-15.4Z"/>
      <path class="st0" d="M369.7,1583.9c0-7.8,1.7-14.5,5.8-19.1,3.4-3.9,8.3-6.1,15.1-6.1,9.9,0,16.2,5,17.7,12.8h-11.2c-.7-2.4-2.4-4.4-6.3-4.4-5.9,0-9.1,4.4-9.4,12.1h.1c2.6-2.7,5.8-4.5,11-4.5,9.2,0,17.2,6.7,17.2,17s-8,17-19,17-20.9-10.4-21-24.6ZM398.5,1591.5c0-4.7-3.4-8.4-8.2-8.4s-8.3,3.6-8.3,8.4,3.4,8.2,8.3,8.2,8.2-3.5,8.2-8.2Z"/>
      <path class="st0" d="M436.4,1569.7h0c0-.1-23-.1-23-.1v-10h35.4v9.1c-8.4,8.4-16,22.3-16.5,38.7h-12.3c.6-17.4,9.6-30.8,16.4-37.7Z"/>
      <path class="st0" d="M452.2,1593.7c0-5.4,3.1-9.7,8.3-11.9v-.2c-4.2-2-6.4-5.2-6.4-9.6,0-8,7-13.3,18-13.3s17.9,5,17.9,13.1-2.4,7.5-6.3,9.6v.2c5.3,2,8.3,6.4,8.3,11.9,0,9.4-8.1,15.1-19.9,15.1s-20-5.7-20-14.8ZM480.4,1592.9c0-4.3-3.1-7.1-8.2-7.1s-8.4,2.9-8.4,7.1,3.4,6.8,8.3,6.8,8.2-2.7,8.2-6.8ZM479.2,1572.5c0-3.4-2.7-5.8-7.1-5.8s-7.1,2.4-7.1,5.8,2.7,5.9,7.1,5.9,7.1-2.4,7.1-5.9Z"/>
      <path class="st0" d="M498,1595.5h11.2c.7,2.4,2.7,4.5,6.7,4.5s4.7-.8,6.2-2.7c1.7-2,2.6-5.2,2.7-9.5h-.1c-2.4,2.7-5.7,4.7-10.7,4.7-9.6,0-17.5-6.6-17.5-16.9s8.1-17,19.3-17,11,2,14.4,5.4c4.3,4.1,6.3,10.5,6.3,19.2s-1.5,14.1-5,18.6c-3.4,4.4-8.4,6.8-15.4,6.8-10.3,0-16.8-5.3-18.2-13ZM524.6,1575.6c0-4.8-3.6-8.3-8.5-8.3s-8.4,3.6-8.4,8.2,3.2,8.3,8.4,8.3,8.5-3.4,8.5-8.2Z"/>
      <path class="st0" d="M541.7,1583.5c0-15.2,8.6-25,21.2-25s21.2,9.8,21.2,25-8.5,25-21.2,25-21.1-9.8-21.1-25ZM571.9,1583.5c0-9.3-2.6-15.8-9-15.8s-9.1,6.5-9.1,15.8,2.7,15.8,9.1,15.8,9-6.4,9-15.8Z"/>
      <path class="st0" d="M590.4,1595.7h11.9v11.7h-11.9v-11.7ZM590.4,1569.3v-11.8h11.7v11.8l-2.9,21.8h-5.9l-2.9-21.8Z"/>
      <path class="st0" d="M608.7,1587.6c0-19.4,15-30.1,30.6-30.1s28.3,9.3,28.3,26.2-5.9,18.2-14.2,18.2-8.7-1.8-10.3-5.7h-.1c-2,3.4-5.2,5.4-9.3,5.4-7.1,0-11.4-5.3-11.4-13.7s5.2-16.8,13.6-16.8,6.4,1.9,7.7,5h.1l.5-4.3h9.6l-2.2,18.9c-.4,3.3.3,5,2.7,5s6.5-3.1,6.5-12.1c0-13.7-8.9-20.3-21.6-20.3s-23.5,8.8-23.5,24,7.7,21.5,21.8,21.5,8.7-1,12.4-2.6l2.2,5.5c-4.5,2.1-9.5,3-14.7,3-16.5,0-28.8-10.8-28.8-27.4ZM642.9,1585c0-3.6-1.6-6.4-4.5-6.4s-5.9,4-5.9,9.1,1.3,6.4,4.3,6.4,6.1-3.8,6.1-9.1Z"/>
      <path class="st0" d="M678.5,1595.3h-6.5l1.5-8.8h6.4l1.1-7h-6.5l1.5-8.8h6.4l1.9-11.2h7.3l-1.9,11.2h7.2l1.9-11.2h7.3l-1.9,11.2h6.6l-1.5,8.8h-6.5l-1.1,7h6.4l-1.5,8.8h-6.4l-2,12.1h-7.3l2-12.1h-7.2l-2,12.1h-7.3l2-12.1ZM694.4,1586.5l1.1-7h-7.2l-1.1,7h7.2Z"/>
      <path class="st0" d="M733.1,1608.3c-11.5-.7-18.3-6.4-18.5-16.3h11.6c.5,4.3,2.7,6.5,6.9,7.1v-11.3c-9.5-2.4-17.2-4.7-17.2-15.1s7.4-13.7,17.2-14.1v-4.3h4.3v4.3c9.8.7,16,5.6,16.5,14.9h-11c-.5-3.4-2.4-5.2-5.5-5.9v10.2c10.6,2.4,17.5,5.8,17.5,15.4s-7.5,14.7-17.5,15.1v6.2h-4.3v-6.3ZM733.1,1567.5c-3.7.3-5.7,2.1-5.7,4.5s1.7,3.6,5.7,4.7v-9.2ZM743.2,1594.1c0-2.9-2-4-5.9-5.1v10.1c3.2-.4,5.9-2,5.9-5Z"/>
      <path class="st0" d="M759.3,1572.5c0-8.5,5.4-14,12.8-14s12.8,5.5,12.8,14-5.4,14-12.8,14-12.8-5.5-12.8-14ZM776.2,1572.5c0-4.7-1.3-8.1-4.2-8.1s-4.2,3.4-4.2,8.1,1.3,7.9,4.2,7.9,4.2-3.2,4.2-7.9ZM797.8,1559.5h6.6l-25.8,47.9h-6.5l25.8-47.9ZM791.5,1594.5c0-8.4,5.4-14,12.8-14s12.8,5.4,12.8,14-5.4,14-12.8,14-12.8-5.5-12.8-14ZM808.5,1594.5c0-4.6-1.3-8-4.2-8s-4.2,3.4-4.2,8,1.2,8,4.2,8,4.2-3.3,4.2-8Z"/>
      <path class="st0" d="M821.9,1593.6c0-7.6,4.9-11.7,11-14.6-2.4-2.9-3.8-5.8-3.8-9.6,0-6.9,5.4-12.1,14-12.1s14.1,4.6,14.1,12-4.1,9.5-9.2,11.9l6,7.5c.8-2,1.5-4.2,1.9-6.3h9.8c-.5,4.8-2.4,9.8-5.4,14.2l8.6,10.8h-13.9l-2.4-3.1c-3.8,2.4-8.2,4-12.9,4-11.6,0-17.7-6.4-17.7-14.7ZM846.9,1596.9l-8.4-11c-3.5,2.1-4.7,4.5-4.7,7.3s2.7,5.8,6.4,5.8,4.7-.8,6.8-2.2ZM847.1,1569.3c0-2.2-1.5-3.8-3.7-3.8s-3.8,1.6-3.8,3.8,1.5,4.3,3.5,6c2.9-1.7,4-3.7,4-6Z"/>
      <path class="st0" d="M871.9,1579l5.2-6.8-8.2-2.7,2.2-5.8,7.7,2.7v-8.9h6.6v8.9l7.7-2.7,2.2,5.8-8.2,2.7,5.2,6.8-5,3.8-5.2-7.3-5.2,7.3-5.2-3.8Z"/>
    </g>
    <text class="st1" transform="translate(158.8713 1137.108)"><tspan x="0" y="0">Neue Haas </tspan><tspan x="0" y="168.2">Grotesk Bold</tspan></text>
    <line class="st3" x1="94.7" y1="100.4" x2="2753.9" y2="100.4"/>
    <line class="st3" x1="94.7" y1="940.5" x2="2753.9" y2="940.5"/>
  </g>
</svg>