<?xml version="1.0" encoding="UTF-8"?>
<svg id="Layer_1" xmlns="http://www.w3.org/2000/svg" version="1.1" viewBox="0 0 3000 2000">
  <!-- Generator: Adobe Illustrator 30.4.0, SVG Export Plug-In . SVG Version: 2.1.4 Build 226)  -->
  <defs>
    <style>
      .st0 {
        fill: #9f3b34;
      }

      .st1 {
        fill: #e5ecd4;
      }
    </style>
  </defs>
  <rect class="st0" x="-1" y="-1" width="3002" height="2002"/>
  <g>
    <g>
      <path class="st1" d="M1060.5,1170.5c-7,17.4-16.3,33.9-28.2,48.3-2.8,3.4-5.8,6.7-9,9.8-14.8,14.3-37.4,26.6-57.1,14.5-11.7-7.2-14.7-20.3-14.3-33.7l-20,28.2c-14,21.1-44.8,46.8-70.7,30.7-20.1-12.4-14.6-42.1-10.1-61.3,2.8-12,8.7-23.6,9.8-32.6.3-2,0-3.7-1-5.4-.9-.6-5.6,0-11.1,1-9,1.7-16.8-6.6-14.4-15.5l.2-.9c4.8-16.6,17.8-29.5,34.5-33.6,12.9-3.2,25.9-4.7,34.3,3.8,17,17.3-14.1,67.6-5.1,76.7,15.9,6.9,27.1-16.6,31.9-28.4,9.8-23.8,7-63.2,34.1-73,16.4-5.9,26.8-.5,29.2,12.4,0,.2,0,.4.1.6.2,1.2.4,2.4.5,3.8,0,.5,0,1,0,1.4v1.5c0,.5,0,1,0,1.6-.7,21.9-17,52.5-10.1,59.4,15.9,7,27.1-16.5,31.9-28.4,9.8-23.8,7-63.2,34.1-72.9,4.6-1.7,8.7-2.5,12.4-2.4.6,0,1.2,0,1.7.1,11.6.9,17.4,10.8,15.5,26.6-1.5,12.8-5.4,25.6-9,37.9-1.7,6-3.5,11.9-5.3,17.9l-4.8,11.8Z"/>
      <g>
        <path class="st1" d="M1545.1,996c6.4-15.8,14.9-30.7,25.5-44,3.4-4.3,7.1-8.5,11.1-12.4,14.8-14.3,37.4-26.6,57.1-14.5,11.1,6.9,14.4,19.1,14.3,31.9,0,.5.7.8,1,.3l19-26.8c14-21.1,44.8-46.8,70.7-30.7,20.1,12.4,14.6,42.1,10.1,61.3-2.8,12-8.7,23.6-9.8,32.6-.3,2,0,3.7,1,5.4.9.6,5.1,0,10.3-.8,9.4-1.7,17.4,6.9,15,16.2h0c-4.8,16.6-17.8,29.5-34.5,33.7-12.9,3.2-25.9,4.7-34.3-3.8-16.9-17.2,13.8-67.2,5.2-76.5,0,0-.2-.2-.3-.2-15.8-6.7-26.9,16.7-31.8,28.5-9.8,23.8-7,63.2-34.1,73-16.4,5.9-26.8.5-29.2-12.4,0-.2,0-.4-.1-.6-.2-1.2-.4-2.5-.5-3.8,0-.5,0-.9,0-1.4v-1.5c0-.5,0-1,0-1.6.7-21.8,16.7-52.1,10.2-59.3,0,0-.2-.2-.3-.2-15.8-6.7-27,16.6-31.8,28.5-9.8,23.8-7,63.2-34.1,72.9-4.6,1.7-8.7,2.5-12.4,2.4-.6,0-1.2,0-1.7-.1-11.6-.9-17.4-10.8-15.5-26.6,1.5-12.8,5.4-25.6,9-37.9,1.7-6,3.5-11.9,5.3-17.9h0c0,0,5.4-13.5,5.4-13.5Z"/>
        <path class="st1" d="M1780.2,960.5c5.2-26.8,7-63.2,34.1-73,4.8-1.7,9-2.5,12.7-2.3.4,0,.8,0,1.2,0,11.8.8,17.6,10.8,15.8,26.7-1.5,12.8-5.5,25.6-9.1,37.9-1.7,6-3.5,11.9-5.3,17.9,1.1,7.3,7.4,5,12.6,13.3,7.1,11.3-4.9,29.6-13.7,37-19.4,16.3-50,16.7-49.1-14.4,0,0-4.3-16.5,1-43.3Z"/>
        <path class="st1" d="M2011.2,909.4c-2.6,13.9-6.4,26.9-8.4,36.2-3.2,15-8.4,31.5-23.9,37.7-16.2,6.4-26.7,1.4-29.6-11.5,0-.2,0-.4-.1-.6-.3-1.2-.5-2.4-.6-3.7,0-.5,0-1-.1-1.4v-1.5c0-.5,0-1,0-1.6,0-21.9,15.4-53,8.3-59.7-16.1-6.5-26.6,17.3-31.1,29.3-9,24.1-5.1,63.3-31.9,73.9-4.5,1.8-8.7,2.7-12.3,2.8-.6,0-1.2,0-1.7,0-11.6-.5-17.7-10.3-16.3-26.2,1.1-12.9,4.6-25.7,7.9-38.2,1.5-6,3.1-12.1,4.8-18.1-1.3-7.3-7.5-4.7-13-12.9-7.4-11.1,4-29.8,12.6-37.4,18.9-17,49.4-18.2,49.6,12.8,7-10.6,13.5-21.4,22.4-30.6,10.5-10.8,35.6-23.6,50.3-13.9,19,12.5,17.8,39.8,13.1,64.7Z"/>
        <path class="st1" d="M1828.8,819.1c19.1-3,34.9,3.7,31.7,25.5-2,13.9-15.6,25.2-29.1,27-45.7,6.3-35.8-47.3-2.6-52.5Z"/>
      </g>
      <g>
        <path class="st1" d="M1088.6,1131.9c5.2-26.8,7-63.2,34.1-73,4.8-1.7,9-2.5,12.7-2.3.4,0,.8,0,1.2,0,11.8.8,17.6,10.8,15.8,26.7-1.5,12.8-5.5,25.6-9.1,37.9-1.7,6-3.5,11.9-5.3,17.9,1.1,7.3,7.4,5,12.6,13.3,7.1,11.3-4.9,29.6-13.7,37-19.4,16.3-50,16.7-49.1-14.4,0,0-4.3-16.5,1-43.3Z"/>
        <path class="st1" d="M1319.6,1080.7c-2.6,13.9-6.4,26.9-8.4,36.2-3.2,15-8.4,31.5-23.9,37.7-16.2,6.4-26.7,1.4-29.6-11.5,0-.2,0-.4-.1-.6-.3-1.2-.5-2.4-.6-3.7,0-.5,0-1-.1-1.4v-1.5c0-.5,0-1,0-1.6,0-21.9,15.4-53,8.3-59.7-16.1-6.5-26.6,17.3-31.1,29.3-9,24.1-5.1,63.3-31.9,73.9-4.5,1.8-8.7,2.7-12.3,2.8-.6,0-1.2,0-1.7,0-11.6-.5-17.7-10.3-16.3-26.2,1.1-12.9,4.6-25.7,7.9-38.2,1.5-6,3.1-12.1,4.8-18.1-1.3-7.3-7.5-4.7-13-12.9-7.4-11.1,4-29.8,12.6-37.4,18.9-17,49.4-18.2,49.6,12.8,7-10.6,13.5-21.4,22.4-30.6,10.5-10.8,35.6-23.6,50.3-13.9,19,12.5,17.8,39.8,13.1,64.7Z"/>
        <path class="st1" d="M1137.1,990.4c19.1-3,34.9,3.7,31.7,25.5-2,13.9-15.6,25.2-29.1,27-45.7,6.3-35.8-47.3-2.6-52.5Z"/>
        <path class="st1" d="M1469.9,984c-2.7-5.3-6.8-9.4-12.7-11.9-20.5-8.9-45.1-2.2-63.1,11.2-28.1,20.9-48,57-57,90.4-4.7,17.3-11.4,51.6,6.9,63.1,17.3,10.8,37.4-1.1,50.4-15.3,2.9-3.2,5.5-6.3,7.6-9.5,1.7-1.1,4.5-.9,5.2,1.3-1,6.8-2.4,13.5-3.8,20.1-4.8,21.3-8.8,58.1-37.1,59.6-1.7.1-3.6,0-5.1-.9-2.8-1.7-3.2-5.6-4.2-8.7-9.3-30.6-64.1-8.1-48.7,24,8,16.7,26.5,24.5,43.1,29,10.2,2.7,20.9,4.3,31.3,2.7,62.2-9.1,64-104.3,74.8-150.7,5.1-21.7,26.1-77.6,12.3-104.4ZM1421.7,1032.9c-1.2,15.2-16.2,45.8-31.4,51-27.9,9.4,2.4-54.6,11.6-62.3,3.8-3.2,9.1-5.7,13.7-3.9,5.7,2.3,6.6,9.4,6.1,15.2Z"/>
      </g>
    </g>
    <g>
      <path class="st1" d="M1649.8,1267.3v-103.2c0,0,80.4,0,80.4,0v16.9s-60.7,0-60.7,0v27.6s54.9,0,54.9,0v17s-54.8,0-54.8,0v41.8s-19.7,0-19.7,0Z"/>
      <path class="st1" d="M1757.8,1267.2l43.4-103.3h24.1s43.6,103.2,43.6,103.2h-21.6s-8.9-21.8-8.9-21.8h-51.2s-9,21.9-9,21.9h-20.4ZM1794.1,1228.7h37.5s-11.1-27.7-11.1-27.7c-.4-.9-.9-2.3-1.6-4.1-.7-1.8-1.3-3.7-2-5.6-.7-2-1.4-3.8-2-5.6-.7-1.8-1.2-3.3-1.6-4.5h-.9c-.7,2-1.5,4.3-2.5,6.9-1,2.6-1.9,5.1-2.8,7.4-.9,2.4-1.6,4.2-2.1,5.5l-10.9,27.7Z"/>
      <path class="st1" d="M1905.7,1267.1v-103.2c0,0,61.5,0,61.5,0,7.4,0,13.5,1.4,18.4,4.1,4.9,2.7,8.6,6.4,11,11.2,2.5,4.8,3.7,10.3,3.7,16.6,0,6.6-1.5,12.5-4.6,17.8-3,5.2-7.6,9.2-13.5,11.9l21.5,41.7h-21.9s-19.1-38.2-19.1-38.2h-37.3s0,38.3,0,38.3h-19.8ZM1925.5,1212.1h39.1c5,0,8.8-1.5,11.5-4.4,2.7-2.9,4-6.9,4-11.9,0-3.3-.6-6.1-1.7-8.3-1.2-2.3-2.9-4-5.2-5.1-2.3-1.1-5.2-1.7-8.7-1.7h-39.1s0,31.5,0,31.5Z"/>
      <path class="st1" d="M2041.9,1266.9v-103.2c0,0,31.1,0,31.1,0l18.9,57.3c.7,1.7,1.4,3.9,2.2,6.5.8,2.6,1.5,5.2,2.3,7.7.8,2.5,1.4,4.8,1.9,6.8h1c.3-1.8.8-3.9,1.4-6.3.7-2.4,1.3-4.8,2-7.5.7-2.6,1.4-5.1,2.2-7.4l18.8-57.2h30.7s0,103.2,0,103.2h-19.8s0-56,0-56c0-3.6,0-7.3.1-11.2,0-3.9.2-7.3.3-10.2,0-3,.2-4.9.3-5.8h-1.2c-.3,1.1-.9,3-1.6,5.7-.8,2.7-1.6,5.6-2.5,8.6-.9,3-1.7,5.6-2.4,7.7l-20.6,61.3h-18.4s-20.9-61.1-20.9-61.1c-.7-2.1-1.5-4.5-2.3-7.1-.8-2.6-1.5-5.3-2.2-8.1-.7-2.8-1.3-5.1-1.9-7h-1.2c0,2.2.2,4.9.3,8.1.1,3.2.2,6.5.3,9.9.1,3.4.2,6.4.2,9.3v56s-19.1,0-19.1,0Z"/>
    </g>
    <g>
      <g>
        <path class="st1" d="M1413.3,781.4c14.8-9.8,30.6-24.3,47.4-43.2,1.2-1.4,2.6-3.1,4.4-5.1,0,0,0,0,0,0l-16.1-15s0,0,0,0c-13.3,17.1-28.6,32-46.1,44.8,0,0,0,0,0,0-5.9-11.6-10.4-21.6-13.3-30.1-.3-.8-.5-1.6-.8-2.4-.2-.6-.4-1.3-.6-2-.5-1.6-.7-3.2-.7-4.9l.2-8.6-82.6-2-.5,19.8,62,1.5-2.6,109.8c-.1,4.4-2.7,6.6-7.7,6.5l-27.6-1.7,4.2,19.7,30.9.7c13.4.3,20.3-6.8,20.7-21.5v-2.8c0,0,1.9-77.3,1.9-77.3,0,0,0,0,0,0,5.2,15,12.9,29.6,23,43.7,7.3,10.3,16.2,19.5,25.9,27.6,11.1,9.3,17.7,14,19.7,14.1l13.1-18.8s0,0,0,0c-22.7-14.2-40.9-31.8-54.7-52.8Z"/>
        <path class="st1" d="M1402.9,709.8l7.7-19.3c0-.2,0-.4-.2-.5-19.5-6.7-39.8-11.9-61.1-15.6-3.4-.5-7.8-1.2-13.4-2.2-.2,0-.4,0-.4.2l-8.9,17.4c-.1.2,0,.5.3.6,5,.9,9.1,1.7,12.3,2.4,22.8,4.1,43.8,9.9,63.2,17.3.2,0,.4,0,.5-.2Z"/>
        <path class="st1" d="M1355,753.7l-74.7-1.8c-.1,0-.2,0-.2.2l-.5,19.2c0,.1,0,.2.2.2l52,1.3c.2,0,.2.2.2.3-7.2,14.8-15.9,26.6-26,35.5-10.2,8.9-21.9,16.8-35.3,23.8-.1,0-.2.2,0,.3l12.6,16.8c0,0,.1,0,.2,0,36.4-18.7,60.2-45.3,71.3-79.9,0,0,0,0,0,0l.4-15.7c0-.1,0-.2-.2-.2Z"/>
      </g>
      <g>
        <path class="st1" d="M1592.9,632.2l-73.8.6,1.3,162,18.9-.2v-15.9c-.1,0,54.8-.4,54.8-.4l-1.2-146.1ZM1575,758.8l-36,.3-.4-47.8,36-.3.4,47.8ZM1574.5,692.4l-36,.3-.3-40.5,36-.3.3,40.5Z"/>
        <path class="st1" d="M1612.5,627.3c0,0-.1,0-.1.1l.8,94c.1,18-2.7,32.9-8.7,44.8-5.9,11.9-17,24.6-33.5,38.2,0,0,0,.2,0,.2l18.1,13.5s0,0,.1,0c23.6-21.1,37.7-43.7,42.3-67.8,0,0,0-.1.2-.1l51.2-.4c0,0,.1,0,.1.1l.3,38.4c0,2.7-.3,4.6-.9,5.5-.6.9-2.6,1.4-5.9,1.4-.3,0-.6,0-1.1,0-1.3,0-3.8,0-7.5,0l-22.2-.7c0,0-.1,0-.1.2l5.9,20.4c0,0,0,0,.1,0l21.6-.2c15.2-.1,24-2.1,26.7-5.8,2.6-3.8,3.9-9.2,3.8-16.4v-2.8s-1.3-163.4-1.3-163.4c0,0,0-.1-.1-.1l-89.9.7ZM1682.8,730.3l-48.9.4c0,0-.1,0-.1-.1l-.3-33.4c0,0,0-.1.1-.1l48.9-.4c0,0,.1,0,.1.1l.3,33.4c0,0,0,.1-.1.1ZM1682.3,677.3l-48.9.4c0,0-.1,0-.1-.1l-.2-31c0,0,0-.1.1-.1l48.9-.4c0,0,.1,0,.1.1l.2,31c0,0,0,.1-.1.1Z"/>
      </g>
    </g>
    <path class="st1" d="M2161.5,812.6c-2.7-5.3-6.8-9.4-12.7-11.9-20.5-8.9-45.1-2.2-63.1,11.2-28.1,20.9-48,57-57,90.4-4.7,17.3-11.4,51.6,6.9,63.1,17.3,10.8,37.4-1.1,50.4-15.3,2.9-3.2,5.5-6.3,7.6-9.5,1.7-1.1,4.5-.9,5.2,1.3-1,6.8-2.4,13.5-3.8,20.1-4.8,21.3-8.8,58.1-37.1,59.6-1.7.1-3.6,0-5.1-.9-2.8-1.7-3.2-5.6-4.2-8.7-9.3-30.6-64.1-8.1-48.7,24,8,16.7,26.5,24.5,43.1,29,10.2,2.7,20.9,4.3,31.3,2.7,62.2-9.1,64-104.3,74.8-150.7,5.1-21.7,26.1-77.6,12.3-104.4ZM2113.3,861.6c-1.2,15.2-16.2,45.8-31.4,51-27.9,9.4,2.4-54.6,11.6-62.3,3.8-3.2,9.1-5.7,13.7-3.9,5.7,2.3,6.6,9.4,6.1,15.2Z"/>
  </g>
</svg>